<?xml version="1.0" encoding="utf-8"?>
<!-- Generator: Adobe Illustrator 27.8.1, SVG Export Plug-In . SVG Version: 6.00 Build 0)  -->
<svg version="1.1" id="Layer_1" xmlns="http://www.w3.org/2000/svg" xmlns:xlink="http://www.w3.org/1999/xlink" x="0px" y="0px"
	 viewBox="0 0 478.8 478.8" style="enable-background:new 0 0 478.8 478.8;" xml:space="preserve">
<style type="text/css">
	.st0{clip-path:url(#SVGID_00000007430519662502124030000009725543096077407877_);}
	.st1{fill:#FFFFFF;stroke:#FFFFFF;stroke-miterlimit:10;}
	.st2{fill:none;}
	.st3{fill:#FFFFFF;}
</style>
<g>
	<g>
		<defs>
			<rect id="SVGID_1_" x="0.8" y="1" width="477" height="476.8"/>
		</defs>
		<clipPath id="SVGID_00000103963388867935820740000013553650280235476668_">
			<use xlink:href="#SVGID_1_"  style="overflow:visible;"/>
		</clipPath>
		<g style="clip-path:url(#SVGID_00000103963388867935820740000013553650280235476668_);">
			<g>
				<path d="M477.4,227.7c-0.2-3.9-0.5-7.8-0.9-11.7c-0.4-3.9-0.9-7.8-1.4-11.6s-1.2-7.7-2-11.5s-1.6-7.6-2.6-11.4s-2-7.5-3.1-11.3
					c-1.1-3.7-2.4-7.4-3.7-11.1s-2.7-7.3-4.2-10.9c-1.5-3.6-3.1-7.2-4.7-10.7c-1.7-3.5-3.4-7-5.3-10.4s-3.8-6.8-5.8-10.2
					c-2-3.3-4.1-6.6-6.3-9.9c-2.2-3.2-4.4-6.4-6.7-9.6c-2.3-3.1-4.7-6.2-7.2-9.2c-2.5-3-5-6-7.6-8.9c-2.6-2.9-5.3-5.7-8.1-8.5
					s-5.6-5.4-8.5-8.1s-5.8-5.2-8.9-7.6s-6.1-4.9-9.2-7.2c-3.1-2.3-6.3-4.6-9.6-6.7c-3.2-2.2-6.5-4.3-9.9-6.3s-6.7-3.9-10.2-5.8
					s-6.9-3.6-10.5-5.3s-7.1-3.2-10.7-4.7c-3.6-1.5-7.2-2.9-10.9-4.2c-3.7-1.3-7.4-2.5-11.1-3.7c-3.7-1.1-7.5-2.2-11.3-3.1
					c-3.8-0.9-7.6-1.8-11.4-2.6c-3.8-0.8-7.7-1.4-11.5-2s-7.7-1-11.6-1.4s-7.8-0.7-11.7-0.9S243.2,1,239.3,1l0,0
					c-3.9,0-7.8,0.1-11.7,0.3s-7.8,0.5-11.7,0.9c-3.9,0.4-7.8,0.9-11.6,1.4c-3.9,0.6-7.7,1.2-11.5,2c-3.8,0.8-7.6,1.6-11.4,2.6
					c-3.8,0.9-7.5,2-11.3,3.1c-3.7,1.1-7.4,2.3-11.1,3.7c-3.7,1.3-7.3,2.7-10.9,4.2s-7.2,3.1-10.7,4.7s-7,3.4-10.4,5.3
					s-6.8,3.8-10.2,5.8c-3.3,2-6.6,4.1-9.9,6.3c-3.2,2.2-6.4,4.4-9.6,6.7c-3.1,2.3-6.2,4.7-9.2,7.2c-3,2.5-6,5-8.9,7.6
					s-5.7,5.3-8.5,8.1c-2.8,2.8-5.4,5.6-8.1,8.5c-2.6,2.9-5.2,5.8-7.7,8.9c-2.5,3-4.9,6.1-7.2,9.2c-2.3,3.1-4.6,6.3-6.7,9.6
					c-2.2,3.2-4.3,6.5-6.3,9.9c-2,3.3-3.9,6.7-5.8,10.2c-1.8,3.4-3.6,6.9-5.3,10.5s-3.2,7.1-4.7,10.7c-1.5,3.6-2.9,7.2-4.2,10.9
					s-2.5,7.4-3.7,11.1c-1.1,3.7-2.2,7.5-3.1,11.3s-1.8,7.6-2.6,11.4c-0.8,3.8-1.4,7.7-2,11.5s-1,7.7-1.4,11.6s-0.7,7.8-0.9,11.7
					s-0.3,7.8-0.3,11.7s0.1,7.8,0.3,11.7c0.2,3.9,0.5,7.8,0.9,11.7c0.4,3.9,0.9,7.8,1.4,11.6s1.2,7.7,2,11.5
					c0.8,3.8,1.6,7.6,2.6,11.4c0.9,3.8,2,7.5,3.1,11.3c1.1,3.7,2.3,7.4,3.7,11.1c1.3,3.7,2.7,7.3,4.2,10.9c1.5,3.6,3.1,7.2,4.7,10.7
					s3.4,7,5.3,10.5s3.8,6.8,5.8,10.2c2,3.3,4.1,6.6,6.3,9.9c2.2,3.2,4.4,6.4,6.7,9.6c2.3,3.1,4.7,6.2,7.2,9.2c2.5,3,5,6,7.7,8.9
					c2.6,2.9,5.3,5.7,8.1,8.5c2.8,2.8,5.6,5.5,8.5,8.1s5.8,5.2,8.9,7.6c3,2.5,6.1,4.9,9.2,7.2c3.1,2.3,6.3,4.6,9.6,6.7
					s6.5,4.3,9.9,6.3c3.3,2,6.7,3.9,10.2,5.8s6.9,3.6,10.4,5.3s7.1,3.2,10.7,4.7c3.6,1.5,7.2,2.9,10.9,4.2c3.7,1.3,7.4,2.5,11.1,3.7
					s7.5,2.2,11.3,3.1c3.8,1,7.6,1.8,11.4,2.6s7.7,1.4,11.5,2c3.9,0.6,7.7,1,11.6,1.4s7.8,0.7,11.7,0.9c3.9,0.2,7.8,0.3,11.7,0.3
					s7.8-0.1,11.7-0.3c3.9-0.2,7.8-0.5,11.7-0.9c3.9-0.4,7.8-0.9,11.6-1.4s7.7-1.2,11.5-2c3.8-0.8,7.6-1.6,11.4-2.6
					c3.8-1,7.5-2,11.3-3.1c3.7-1.1,7.4-2.4,11.1-3.7c3.7-1.3,7.3-2.7,10.9-4.2c3.6-1.5,7.2-3.1,10.7-4.7s7-3.4,10.5-5.3
					s6.8-3.8,10.2-5.8c3.3-2,6.6-4.1,9.9-6.3s6.4-4.4,9.6-6.7c3.1-2.3,6.2-4.7,9.2-7.2c3-2.5,6-5,8.9-7.6c2.9-2.6,5.7-5.3,8.5-8.1
					c2.8-2.8,5.5-5.6,8.1-8.5s5.2-5.8,7.6-8.9c2.5-3,4.9-6.1,7.2-9.2c2.3-3.1,4.6-6.3,6.7-9.6s4.3-6.5,6.3-9.9s3.9-6.7,5.8-10.2
					s3.6-6.9,5.3-10.5s3.2-7.1,4.7-10.7c1.5-3.6,2.9-7.2,4.2-10.9c1.3-3.7,2.5-7.4,3.7-11.1c1.1-3.7,2.2-7.5,3.1-11.3
					c1-3.8,1.8-7.6,2.6-11.4c0.8-3.8,1.4-7.7,2-11.5s1-7.7,1.4-11.6c0.4-3.9,0.7-7.8,0.9-11.7c0.2-3.9,0.3-7.8,0.3-11.7
					S477.6,231.6,477.4,227.7L477.4,227.7z"/>
				<path class="st1" d="M239.4,1c-3.9,0-7.8,0.1-11.7,0.3s-7.8,0.5-11.7,0.9c-3.9,0.4-7.8,0.9-11.6,1.4c-3.9,0.6-7.7,1.2-11.5,2
					c-3.8,0.8-7.6,1.6-11.4,2.6c-3.8,0.9-7.5,2-11.3,3.1c-3.7,1.1-7.4,2.3-11.1,3.7c-3.7,1.3-7.3,2.7-10.9,4.2s-7.2,3.1-10.7,4.7
					s-7,3.4-10.4,5.3s-6.8,3.8-10.2,5.8s-6.6,4.1-9.9,6.3s-6.4,4.4-9.6,6.7c-3.1,2.3-6.2,4.7-9.2,7.2s-6,5-8.9,7.6s-5.7,5.3-8.5,8.1
					c-2.8,2.8-5.4,5.6-8.1,8.5s-5.2,5.8-7.7,8.9c-2.5,3-4.9,6.1-7.2,9.2c-2.3,3.1-4.6,6.3-6.7,9.6c-2.2,3.2-4.3,6.5-6.3,9.9
					c-2,3.3-3.9,6.7-5.8,10.2c-1.8,3.4-3.6,6.9-5.3,10.5s-3.2,7.1-4.7,10.7c-1.5,3.6-2.9,7.2-4.2,10.9s-2.5,7.4-3.7,11.1
					c-1.1,3.7-2.2,7.5-3.1,11.3s-1.8,7.6-2.6,11.4c-0.8,3.8-1.4,7.7-2,11.5s-1,7.7-1.4,11.6s-0.7,7.8-0.9,11.7S1,235.5,1,239.4
					s0.1,7.8,0.3,11.7c0.2,3.9,0.5,7.8,0.9,11.7c0.4,3.9,0.9,7.8,1.4,11.6s1.2,7.7,2,11.5c0.8,3.8,1.6,7.6,2.6,11.4
					c0.9,3.8,2,7.5,3.1,11.3c1.1,3.7,2.3,7.4,3.7,11.1c1.3,3.7,2.7,7.3,4.2,10.9c1.5,3.6,3.1,7.2,4.7,10.7s3.4,7,5.3,10.5
					s3.8,6.8,5.8,10.2s4.1,6.6,6.3,9.9s4.4,6.4,6.7,9.6c2.3,3.1,4.7,6.2,7.2,9.2c2.5,3,5,6,7.7,8.9s5.3,5.7,8.1,8.5
					c2.8,2.8,5.6,5.5,8.5,8.1s5.8,5.2,8.9,7.6c3,2.5,6.1,4.9,9.2,7.2c3.1,2.3,6.3,4.6,9.6,6.7s6.5,4.3,9.9,6.3
					c3.3,2,6.7,3.9,10.2,5.8s6.9,3.6,10.4,5.3s7.1,3.2,10.7,4.7c3.6,1.5,7.2,2.9,10.9,4.2c3.7,1.3,7.4,2.5,11.1,3.7
					s7.5,2.2,11.3,3.1c3.8,1,7.6,1.8,11.4,2.6s7.7,1.4,11.5,2c3.9,0.6,7.7,1,11.6,1.4s7.8,0.7,11.7,0.9c3.9,0.2,7.8,0.3,11.7,0.3
					s7.8-0.1,11.7-0.3c3.9-0.2,7.8-0.5,11.7-0.9s7.8-0.9,11.6-1.4s7.7-1.2,11.5-2c3.8-0.8,7.6-1.6,11.4-2.6c3.8-1,7.5-2,11.3-3.1
					c3.7-1.1,7.4-2.4,11.1-3.7c3.7-1.3,7.3-2.7,10.9-4.2c3.6-1.5,7.2-3.1,10.7-4.7s7-3.4,10.5-5.3s6.8-3.8,10.2-5.8s6.6-4.1,9.9-6.3
					s6.4-4.4,9.6-6.7c3.1-2.3,6.2-4.7,9.2-7.2c3-2.5,6-5,8.9-7.6s5.7-5.3,8.5-8.1c2.8-2.8,5.5-5.6,8.1-8.5s5.2-5.8,7.6-8.9
					c2.5-3,4.9-6.1,7.2-9.2c2.3-3.1,4.6-6.3,6.7-9.6s4.3-6.5,6.3-9.9s3.9-6.7,5.8-10.2s3.6-6.9,5.3-10.5s3.2-7.1,4.7-10.7
					c1.5-3.6,2.9-7.2,4.2-10.9c1.3-3.7,2.5-7.4,3.7-11.1c1.1-3.7,2.2-7.5,3.1-11.3c1-3.8,1.8-7.6,2.6-11.4c0.8-3.8,1.4-7.7,2-11.5
					s1-7.7,1.4-11.6c0.4-3.9,0.7-7.8,0.9-11.7c0.2-3.9,0.3-7.8,0.3-11.7s-0.1-7.8-0.3-11.7s-0.5-7.8-0.9-11.7
					c-0.4-3.9-0.9-7.8-1.4-11.6s-1.2-7.7-2-11.5s-1.6-7.6-2.6-11.4s-2-7.5-3.1-11.3c-1.1-3.7-2.4-7.4-3.7-11.1s-2.7-7.3-4.2-10.9
					c-1.5-3.6-3.1-7.2-4.7-10.7c-1.7-3.5-3.4-7-5.3-10.4s-3.8-6.8-5.8-10.2c-2-3.3-4.1-6.6-6.3-9.9c-2.2-3.2-4.4-6.4-6.7-9.6
					c-2.3-3.1-4.7-6.2-7.2-9.2c-2.5-3-5-6-7.6-8.9s-5.3-5.7-8.1-8.5s-5.6-5.4-8.5-8.1s-5.8-5.2-8.9-7.6s-6.1-4.9-9.2-7.2
					c-3.1-2.3-6.3-4.6-9.6-6.7s-6.5-4.3-9.9-6.3s-6.7-3.9-10.2-5.8s-6.9-3.6-10.5-5.3s-7.1-3.2-10.7-4.7c-3.6-1.5-7.2-2.9-10.9-4.2
					c-3.7-1.3-7.4-2.5-11.1-3.7c-3.7-1.1-7.5-2.2-11.3-3.1c-3.8-0.9-7.6-1.8-11.4-2.6c-3.8-0.8-7.7-1.4-11.5-2s-7.7-1-11.6-1.4
					c-3.9-0.4-7.8-0.7-11.7-0.9S243.3,1,239.4,1L239.4,1L239.4,1z M361.1,69.7c0.6-0.7,1.2-1.3,1.9-1.9s1.5-1,2.2-1.4
					c0.8-0.4,1.6-0.7,2.5-1c0.9-0.2,1.7-0.4,2.6-0.5s1.8-0.1,2.7,0c0.9,0.1,1.8,0.3,2.6,0.6s1.7,0.6,2.5,1.1
					c0.8,0.4,1.5,0.9,2.2,1.5c5.8,4.9,11.3,10.2,16.6,15.7c0.6,0.7,1.2,1.4,1.6,2.1c0.5,0.8,0.9,1.6,1.2,2.4
					c0.3,0.8,0.6,1.7,0.7,2.6c0.1,0.9,0.2,1.8,0.2,2.7s-0.1,1.8-0.3,2.7c-0.2,0.9-0.5,1.7-0.9,2.5s-0.8,1.6-1.3,2.3s-1.1,1.4-1.8,2
					c-0.7,0.6-1.4,1.2-2.1,1.6c-0.8,0.5-1.6,0.9-2.4,1.2c-0.8,0.3-1.7,0.6-2.6,0.7c-0.9,0.2-1.8,0.2-2.7,0.2c-0.9,0-1.8-0.1-2.7-0.3
					s-1.7-0.5-2.5-0.8c-0.8-0.4-1.6-0.8-2.3-1.3c-0.7-0.5-1.4-1.1-2-1.8c-4.5-4.8-9.4-9.3-14.4-13.6c-0.7-0.6-1.3-1.2-1.9-1.9
					s-1-1.4-1.5-2.3c-0.4-0.8-0.7-1.6-1-2.5s-0.4-1.7-0.5-2.6s0-1.8,0-2.7c0.1-0.9,0.3-1.8,0.6-2.6s0.6-1.7,1.1-2.5
					C360.1,71.1,360.6,70.3,361.1,69.7L361.1,69.7L361.1,69.7z M194.6,25.3c5.5-1.4,11-2.6,16.6-3.6c5.6-1,11.2-1.7,16.9-2.2
					c5.7-0.5,11.3-0.8,17-0.8c5.7,0,11.3,0.2,17,0.6c5.7,0.4,11.3,1.1,16.9,2s11.2,2,16.7,3.4c5.5,1.4,11,3,16.3,4.8
					c5.4,1.8,10.7,3.9,15.9,6.1c0.7,0.3,1.3,0.6,1.9,1s1.2,0.8,1.8,1.3s1.1,1,1.5,1.6s0.9,1.2,1.2,1.8c0.4,0.6,0.7,1.3,0.9,2
					c0.3,0.7,0.5,1.4,0.6,2.1c0.1,0.7,0.2,1.5,0.3,2.2c0,0.7,0,1.5-0.1,2.2s-0.2,1.5-0.4,2.2c-0.2,0.7-0.5,1.4-0.8,2.1
					c-0.3,0.7-0.7,1.3-1.1,1.9c-0.4,0.6-0.9,1.2-1.4,1.7c-0.5,0.5-1.1,1-1.6,1.5c-0.6,0.4-1.2,0.8-1.9,1.2c-0.6,0.3-1.3,0.6-2,0.9
					s-1.4,0.4-2.1,0.5c-2.6,0.4-5.1,0.1-7.5-1c-9.1-3.9-18.4-7.1-28-9.4s-19.3-3.9-29.1-4.7c-9.8-0.8-19.7-0.7-29.5,0.2
					c-9.8,0.9-19.5,2.5-29.1,5c-0.9,0.2-1.8,0.4-2.6,0.4s-1.8,0-2.7-0.1c-0.9-0.1-1.8-0.3-2.6-0.6c-0.8-0.3-1.7-0.7-2.4-1.1
					c-0.8-0.5-1.5-1-2.2-1.6c-0.7-0.6-1.3-1.3-1.8-2c-0.5-0.7-1-1.5-1.4-2.3s-0.7-1.7-0.9-2.5s-0.4-1.8-0.4-2.7s0-1.8,0.1-2.7
					s0.3-1.8,0.6-2.6s0.7-1.7,1.1-2.4c0.5-0.8,1-1.5,1.6-2.2c0.6-0.7,1.3-1.3,2-1.8c0.7-0.5,1.5-1,2.3-1.4S193.8,25.5,194.6,25.3
					L194.6,25.3C194.6,25.3,194.6,25.3,194.6,25.3z M229.9,449.1C1.3,438.8,83.4,226.4,83.4,226.4c-7.9-225.5,96.7-60.9,96.7-60.9
					c36.4-14.9,74.8-14.3,74.8-14.3s19.6-71.9,47-68.8c27.4,3.1,42.5,86.9,42.5,86.9C473.3,232,451.7,459,229.9,449.1L229.9,449.1
					L229.9,449.1z"/>
			</g>
		</g>
	</g>
	<rect x="0.8" y="1" class="st2" width="477" height="476.8"/>
</g>
<path class="st3" d="M343.6,341.4c-0.7-0.2-1.4-0.2-2-0.1s-1.3,0.3-1.9,0.6s-1.1,0.8-1.5,1.3s-0.7,1.2-0.9,1.8
	c-1.4,5.1-3.7,8.3-7,9.6c-5.8,2.3-14.2-1-18.4-3.2c3-17.5-2.6-37.4-2.9-38.6c-0.1-0.3-0.2-0.5-0.3-0.8c3.2-2.4,5.7-5.4,7.4-9
	c0.2-0.5,0.4-1,0.5-1.5c0.1-0.5,0.1-1,0-1.5c0-0.5-0.2-1-0.4-1.5c-0.2-0.5-0.5-0.9-0.8-1.3c-0.3-0.4-0.7-0.8-1.1-1s-0.9-0.5-1.4-0.7
	s-1-0.2-1.5-0.3s-1,0-1.5,0.2l-18.9,4.8c-1,0.3-1.9,0.8-2.6,1.6c-0.7,0.8-1.2,1.7-1.4,2.7s-0.1,2.1,0.3,3s1,1.8,1.9,2.4
	c2.9,2.2,6.1,3.6,9.6,4.4c0,0.5,0,1,0.2,1.5c2.7,9.6,7.5,36.9-3.3,47c-5.8,5.5-16.2,5.7-30.9,0.6c-0.7-0.2-1.3-0.3-2-0.3
	c-0.7,0-1.4,0.2-2,0.5s-1.2,0.7-1.6,1.2c-0.5,0.5-0.8,1.1-1,1.8s-0.3,1.3-0.3,2c0,0.7,0.2,1.4,0.5,2c0.3,0.6,0.7,1.2,1.2,1.6
	c0.5,0.5,1.1,0.8,1.8,1c7,2.6,14.2,4,21.7,4.2c1.8,0.1,3.6,0,5.4-0.3c1.8-0.3,3.5-0.7,5.2-1.3c1.7-0.6,3.3-1.4,4.9-2.3
	c1.5-0.9,3-2,4.3-3.2c2.6-2.5,4.6-5.4,6.1-8.7c5.3,2.6,10.9,4,16.8,4.2c2.9,0,5.7-0.5,8.4-1.5c6.6-2.6,11-8.2,13.4-16.6
	c0.2-0.7,0.2-1.3,0.1-2s-0.3-1.3-0.7-1.9c-0.4-0.6-0.8-1.1-1.4-1.5C344.8,341.9,344.2,341.6,343.6,341.4L343.6,341.4L343.6,341.4z"
	/>
<path class="st3" d="M108.5,204.7l45.4-24.3C153.9,180.5,99.1,73.9,108.5,204.7z"/>
<path class="st3" d="M335.9,251.4c-12.6,5.3-18.2,22.6-14,32.6s17.1,7.1,29.7,1.8c12.5-5.3,20-10.9,15.8-21
	C363.1,254.7,348.4,246.1,335.9,251.4L335.9,251.4L335.9,251.4z"/>
<path class="st3" d="M320.5,166.6c0,0-18.9-101.7-38.7-7.7C281.8,158.9,302.8,156.1,320.5,166.6z"/>
<path class="st3" d="M223.2,274.4c-18.9-2.9-37,9.3-38.7,20.9c-1.8,11.5,15.4,16.2,34.4,19.1c19,2.9,32.7,2.9,34.4-8.6
	S242.2,277.3,223.2,274.4L223.2,274.4z"/>
</svg>
