<svg width="494" height="167" viewBox="0 0 494 167" fill="none" xmlns="http://www.w3.org/2000/svg">
<g filter="url(#filter0_d_523_646)">
<rect x="39" y="39" width="416" height="76" rx="26" fill="#494D56"/>
<path d="M81.2449 73.3H83.7849V77.58L88.4049 73.3H91.3249L88.4049 76C89.4849 76.28 90.2383 76.7333 90.6649 77.36C91.0916 77.9867 91.3049 78.82 91.3049 79.86V84H88.7649V80.04C88.7649 79.28 88.6249 78.7067 88.3449 78.32C88.0783 77.9333 87.5849 77.66 86.8649 77.5L83.7849 80.36V84H81.2449V73.3ZM97.1654 77.16C97.1654 76.3733 97.0054 75.8133 96.6854 75.48C96.3787 75.1467 95.8187 74.98 95.0054 74.98C94.2587 74.98 93.4987 75.1733 92.7254 75.56V73.58C93.0454 73.42 93.4654 73.2867 93.9854 73.18C94.5187 73.06 95.0387 73 95.5454 73C96.9187 73 97.9521 73.3733 98.6454 74.12C99.3521 74.8667 99.7054 75.9333 99.7054 77.32V84H97.1654V77.16ZM102.704 77.48L101.704 75.82C102.438 74.9 103.278 74.2 104.224 73.72C105.184 73.24 106.291 73 107.544 73C109.211 73 110.484 73.3733 111.364 74.12C112.258 74.8667 112.704 75.9 112.704 77.22V84H110.164V77.42C110.164 76.5933 109.944 75.98 109.504 75.58C109.064 75.18 108.411 74.98 107.544 74.98C106.891 74.98 106.311 75.0733 105.804 75.26C105.311 75.4467 104.851 75.7533 104.424 76.18L105.244 77.5V84H102.704V77.48ZM121.252 84.3C120.585 84.3 119.925 84.1667 119.272 83.9C118.632 83.62 118.059 83.2133 117.552 82.68V84H115.112V73.3H117.652V80.68C118.345 81.7733 119.305 82.32 120.532 82.32C122.105 82.32 122.892 81.5867 122.892 80.12V73.3H125.412V80.24C125.412 81 125.245 81.6933 124.912 82.32C124.592 82.9333 124.119 83.42 123.492 83.78C122.865 84.1267 122.119 84.3 121.252 84.3ZM116.507 70.22H123.167V68.06H125.447V71.84H116.507V70.22ZM131.987 84.3C131.134 84.3 130.294 84.2067 129.467 84.02C128.641 83.8333 127.954 83.5733 127.407 83.24V77.64H132.207V79.7H129.947V81.92C130.441 82.1867 131.121 82.32 131.987 82.32C133.161 82.32 134.047 82 134.647 81.36C135.247 80.72 135.547 79.7867 135.547 78.56C135.547 77.72 135.414 77.04 135.147 76.52C134.881 76 134.441 75.6133 133.827 75.36C133.214 75.1067 132.387 74.98 131.347 74.98C130.667 74.98 129.974 75.0533 129.267 75.2C128.574 75.3333 127.994 75.5333 127.527 75.8V73.82C128.061 73.5533 128.694 73.3533 129.427 73.22C130.174 73.0733 130.961 73 131.787 73C133.814 73 135.381 73.4867 136.487 74.46C137.594 75.42 138.147 76.7867 138.147 78.56C138.147 80.3333 137.614 81.7333 136.547 82.76C135.494 83.7867 133.974 84.3 131.987 84.3ZM141.491 77.62C140.851 77.62 140.398 77.4733 140.131 77.18C139.878 76.8867 139.751 76.4333 139.751 75.82V74.54H142.031V75.36C142.031 75.56 142.071 75.7 142.151 75.78C142.245 75.86 142.398 75.9 142.611 75.9H144.971V77.62H141.491ZM141.491 83.04C140.851 83.04 140.398 82.8933 140.131 82.6C139.878 82.3067 139.751 81.8533 139.751 81.24V79.96H142.031V80.78C142.031 80.98 142.071 81.12 142.151 81.2C142.245 81.28 142.398 81.32 142.611 81.32H144.971V83.04H141.491ZM149.748 84C149.054 84 148.521 83.8067 148.148 83.42C147.788 83.02 147.608 82.4667 147.608 81.76V74.54C147.608 72.94 148.094 71.7867 149.068 71.08H145.668V68.96H152.388V70.94C151.601 71.26 151.028 71.6933 150.668 72.24C150.321 72.7733 150.148 73.52 150.148 74.48V80.96C150.148 81.3067 150.221 81.5467 150.368 81.68C150.514 81.8133 150.754 81.88 151.088 81.88H151.788V84H149.748ZM157.604 84.3C156.844 84.3 156.071 84.22 155.284 84.06C154.511 83.9 153.904 83.66 153.464 83.34V81.36C154.051 81.7067 154.697 81.9667 155.404 82.14C156.124 82.3133 156.784 82.4 157.384 82.4C158.184 82.4 158.757 82.32 159.104 82.16C159.464 82 159.644 81.7 159.644 81.26C159.644 80.9533 159.551 80.7133 159.364 80.54C159.177 80.3533 158.924 80.2 158.604 80.08C158.284 79.96 157.684 79.7667 156.804 79.5C155.657 79.14 154.797 78.7067 154.224 78.2C153.664 77.6933 153.384 77.0067 153.384 76.14C153.384 75.14 153.784 74.3667 154.584 73.82C155.384 73.2733 156.464 73 157.824 73C158.544 73 159.231 73.08 159.884 73.24C160.551 73.3867 161.097 73.5867 161.524 73.84V75.92C161.084 75.64 160.551 75.4133 159.924 75.24C159.311 75.0667 158.691 74.98 158.064 74.98C156.637 74.98 155.924 75.3667 155.924 76.14C155.924 76.42 156.011 76.6467 156.184 76.82C156.357 76.9933 156.591 77.14 156.884 77.26C157.177 77.3667 157.624 77.5133 158.224 77.7L158.884 77.9C159.737 78.1667 160.397 78.4533 160.864 78.76C161.344 79.0667 161.677 79.42 161.864 79.82C162.064 80.22 162.164 80.7133 162.164 81.3C162.164 82.1933 161.784 82.92 161.024 83.48C160.264 84.0267 159.124 84.3 157.604 84.3ZM167.715 84.3C166.528 84.3 165.568 84 164.835 83.4C164.115 82.8 163.755 81.9533 163.755 80.86C163.755 80.14 163.935 79.5067 164.295 78.96C164.668 78.4133 165.188 77.9867 165.855 77.68C166.535 77.3733 167.328 77.22 168.235 77.22C169.528 77.22 170.648 77.44 171.595 77.88V77.4C171.595 76.5733 171.348 75.9667 170.855 75.58C170.375 75.18 169.595 74.98 168.515 74.98C167.862 74.98 167.215 75.0467 166.575 75.18C165.948 75.3133 165.402 75.4933 164.935 75.72V73.74C165.362 73.54 165.948 73.3667 166.695 73.22C167.455 73.0733 168.195 73 168.915 73C169.995 73 170.928 73.1667 171.715 73.5L172.595 72.5H175.395L173.335 74.86C173.855 75.4467 174.115 76.2733 174.115 77.34V84H171.595V79.88C170.702 79.4267 169.682 79.2 168.535 79.2C167.788 79.2 167.228 79.3467 166.855 79.64C166.495 79.92 166.315 80.3333 166.315 80.88C166.315 81.3733 166.482 81.74 166.815 81.98C167.148 82.2067 167.675 82.32 168.395 82.32C168.848 82.32 169.242 82.2533 169.575 82.12V84.06C169.082 84.22 168.462 84.3 167.715 84.3ZM176.587 74.64H179.127L181.467 82.02C182.587 82.02 183.447 81.7067 184.047 81.08C184.66 80.44 184.967 79.5333 184.967 78.36C184.967 77.2267 184.76 76.38 184.347 75.82C183.934 75.26 183.274 74.98 182.367 74.98C181.874 74.98 181.414 75.0467 180.987 75.18V73.24C181.507 73.08 182.114 73 182.807 73C184.367 73 185.547 73.4733 186.347 74.42C187.16 75.3667 187.567 76.68 187.567 78.36C187.567 79.5333 187.307 80.5467 186.787 81.4C186.28 82.2533 185.594 82.9 184.727 83.34C183.86 83.78 182.9 84 181.847 84H179.547L176.587 74.64ZM193.125 84.3C191.939 84.3 190.979 84 190.245 83.4C189.525 82.8 189.165 81.9533 189.165 80.86C189.165 80.14 189.345 79.5067 189.705 78.96C190.079 78.4133 190.599 77.9867 191.265 77.68C191.945 77.3733 192.739 77.22 193.645 77.22C194.939 77.22 196.059 77.44 197.005 77.88V77.4C197.005 76.5733 196.759 75.9667 196.265 75.58C195.785 75.18 195.005 74.98 193.925 74.98C193.272 74.98 192.625 75.0467 191.985 75.18C191.359 75.3133 190.812 75.4933 190.345 75.72V73.74C190.772 73.54 191.359 73.3667 192.105 73.22C192.865 73.0733 193.605 73 194.325 73C195.405 73 196.339 73.1667 197.125 73.5L198.005 72.5H200.805L198.745 74.86C199.265 75.4467 199.525 76.2733 199.525 77.34V84H197.005V79.88C196.112 79.4267 195.092 79.2 193.945 79.2C193.199 79.2 192.639 79.3467 192.265 79.64C191.905 79.92 191.725 80.3333 191.725 80.88C191.725 81.3733 191.892 81.74 192.225 81.98C192.559 82.2067 193.085 82.32 193.805 82.32C194.259 82.32 194.652 82.2533 194.985 82.12V84.06C194.492 84.22 193.872 84.3 193.125 84.3ZM195.489 71.84C194.862 71.84 194.409 71.68 194.129 71.36C193.835 71.04 193.689 70.56 193.689 69.92V68.76H195.969V69.68C195.969 69.8933 196.009 70.04 196.089 70.12C196.169 70.1867 196.315 70.22 196.529 70.22H201.289V71.84H195.489ZM207.257 84.3C205.671 84.3 204.397 83.9933 203.437 83.38C202.477 82.7667 201.997 81.9 201.997 80.78C201.997 80.2333 202.157 79.74 202.477 79.3C202.797 78.86 203.211 78.5533 203.717 78.38C203.237 78.1533 202.844 77.8267 202.537 77.4C202.244 76.9733 202.097 76.4933 202.097 75.96C202.097 75.0667 202.404 74.3533 203.017 73.82C203.631 73.2733 204.537 73 205.737 73C206.111 73 206.471 73.0267 206.817 73.08C207.164 73.12 207.437 73.1733 207.637 73.24V75.22C207.464 75.14 207.237 75.08 206.957 75.04C206.691 75 206.451 74.98 206.237 74.98C205.211 74.98 204.697 75.36 204.697 76.12C204.697 76.5333 204.824 76.84 205.077 77.04C205.331 77.24 205.737 77.34 206.297 77.34H207.637V79.4H206.297C205.164 79.4 204.597 79.86 204.597 80.78C204.597 81.26 204.831 81.64 205.297 81.92C205.777 82.1867 206.431 82.32 207.257 82.32C208.297 82.32 209.057 82.1067 209.537 81.68C210.031 81.2533 210.277 80.6267 210.277 79.8V73.28H212.817V79.76C212.817 80.52 212.631 81.2467 212.257 81.94C211.897 82.62 211.297 83.1867 210.457 83.64C209.631 84.08 208.564 84.3 207.257 84.3ZM224.557 84C223.863 84 223.33 83.8067 222.957 83.42C222.597 83.02 222.417 82.4667 222.417 81.76V73.3H224.957V80.96C224.957 81.3067 225.03 81.5467 225.177 81.68C225.323 81.8133 225.563 81.88 225.897 81.88H226.597V84H224.557ZM229.937 84C229.243 84 228.71 83.8067 228.337 83.42C227.977 83.02 227.797 82.4667 227.797 81.76V73.3H230.337V80.96C230.337 81.3067 230.41 81.5467 230.557 81.68C230.703 81.8133 230.943 81.88 231.277 81.88H231.977V84H229.937ZM238.659 84.3C237.673 84.3 236.806 84.1333 236.059 83.8C235.313 83.4533 234.733 82.98 234.319 82.38C233.906 81.7667 233.699 81.0733 233.699 80.3V79.8C233.699 79.3333 233.799 78.9 233.999 78.5C234.199 78.1 234.473 77.6533 234.819 77.16C235.059 76.8 235.226 76.54 235.319 76.38C235.413 76.22 235.459 76.06 235.459 75.9C235.459 75.5 235.213 75.3 234.719 75.3H233.579V73.3H236.059C236.659 73.3 237.133 73.4733 237.479 73.82C237.839 74.1533 238.019 74.6067 238.019 75.18C238.019 75.58 237.939 75.9467 237.779 76.28C237.633 76.6133 237.413 77.02 237.119 77.5C236.826 77.98 236.606 78.38 236.459 78.7C236.313 79.0067 236.239 79.34 236.239 79.7V80.2C236.239 80.8667 236.446 81.3867 236.859 81.76C237.286 82.1333 237.886 82.32 238.659 82.32C239.473 82.32 240.093 82.1 240.519 81.66C240.959 81.2067 241.179 80.5467 241.179 79.68C241.179 77.9333 240.466 77.06 239.039 77.06V75.72L241.079 73H243.799L241.579 75.96C242.339 76.32 242.886 76.8 243.219 77.4C243.553 78 243.719 78.76 243.719 79.68C243.719 80.5733 243.513 81.3733 243.099 82.08C242.686 82.7733 242.093 83.32 241.319 83.72C240.559 84.1067 239.673 84.3 238.659 84.3ZM245.796 73.3H248.236V74.62C248.742 74.0867 249.329 73.6867 249.996 73.42C250.676 73.14 251.356 73 252.036 73C253.356 73 254.362 73.3733 255.056 74.12C255.749 74.8533 256.096 75.8 256.096 76.96V84H253.556V77.08C253.556 75.68 252.809 74.98 251.316 74.98C250.022 74.98 249.029 75.5267 248.336 76.62V84H245.796V73.3ZM259.091 77.48L258.091 75.82C258.824 74.9 259.664 74.2 260.611 73.72C261.571 73.24 262.678 73 263.931 73C265.598 73 266.871 73.3733 267.751 74.12C268.644 74.8667 269.091 75.9 269.091 77.22V84H266.551V77.42C266.551 76.5933 266.331 75.98 265.891 75.58C265.451 75.18 264.798 74.98 263.931 74.98C263.278 74.98 262.698 75.0733 262.191 75.26C261.698 75.4467 261.238 75.7533 260.811 76.18L261.631 77.5V84H259.091V77.48ZM265.059 71.84C264.432 71.84 263.979 71.68 263.699 71.36C263.405 71.04 263.259 70.56 263.259 69.92V68.76H265.539V69.68C265.539 69.8933 265.579 70.04 265.659 70.12C265.739 70.1867 265.885 70.22 266.099 70.22H270.859V71.84H265.059ZM276.859 84.3C275.792 84.3 274.852 84.1067 274.039 83.72C273.239 83.3333 272.619 82.8 272.179 82.12C271.752 81.4267 271.539 80.64 271.539 79.76V73.3H274.079V79.66C274.079 80.5 274.312 81.1533 274.779 81.62C275.245 82.0867 275.939 82.32 276.859 82.32C277.765 82.32 278.452 82.0867 278.919 81.62C279.385 81.1533 279.619 80.5 279.619 79.66V73.3H282.159V79.76C282.159 80.64 281.939 81.4267 281.499 82.12C281.072 82.8 280.459 83.3333 279.659 83.72C278.859 84.1067 277.925 84.3 276.859 84.3ZM286.705 84C286.012 84 285.479 83.8067 285.105 83.42C284.745 83.02 284.565 82.4667 284.565 81.76V73.3H287.105V80.96C287.105 81.3067 287.179 81.5467 287.325 81.68C287.472 81.8133 287.712 81.88 288.045 81.88H288.745V84H286.705ZM290.757 78.12H293.277L294.237 82.02C295.357 82.02 296.257 81.7267 296.937 81.14C297.63 80.54 297.977 79.6933 297.977 78.6C297.977 77.4267 297.677 76.5333 297.077 75.92C296.477 75.2933 295.484 74.98 294.097 74.98C293.43 74.98 292.75 75.0467 292.057 75.18C291.364 75.3133 290.79 75.4867 290.337 75.7V73.72C290.857 73.4933 291.477 73.32 292.197 73.2C292.917 73.0667 293.657 73 294.417 73C296.35 73 297.857 73.4867 298.937 74.46C300.03 75.4333 300.577 76.8133 300.577 78.6C300.577 79.68 300.31 80.6267 299.777 81.44C299.244 82.2533 298.517 82.8867 297.597 83.34C296.677 83.78 295.67 84 294.577 84H292.217L290.757 78.12ZM295.613 70.58C295.613 70.4333 295.586 70.3267 295.533 70.26C295.466 70.1933 295.353 70.16 295.193 70.16H294.273V68.4H295.973C296.426 68.4 296.76 68.5133 296.973 68.74C297.186 68.9533 297.293 69.22 297.293 69.54V70.18H301.393V71.84H295.613V70.58ZM306.013 77.16C306.013 76.3733 305.853 75.8133 305.533 75.48C305.226 75.1467 304.666 74.98 303.853 74.98C303.106 74.98 302.346 75.1733 301.573 75.56V73.58C301.893 73.42 302.313 73.2867 302.833 73.18C303.366 73.06 303.886 73 304.393 73C305.766 73 306.8 73.3733 307.493 74.12C308.2 74.8667 308.553 75.9333 308.553 77.32V84H306.013V77.16ZM310.952 73.3H313.492V77.58L318.112 73.3H321.032L318.112 76C319.192 76.28 319.945 76.7333 320.372 77.36C320.799 77.9867 321.012 78.82 321.012 79.86V84H318.472V80.04C318.472 79.28 318.332 78.7067 318.052 78.32C317.785 77.9333 317.292 77.66 316.572 77.5L313.492 80.36V84H310.952V73.3ZM327.592 84.3C326.726 84.3 325.979 84.1267 325.352 83.78C324.726 83.42 324.246 82.9333 323.912 82.32C323.592 81.6933 323.432 81 323.432 80.24V73.3H325.972V80.12C325.972 81.5867 326.752 82.32 328.312 82.32C329.539 82.32 330.499 81.7733 331.192 80.68V73.3H333.732V84H331.292V82.68C330.786 83.2133 330.206 83.62 329.552 83.9C328.912 84.1667 328.259 84.3 327.592 84.3ZM329.168 70.58C329.168 70.4333 329.141 70.3267 329.088 70.26C329.021 70.1933 328.908 70.16 328.748 70.16H327.828V68.4H329.528C329.981 68.4 330.314 68.5133 330.528 68.74C330.741 68.9533 330.848 69.22 330.848 69.54V70.18H334.948V71.84H329.168V70.58ZM339.568 77.16C339.568 76.3733 339.408 75.8133 339.088 75.48C338.781 75.1467 338.221 74.98 337.408 74.98C336.661 74.98 335.901 75.1733 335.128 75.56V73.58C335.448 73.42 335.868 73.2867 336.388 73.18C336.921 73.06 337.441 73 337.948 73C339.321 73 340.354 73.3733 341.048 74.12C341.754 74.8667 342.108 75.9333 342.108 77.32V84H339.568V77.16ZM344.507 73.3H346.947V74.62C347.453 74.0867 348.04 73.6867 348.707 73.42C349.387 73.14 350.067 73 350.747 73C352.067 73 353.073 73.3733 353.767 74.12C354.46 74.8533 354.807 75.8 354.807 76.96V84H352.267V77.08C352.267 75.68 351.52 74.98 350.027 74.98C348.733 74.98 347.74 75.5267 347.047 76.62V84H344.507V73.3ZM345.902 70.22H352.562V68.06H354.842V71.84H345.902V70.22ZM352.562 63.68H354.842V66.42H352.562V63.68ZM359.982 84C359.289 84 358.755 83.8067 358.382 83.42C358.022 83.02 357.842 82.4667 357.842 81.76V74.54C357.842 72.94 358.329 71.7867 359.302 71.08H355.902V68.96H362.622V70.94C361.835 71.26 361.262 71.6933 360.902 72.24C360.555 72.7733 360.382 73.52 360.382 74.48V80.96C360.382 81.3067 360.455 81.5467 360.602 81.68C360.749 81.8133 360.989 81.88 361.322 81.88H362.022V84H359.982ZM368.878 84.3C367.252 84.3 365.965 83.8467 365.018 82.94C364.085 82.02 363.618 80.68 363.618 78.92C363.618 77.6933 363.858 76.64 364.338 75.76C364.832 74.8667 365.532 74.1867 366.438 73.72C367.358 73.24 368.438 73 369.678 73C371.638 73 373.072 73.4533 373.978 74.36C374.885 75.2667 375.338 76.4467 375.338 77.9V84H372.798V77.88C372.798 76.9467 372.552 76.2333 372.058 75.74C371.578 75.2333 370.785 74.98 369.678 74.98C368.612 74.98 367.765 75.3267 367.138 76.02C366.525 76.7 366.218 77.6667 366.218 78.92C366.218 80.0667 366.485 80.92 367.018 81.48C367.552 82.04 368.318 82.32 369.318 82.32C369.812 82.32 370.272 82.2533 370.698 82.12V84.06C370.178 84.22 369.572 84.3 368.878 84.3ZM370.769 70.58C370.769 70.4333 370.743 70.3267 370.689 70.26C370.623 70.1933 370.509 70.16 370.349 70.16H369.429V68.4H371.129C371.583 68.4 371.916 68.5133 372.129 68.74C372.343 68.9533 372.449 69.22 372.449 69.54V70.18H376.549V71.84H370.769V70.58ZM377.729 77.52C377.729 76.08 378.203 74.9667 379.149 74.18C380.109 73.3933 381.403 73 383.029 73C384.656 73 385.943 73.3933 386.889 74.18C387.836 74.9667 388.309 76.08 388.309 77.52V84H385.769V77.42C385.769 76.6067 385.529 76 385.049 75.6C384.583 75.1867 383.909 74.98 383.029 74.98C382.149 74.98 381.469 75.18 380.989 75.58C380.509 75.98 380.269 76.5933 380.269 77.42V79.18C380.443 78.9 380.696 78.6733 381.029 78.5C381.376 78.3267 381.776 78.24 382.229 78.24H383.849V80.36H382.049C381.529 80.36 381.103 80.5333 380.769 80.88C380.436 81.2133 380.269 81.62 380.269 82.1V84H377.729V77.52ZM394.538 84.3C393.778 84.3 393.004 84.22 392.218 84.06C391.444 83.9 390.838 83.66 390.398 83.34V81.36C390.984 81.7067 391.631 81.9667 392.338 82.14C393.058 82.3133 393.718 82.4 394.318 82.4C395.118 82.4 395.691 82.32 396.038 82.16C396.398 82 396.578 81.7 396.578 81.26C396.578 80.9533 396.484 80.7133 396.298 80.54C396.111 80.3533 395.858 80.2 395.538 80.08C395.218 79.96 394.618 79.7667 393.738 79.5C392.591 79.14 391.731 78.7067 391.158 78.2C390.598 77.6933 390.318 77.0067 390.318 76.14C390.318 75.14 390.718 74.3667 391.518 73.82C392.318 73.2733 393.398 73 394.758 73C395.478 73 396.164 73.08 396.818 73.24C397.484 73.3867 398.031 73.5867 398.458 73.84V75.92C398.018 75.64 397.484 75.4133 396.858 75.24C396.244 75.0667 395.624 74.98 394.998 74.98C393.571 74.98 392.858 75.3667 392.858 76.14C392.858 76.42 392.944 76.6467 393.118 76.82C393.291 76.9933 393.524 77.14 393.818 77.26C394.111 77.3667 394.558 77.5133 395.158 77.7L395.818 77.9C396.671 78.1667 397.331 78.4533 397.798 78.76C398.278 79.0667 398.611 79.42 398.798 79.82C398.998 80.22 399.098 80.7133 399.098 81.3C399.098 82.1933 398.718 82.92 397.958 83.48C397.198 84.0267 396.058 84.3 394.538 84.3ZM394.649 71.84C394.022 71.84 393.569 71.68 393.289 71.36C392.995 71.04 392.849 70.56 392.849 69.92V68.76H395.129V69.68C395.129 69.8933 395.169 70.04 395.249 70.12C395.329 70.1867 395.475 70.22 395.689 70.22H400.449V71.84H394.649ZM406.449 84.3C405.382 84.3 404.442 84.1067 403.629 83.72C402.829 83.3333 402.209 82.8 401.769 82.12C401.342 81.4267 401.129 80.64 401.129 79.76V73.3H403.669V79.66C403.669 80.5 403.902 81.1533 404.369 81.62C404.835 82.0867 405.529 82.32 406.449 82.32C407.355 82.32 408.042 82.0867 408.509 81.62C408.975 81.1533 409.209 80.5 409.209 79.66V73.3H411.749V79.76C411.749 80.64 411.529 81.4267 411.089 82.12C410.662 82.8 410.049 83.3333 409.249 83.72C408.449 84.1067 407.515 84.3 406.449 84.3Z" fill="#F2F2F2"/>
<path d="M414.572 125.717C413.407 127.657 410.593 127.657 409.428 125.717L403.47 115.794C402.27 113.795 403.71 111.25 406.042 111.25L417.958 111.25C420.29 111.25 421.73 113.795 420.53 115.794L414.572 125.717Z" fill="#494D56"/>
</g>
<defs>
<filter id="filter0_d_523_646" x="0" y="0" width="494" height="166.172" filterUnits="userSpaceOnUse" color-interpolation-filters="sRGB">
<feFlood flood-opacity="0" result="BackgroundImageFix"/>
<feColorMatrix in="SourceAlpha" type="matrix" values="0 0 0 0 0 0 0 0 0 0 0 0 0 0 0 0 0 0 127 0" result="hardAlpha"/>
<feOffset/>
<feGaussianBlur stdDeviation="19.5"/>
<feComposite in2="hardAlpha" operator="out"/>
<feColorMatrix type="matrix" values="0 0 0 0 0 0 0 0 0 0 0 0 0 0 0 0 0 0 0.25 0"/>
<feBlend mode="normal" in2="BackgroundImageFix" result="effect1_dropShadow_523_646"/>
<feBlend mode="normal" in="SourceGraphic" in2="effect1_dropShadow_523_646" result="shape"/>
</filter>
</defs>
</svg>
