<svg xmlns="http://www.w3.org/2000/svg" xmlns:xlink="http://www.w3.org/1999/xlink" width="500" zoomAndPan="magnify" viewBox="0 0 375 374.999991" height="500" preserveAspectRatio="xMidYMid meet" version="1.0"><defs><clipPath id="f0d19a561a"><path d="M 9.113281 45.683594 L 366 45.683594 L 366 329 L 9.113281 329 Z M 9.113281 45.683594 " clip-rule="nonzero"/></clipPath></defs><g clip-path="url(#f0d19a561a)"><path fill="#9c9c9c" d="M 365.84375 151.4375 C 364.421875 154.277344 363.878906 157.554688 360.804688 159.539062 C 355.621094 162.878906 350.667969 166.574219 345.628906 170.125 C 343.664062 171.503906 341.722656 172.859375 339.445312 174.445312 C 339.546875 176.410156 339.632812 178.140625 339.734375 179.894531 C 340.175781 187.308594 340.65625 194.71875 341.03125 202.132812 C 341.511719 212.070312 341.953125 221.988281 342.308594 231.925781 C 342.578125 239.859375 342.703125 247.773438 342.828125 255.707031 C 342.851562 257.207031 342.683594 258.710938 342.621094 260.234375 C 342.496094 263.597656 341.179688 266.269531 338.355469 268.234375 C 334.238281 271.113281 330.226562 274.160156 326.066406 277.023438 C 304.871094 291.554688 282.96875 304.957031 260.308594 317.066406 C 254.3125 320.261719 248.167969 323.164062 242.0625 326.171875 C 241.164062 326.609375 240.222656 327.003906 239.28125 327.359375 C 236.417969 328.425781 233.515625 328.945312 230.421875 328.46875 C 227.203125 327.964844 223.921875 327.777344 220.660156 327.464844 C 214.390625 326.878906 208.117188 326.398438 201.867188 325.710938 C 194.742188 324.917969 187.636719 324 180.527344 323.019531 C 173.421875 322.035156 166.335938 320.949219 159.25 319.824219 C 151.183594 318.527344 143.09375 317.277344 135.066406 315.730469 C 121.859375 313.164062 108.667969 310.492188 95.519531 307.652344 C 82.605469 304.875 69.792969 301.722656 57.167969 297.839844 C 54.886719 297.128906 52.652344 296.355469 50.730469 294.789062 C 48.722656 293.183594 47.65625 291.242188 47.613281 288.652344 C 47.550781 285.5 47.257812 282.367188 47.175781 279.214844 C 46.839844 267.398438 46.546875 255.558594 46.234375 243.742188 C 45.941406 232.175781 45.671875 220.589844 45.359375 209.019531 C 45.316406 207.539062 45.421875 205.992188 44.625 204.449219 C 40.402344 203.132812 36.078125 201.839844 31.769531 200.441406 C 27.214844 198.980469 22.679688 197.496094 18.183594 195.890625 C 16.074219 195.117188 14.066406 194.050781 12.039062 193.027344 C 11.015625 192.507812 10.199219 191.714844 9.742188 190.628906 C 9.324219 189.667969 9.15625 188.75 9.636719 187.726562 C 11.015625 184.90625 12.164062 181.941406 13.710938 179.226562 C 20.421875 167.410156 27.195312 155.613281 35.011719 144.484375 C 36.746094 142.023438 38.542969 139.578125 40.300781 137.136719 C 40.800781 136.425781 41.300781 135.695312 41.761719 135.007812 C 41.574219 132.917969 40.339844 131.4375 39.296875 129.890625 C 34.613281 123.042969 29.871094 116.21875 25.144531 109.367188 C 23.078125 106.363281 20.964844 103.375 18.980469 100.308594 C 18.164062 99.054688 17.601562 97.636719 17.015625 96.257812 C 16.472656 95.066406 16.910156 94.003906 17.914062 93.292969 C 19.125 92.414062 20.421875 91.601562 21.71875 90.871094 C 29.367188 86.484375 37.351562 82.769531 45.359375 79.074219 C 66.382812 69.367188 87.953125 61.015625 109.753906 53.246094 C 114.480469 51.554688 119.371094 50.34375 124.175781 48.863281 C 125.933594 48.320312 127.4375 48.71875 128.691406 49.96875 C 129.570312 50.847656 130.40625 51.808594 131.136719 52.828125 C 137.554688 61.703125 143.949219 70.597656 150.347656 79.472656 C 150.703125 79.972656 151.078125 80.472656 151.496094 81.058594 C 152.792969 80.117188 153.273438 78.800781 153.921875 77.632812 C 157.035156 71.871094 160.085938 66.085938 163.179688 60.324219 C 165.019531 56.902344 166.941406 53.496094 168.824219 50.074219 C 169.242188 49.300781 169.703125 48.550781 170.183594 47.820312 C 170.765625 46.941406 171.582031 46.378906 172.667969 46.296875 C 174.320312 46.148438 175.949219 45.960938 177.582031 45.980469 C 185.648438 46.128906 193.71875 46.253906 201.765625 46.566406 C 209.058594 46.835938 216.355469 47.316406 223.648438 47.757812 C 228.8125 48.046875 233.953125 48.363281 239.09375 48.757812 C 243.609375 49.09375 248.125 49.53125 252.640625 49.949219 C 255.773438 50.242188 258.910156 50.492188 262.042969 50.824219 C 271.679688 51.890625 281.316406 52.851562 290.929688 54.125 C 299.898438 55.316406 308.84375 56.859375 317.769531 58.320312 C 323.851562 59.324219 329.914062 60.367188 335.972656 61.535156 C 338.796875 62.078125 341.597656 62.871094 344.355469 63.726562 C 347.136719 64.605469 348.035156 66.546875 347.175781 69.304688 C 346.90625 70.136719 346.570312 70.953125 346.195312 71.746094 C 342.347656 80.078125 338.523438 88.425781 334.59375 96.714844 C 333.089844 99.890625 331.332031 102.917969 329.621094 106.175781 C 330.308594 106.84375 330.976562 107.59375 331.730469 108.199219 C 336.265625 111.851562 340.28125 115.988281 343.855469 120.582031 C 349.957031 128.429688 356.101562 136.238281 362.144531 144.152344 C 363.4375 145.84375 364.421875 147.765625 365.464844 149.621094 C 365.78125 150.164062 366.070312 151 365.84375 151.4375 Z M 365.84375 151.4375 " fill-opacity="1" fill-rule="nonzero"/></g><path fill="#494d56" d="M 320.757812 106.570312 C 321.53125 106.78125 322.304688 106.96875 323.121094 107.15625 C 323.035156 107.199219 322.953125 107.238281 322.867188 107.28125 C 302.238281 117.21875 282.027344 128.011719 261.855469 138.871094 C 252.117188 144.132812 242.335938 149.328125 232.574219 154.550781 C 231.027344 155.382812 229.460938 156.242188 227.828125 156.867188 C 225.613281 157.722656 223.355469 158.058594 220.890625 157.535156 C 216.332031 156.574219 211.714844 155.96875 207.113281 155.21875 C 199.925781 154.046875 192.714844 152.859375 185.503906 151.710938 C 179.921875 150.8125 174.320312 149.976562 168.71875 149.121094 C 163.261719 148.285156 157.808594 147.449219 152.164062 146.574219 C 152.058594 145.738281 151.871094 145.027344 151.894531 144.320312 C 152.058594 134.882812 152.207031 125.445312 152.4375 116.007812 C 152.605469 108.824219 152.917969 101.664062 152.039062 94.503906 C 151.914062 93.523438 151.976562 92.457031 150.890625 91.894531 C 150.09375 92.058594 149.929688 92.644531 150.011719 93.3125 C 150.910156 99.953125 150.511719 106.632812 150.367188 113.292969 C 150.222656 120.203125 149.90625 127.136719 149.71875 134.046875 C 149.636719 137.199219 149.636719 140.332031 149.574219 143.484375 C 149.550781 144.214844 149.488281 144.945312 149.425781 145.886719 C 148.675781 145.90625 148.066406 146.03125 147.484375 145.949219 C 139.019531 144.738281 130.550781 143.441406 122.085938 142.273438 C 114.855469 141.269531 107.625 140.332031 100.371094 139.496094 C 94.246094 138.808594 88.082031 138.347656 81.957031 137.742188 C 75.8125 137.136719 69.6875 136.46875 63.5625 135.78125 C 59.070312 135.277344 54.574219 134.671875 50.082031 134.128906 C 49.832031 134.109375 49.539062 134.027344 49.328125 134.128906 C 49.203125 134.191406 49.078125 134.277344 48.953125 134.339844 C 49.035156 132.898438 50.121094 131.375 51.210938 130.039062 C 51.941406 130.121094 52.359375 130.246094 52.714844 130.121094 C 53.675781 129.808594 54.574219 129.347656 55.496094 128.953125 C 65.027344 124.695312 74.535156 120.433594 84.046875 116.152344 C 101.019531 108.554688 117.949219 100.851562 135.339844 94.210938 C 138.746094 92.917969 142.132812 91.582031 145.519531 90.222656 C 146.542969 89.804688 147.503906 89.222656 148.464844 88.65625 C 150.597656 89.03125 152.707031 89.492188 154.839844 89.765625 C 154.714844 89.828125 154.589844 89.890625 154.441406 89.953125 C 156.46875 90.390625 157.558594 90.703125 158.644531 90.871094 C 168.007812 92.164062 177.433594 92.457031 186.863281 93.144531 C 192.253906 93.542969 197.667969 93.792969 203.058594 94.148438 C 206.570312 94.378906 210.082031 94.691406 213.59375 95.003906 C 217.734375 95.378906 221.851562 95.777344 225.988281 96.195312 C 231.988281 96.777344 238.007812 97.34375 244.007812 97.988281 C 249.378906 98.574219 254.75 99.285156 260.101562 99.929688 C 266.832031 100.765625 273.582031 101.601562 280.3125 102.480469 C 287.542969 103.417969 294.777344 104.378906 302.007812 105.359375 C 306.628906 105.988281 311.226562 106.65625 315.824219 107.261719 C 316.933594 107.40625 318.082031 107.449219 319.210938 107.46875 C 319.585938 107.488281 320.003906 107.449219 320.296875 107.261719 C 320.484375 107.113281 320.652344 106.84375 320.757812 106.570312 Z M 320.757812 106.570312 " fill-opacity="1" fill-rule="nonzero"/><path fill="#bf9b8e" d="M 52.191406 290.761719 C 51.773438 281.34375 51.378906 272.15625 50.980469 262.992188 C 50.894531 261.113281 50.832031 259.214844 50.792969 257.335938 C 50.476562 246.394531 50.269531 235.433594 49.832031 224.492188 C 49.621094 218.960938 49.015625 213.449219 48.597656 207.9375 C 48.554688 207.332031 48.535156 206.726562 48.492188 206.265625 C 49.222656 205.492188 49.808594 205.867188 50.375 206.015625 C 70.292969 211.820312 90.378906 217.039062 110.570312 221.863281 C 125.117188 225.347656 139.75 228.542969 154.441406 231.382812 C 162.09375 232.863281 169.765625 234.304688 177.457031 235.621094 C 180.675781 236.164062 183.957031 236.332031 187.21875 236.664062 C 187.59375 236.707031 187.96875 236.683594 188.34375 236.683594 C 193.171875 236.8125 196.707031 234.996094 199.027344 230.484375 C 202.832031 223.09375 206.425781 215.617188 209.476562 207.894531 C 214.703125 194.679688 219.53125 181.316406 223.773438 167.746094 C 224.023438 166.929688 224.378906 166.136719 224.839844 164.945312 C 225.425781 165.84375 225.863281 166.386719 226.175781 166.992188 C 227.828125 170.105469 229.417969 173.234375 231.070312 176.367188 C 236.503906 186.722656 241.875 197.121094 247.457031 207.414062 C 249.609375 211.378906 252.179688 215.140625 254.730469 218.875 C 255.691406 220.316406 257.027344 221.527344 258.34375 222.675781 C 259.789062 223.90625 261.5625 224.199219 263.320312 223.425781 C 265.515625 222.46875 267.710938 221.484375 269.714844 220.234375 C 278.179688 215.011719 286.6875 209.835938 294.984375 204.386719 C 307.609375 196.078125 320.066406 187.539062 332.585938 179.101562 C 333.589844 178.433594 334.65625 177.808594 335.660156 177.183594 C 335.933594 177.597656 336.183594 177.789062 336.183594 177.996094 C 336.308594 181.023438 336.453125 184.03125 336.496094 187.058594 C 336.808594 212.464844 337.960938 237.855469 338.085938 263.285156 C 337.144531 264.015625 336.390625 264.664062 335.578125 265.226562 C 310.222656 282.597656 284.160156 298.820312 256.964844 313.164062 C 251.300781 316.148438 245.46875 318.863281 239.742188 321.722656 C 237.945312 322.621094 236.230469 323.644531 234.015625 324.875 C 232.699219 324.730469 230.839844 324.519531 228.976562 324.3125 C 223.605469 323.664062 218.234375 322.996094 212.863281 322.347656 C 208.117188 321.765625 203.375 321.199219 198.628906 320.574219 C 191.773438 319.675781 184.917969 318.757812 178.0625 317.757812 C 171.351562 316.773438 164.644531 315.710938 157.933594 314.582031 C 148.632812 313.015625 139.332031 311.472656 130.050781 309.738281 C 115.105469 306.921875 100.222656 303.726562 85.425781 300.136719 C 74.265625 297.484375 63.144531 294.789062 52.191406 290.761719 Z M 224.839844 176.804688 C 224.046875 177.578125 223.960938 178.164062 223.984375 178.789062 C 224.066406 181.816406 224.128906 184.824219 224.277344 187.851562 C 224.609375 194.761719 225.007812 201.671875 225.363281 208.582031 C 225.71875 215.492188 226.03125 222.40625 226.367188 229.316406 C 226.617188 234.347656 226.886719 239.359375 227.140625 244.390625 C 227.535156 252.300781 228.058594 260.214844 228.308594 268.148438 C 228.664062 279.339844 228.8125 290.550781 229.105469 301.742188 C 229.207031 305.648438 229.480469 309.53125 229.6875 313.433594 C 229.730469 314.0625 229.855469 314.6875 230.085938 315.273438 C 230.210938 315.5625 230.671875 315.917969 230.941406 315.878906 C 231.382812 315.816406 231.988281 315.542969 232.113281 315.210938 C 232.40625 314.394531 232.59375 313.519531 232.613281 312.640625 C 232.679688 308.359375 232.804688 304.082031 232.65625 299.800781 C 232.324219 289.863281 231.863281 279.945312 231.421875 270.007812 C 231.132812 263.347656 230.796875 256.6875 230.441406 250.027344 C 230.210938 245.496094 229.917969 240.984375 229.625 236.457031 C 229 226.664062 228.332031 216.871094 227.683594 207.078125 C 227.097656 198.414062 226.53125 189.75 225.925781 181.105469 C 225.863281 179.730469 225.90625 178.332031 224.839844 176.804688 Z M 224.839844 176.804688 " fill-opacity="1" fill-rule="nonzero"/><path fill="#bf9b8e" d="M 341.449219 70.910156 C 336.789062 81.222656 332.066406 91.519531 327.382812 101.8125 C 326.820312 103.0625 326.277344 104.335938 325.585938 105.921875 C 324.9375 106.257812 324.039062 106.71875 323.121094 107.15625 C 322.324219 106.96875 321.53125 106.757812 320.757812 106.570312 C 320.777344 106.507812 320.800781 106.445312 320.820312 106.363281 C 320.863281 106.214844 320.609375 105.882812 320.402344 105.777344 C 319.964844 105.570312 319.484375 105.402344 319 105.339844 C 315.386719 104.816406 311.789062 104.316406 308.175781 103.835938 C 303.429688 103.210938 298.707031 102.625 293.960938 102 C 289.21875 101.371094 284.492188 100.703125 279.769531 100.078125 C 274.898438 99.453125 270.027344 98.847656 265.179688 98.261719 C 259.933594 97.613281 254.707031 96.902344 249.460938 96.363281 C 243.085938 95.691406 236.691406 95.171875 230.296875 94.585938 C 223.292969 93.941406 216.269531 93.1875 209.269531 92.625 C 201.617188 92.019531 193.945312 91.519531 186.296875 91.140625 C 176.242188 90.640625 166.191406 90.179688 156.179688 89.117188 C 155.925781 89.097656 155.65625 89.304688 154.820312 89.742188 C 152.6875 89.472656 150.578125 89.011719 148.445312 88.636719 C 148.464844 88.636719 148.464844 88.617188 148.484375 88.617188 C 148.652344 88.53125 148.800781 88.09375 148.714844 87.988281 C 148.527344 87.71875 148.152344 87.320312 147.941406 87.382812 C 146 87.84375 143.992188 88.199219 142.152344 88.949219 C 133.289062 92.5 124.386719 95.964844 115.671875 99.847656 C 96.273438 108.492188 76.980469 117.363281 57.648438 126.15625 C 55.933594 126.925781 54.21875 127.699219 52.527344 128.554688 C 52.464844 128.578125 52.402344 128.617188 52.359375 128.660156 C 52.378906 128.640625 52.378906 128.640625 52.402344 128.617188 C 52.378906 128.640625 52.378906 128.640625 52.359375 128.660156 C 51.941406 128.933594 51.542969 129.371094 50.8125 129.996094 C 50.960938 130.015625 51.085938 130.015625 51.230469 130.039062 C 50.144531 131.394531 49.058594 132.898438 48.972656 134.339844 C 48.554688 134.570312 48.160156 134.796875 47.90625 135.152344 C 47.511719 135.738281 47.886719 136.675781 48.597656 137.074219 C 49.140625 137.386719 49.703125 137.660156 50.3125 137.824219 C 52.003906 138.285156 53.71875 138.808594 55.453125 139.058594 C 59.800781 139.703125 64.191406 140.226562 68.558594 140.769531 C 74.304688 141.457031 80.054688 142.105469 85.824219 142.753906 C 90.945312 143.339844 96.085938 143.878906 101.207031 144.527344 C 108.3125 145.425781 115.441406 146.34375 122.546875 147.324219 C 128.398438 148.117188 134.253906 148.996094 140.105469 149.851562 C 145.707031 150.6875 151.308594 151.542969 156.886719 152.398438 C 162.492188 153.277344 168.070312 154.171875 173.671875 155.050781 C 179.148438 155.90625 184.605469 156.785156 190.082031 157.640625 C 195.785156 158.539062 201.511719 159.457031 207.21875 160.332031 C 210.207031 160.792969 213.199219 161.25 216.1875 161.628906 C 217.921875 161.855469 219.675781 161.917969 221.640625 162.085938 C 221.601562 162.628906 221.640625 163.109375 221.496094 163.527344 C 216.039062 177.871094 210.648438 192.234375 205.085938 206.515625 C 202.351562 213.550781 199.109375 220.378906 195.535156 227.019531 C 194.34375 229.230469 193.109375 231.425781 191 233.050781 C 190.371094 232.988281 189.746094 232.988281 189.140625 232.863281 C 182.847656 231.675781 176.535156 230.464844 170.246094 229.253906 C 160.484375 227.375 150.703125 225.640625 140.984375 223.59375 C 118.21875 218.835938 95.605469 213.34375 73.136719 207.289062 C 55.765625 202.613281 38.480469 197.707031 21.363281 192.171875 C 18.519531 191.253906 15.59375 190.460938 13.023438 188.6875 C 13.210938 188.269531 13.292969 187.871094 13.523438 187.621094 C 16.367188 184.53125 18.4375 180.941406 20.421875 177.285156 C 27.589844 164.113281 35.367188 151.3125 44.082031 139.121094 C 46.195312 136.175781 45.984375 133.253906 44.980469 130.183594 C 44.542969 128.890625 43.875 127.636719 43.121094 126.488281 C 40.632812 122.6875 38.1875 118.867188 35.511719 115.234375 C 30.746094 108.742188 25.835938 102.355469 20.964844 95.902344 C 21.363281 94.648438 22.617188 94.480469 23.558594 94.003906 C 36.433594 87.382812 49.640625 81.476562 63 75.902344 C 78.550781 69.40625 94.371094 63.5625 110.214844 57.820312 C 114.9375 56.109375 119.640625 54.355469 124.511719 52.558594 C 128.441406 57.800781 132.371094 63.039062 136.257812 68.28125 C 139.792969 73.019531 143.28125 77.800781 146.8125 82.5625 C 147.191406 83.0625 147.546875 83.582031 147.921875 84.085938 C 149.867188 86.546875 150.703125 86.675781 153.3125 85.128906 C 154.652344 84.335938 155.675781 83.25 156.46875 81.933594 C 157.726562 79.886719 158.9375 77.84375 160.109375 75.753906 C 164.726562 67.527344 169.304688 59.28125 173.921875 51.035156 C 174.152344 50.617188 174.445312 50.21875 174.757812 49.738281 C 179.734375 49.992188 184.625 50.21875 189.515625 50.46875 C 190.894531 50.535156 192.273438 50.679688 193.65625 50.742188 C 200.824219 51.074219 208.015625 51.328125 215.183594 51.746094 C 220.21875 52.035156 225.214844 52.539062 230.253906 52.933594 C 234.644531 53.269531 239.054688 53.539062 243.441406 53.914062 C 247.707031 54.269531 251.96875 54.710938 256.234375 55.125 C 259.242188 55.417969 262.253906 55.691406 265.242188 56.066406 C 273.375 57.046875 281.484375 58.027344 289.59375 59.050781 C 303.703125 60.804688 317.707031 63.269531 331.6875 65.816406 C 335.261719 66.464844 338.859375 67.007812 342.453125 67.613281 C 342.621094 68.988281 341.890625 69.929688 341.449219 70.910156 Z M 360.972656 150.769531 C 357.378906 145.925781 353.84375 141.019531 350.125 136.238281 C 345.503906 130.269531 340.800781 124.359375 335.996094 118.535156 C 333.359375 115.339844 330.394531 112.417969 327.320312 109.890625 C 326.964844 109.890625 326.820312 109.847656 326.734375 109.890625 C 300.359375 123.816406 274 137.761719 247.601562 151.625 C 241.371094 154.90625 234.957031 157.828125 228.621094 160.917969 C 228.519531 160.980469 228.394531 161.042969 228.308594 161.125 C 228.203125 161.210938 228.121094 161.292969 228.058594 161.398438 C 227.996094 161.480469 227.996094 161.605469 227.976562 161.648438 C 238.800781 181.128906 248.792969 201.003906 260.433594 220.171875 C 261.523438 219.710938 262.460938 219.398438 263.300781 218.917969 C 265.160156 217.851562 267 216.765625 268.796875 215.597656 C 280.5625 207.832031 292.371094 200.128906 304.035156 192.195312 C 323.390625 179.039062 342.621094 165.71875 361.996094 152.421875 C 361.640625 151.816406 361.347656 151.273438 360.972656 150.769531 Z M 360.972656 150.769531 " fill-opacity="1" fill-rule="nonzero"/></svg>