<svg xmlns="http://www.w3.org/2000/svg" xmlns:xlink="http://www.w3.org/1999/xlink" width="500" zoomAndPan="magnify" viewBox="0 0 375 374.999991" height="500" preserveAspectRatio="xMidYMid meet" version="1.0"><path fill="#bf9b8e" d="M 2.339844 354.65625 L 2.390625 354.664062 L 28.019531 345.15625 L 45.863281 364.792969 C 46.019531 364.957031 46.214844 365.003906 46.445312 364.933594 C 46.660156 364.84375 46.777344 364.679688 46.792969 364.445312 L 47.390625 337.949219 L 74.828125 325.640625 C 74.984375 325.296875 74.886719 325.039062 74.539062 324.863281 L 46.773438 317.03125 L 42.617188 288.644531 C 42.5625 288.40625 42.429688 288.257812 42.214844 288.203125 C 41.984375 288.160156 41.800781 288.226562 41.65625 288.410156 L 25.316406 311.140625 L 0.59375 309.878906 C 0.421875 309.859375 0.265625 309.941406 0.121094 310.121094 C -0.00390625 310.300781 0.0078125 310.507812 0.152344 310.742188 L 15.160156 329.621094 L 2 353.882812 C 1.859375 354.246094 1.972656 354.503906 2.339844 354.65625 Z M 2.339844 354.65625 " fill-opacity="1" fill-rule="nonzero"/><path fill="#bf9b8e" d="M 51.722656 326.75 L 45.15625 318.550781 L 38.585938 310.347656 C 150.703125 210.164062 262.816406 109.976562 374.933594 9.792969 C 267.195312 115.445312 159.460938 221.097656 51.722656 326.75 " fill-opacity="1" fill-rule="nonzero"/></svg>