<?xml version="1.0" encoding="UTF-8"?>
<svg id="Layer_1" data-name="Layer 1" xmlns="http://www.w3.org/2000/svg" viewBox="0 0 477.6 477.4">
  <defs>
    <style>
      .cls-1, .cls-2, .cls-3 {
        stroke-width: 0px;
      }

      .cls-2 {
        fill: none;
      }

      .cls-3 {
        fill: #fff;
      }
    </style>
  </defs>
  <g>
    <g>
      <path class="cls-3" d="m477,226.9c-.2-3.9-.5-7.8-.9-11.7s-.9-7.8-1.4-11.6c-.6-3.9-1.2-7.7-2-11.5s-1.6-7.6-2.6-11.4-2-7.5-3.1-11.3c-1.1-3.7-2.3-7.4-3.7-11.1s-2.7-7.3-4.2-10.9c-1.5-3.6-3.1-7.2-4.7-10.7-1.7-3.5-3.4-7-5.3-10.5-1.8-3.4-3.8-6.8-5.8-10.2-2-3.3-4.1-6.6-6.3-9.9-2.2-3.2-4.4-6.4-6.7-9.6-2.3-3.1-4.7-6.2-7.2-9.2s-5-6-7.6-8.9-5.3-5.7-8.1-8.5-5.6-5.5-8.5-8.1-5.8-5.2-8.9-7.6c-3-2.5-6.1-4.9-9.2-7.2s-6.3-4.6-9.6-6.7c-3.2-2.2-6.5-4.3-9.9-6.3-3.3-2-6.7-3.9-10.2-5.8s-6.9-3.6-10.5-5.3c-3.5-1.7-7.1-3.2-10.7-4.7s-7.2-2.9-10.9-4.2c-3.7-1.3-7.4-2.5-11.1-3.7-3.7-1.1-7.5-2.2-11.3-3.1-3.8-1-7.6-1.8-11.4-2.6-3.8-.8-7.7-1.4-11.5-2s-7.7-1-11.6-1.4-7.8-.7-11.7-.9c-3.9-.2-7.8-.3-11.7-.3h0c-3.9,0-7.8.1-11.7.3-3.9.2-7.8.5-11.7.9s-7.8.9-11.6,1.4c-3.9.6-7.7,1.2-11.5,2-3.8.8-7.6,1.6-11.4,2.6-3.8,1-7.5,2-11.3,3.1-3.7,1.1-7.4,2.4-11.1,3.7-3.7,1.3-7.3,2.7-10.9,4.2-3.6,1.5-7.2,3.1-10.7,4.7-3.5,1.7-7,3.4-10.5,5.3s-6.8,3.8-10.2,5.8c-3.4,2-6.6,4.1-9.9,6.3-3.2,2.2-6.4,4.4-9.6,6.7-3.1,2.3-6.2,4.7-9.2,7.2s-6,5-8.9,7.6-5.7,5.3-8.5,8.1c-2.8,2.8-5.5,5.6-8.1,8.5s-5.2,5.8-7.7,8.9c-2.5,3-4.9,6.1-7.2,9.2s-4.6,6.3-6.7,9.6c-2.2,3.2-4.3,6.5-6.3,9.9-2,3.3-3.9,6.7-5.8,10.2-1.8,3.4-3.6,6.9-5.3,10.5-1.7,3.5-3.2,7.1-4.7,10.7-1.5,3.6-2.9,7.2-4.2,10.9s-2.5,7.4-3.7,11.1c-1.1,3.7-2.2,7.5-3.1,11.3s-1.8,7.6-2.6,11.4c-.8,3.8-1.4,7.7-2,11.5-.6,3.9-1,7.7-1.4,11.6s-.7,7.8-.9,11.7-.3,7.8-.3,11.7.1,7.8.3,11.7c.2,3.9.5,7.8.9,11.7s.9,7.8,1.4,11.6,1.2,7.7,2,11.5c.8,3.8,1.6,7.6,2.6,11.4s2,7.5,3.1,11.3c1.1,3.7,2.3,7.4,3.7,11.1,1.3,3.7,2.7,7.3,4.2,10.9s3.1,7.2,4.7,10.7c1.7,3.5,3.4,7,5.3,10.5,1.8,3.4,3.8,6.8,5.8,10.2,2,3.3,4.1,6.6,6.3,9.9,2.2,3.2,4.4,6.4,6.7,9.6,2.3,3.1,4.7,6.2,7.2,9.2s5,6,7.7,8.9c2.6,2.9,5.3,5.7,8.1,8.5,2.8,2.8,5.6,5.5,8.5,8.1s5.8,5.2,8.9,7.7c3,2.5,6.1,4.9,9.2,7.2,3.1,2.3,6.3,4.6,9.6,6.7,3.2,2.2,6.5,4.3,9.9,6.3,3.3,2,6.7,3.9,10.2,5.8,3.4,1.8,6.9,3.6,10.5,5.3,3.5,1.7,7.1,3.2,10.7,4.7,3.6,1.5,7.2,2.9,10.9,4.2,3.7,1.3,7.4,2.5,11.1,3.7s7.5,2.2,11.3,3.1c3.8,1,7.6,1.8,11.4,2.6s7.7,1.4,11.5,2c3.9.6,7.7,1,11.6,1.4s7.8.7,11.7.9c3.9.2,7.8.3,11.7.3s7.8-.1,11.7-.3c3.9-.2,7.8-.5,11.7-.9s7.8-.9,11.6-1.4,7.7-1.2,11.5-2,7.6-1.6,11.4-2.6,7.5-2,11.3-3.1c3.7-1.1,7.4-2.4,11.1-3.7,3.7-1.3,7.3-2.7,10.9-4.2s7.2-3.1,10.7-4.7c3.5-1.7,7-3.4,10.5-5.3,3.4-1.8,6.8-3.8,10.2-5.8,3.3-2,6.6-4.1,9.9-6.3,3.2-2.2,6.4-4.4,9.6-6.7,3.1-2.3,6.2-4.7,9.2-7.2s6-5,8.9-7.7c2.9-2.6,5.7-5.3,8.5-8.1,2.8-2.8,5.5-5.6,8.1-8.5s5.2-5.8,7.6-8.9c2.5-3,4.9-6.1,7.2-9.2,2.3-3.1,4.6-6.3,6.7-9.6s4.3-6.5,6.3-9.9c2-3.3,3.9-6.7,5.8-10.2,1.8-3.4,3.6-6.9,5.3-10.5,1.7-3.5,3.2-7.1,4.7-10.7s2.9-7.2,4.2-10.9c1.3-3.7,2.5-7.4,3.7-11.1,1.1-3.7,2.2-7.5,3.1-11.3,1-3.8,1.8-7.6,2.6-11.4.8-3.8,1.4-7.7,2-11.5s1-7.7,1.4-11.6.7-7.8.9-11.7c.2-3.9.3-7.8.3-11.7s-.1-7.8-.3-11.7Z"/>
      <path class="cls-1" d="m239,.2c-3.9,0-7.8.1-11.7.3-3.9.2-7.8.5-11.7.9-3.9.4-7.8.9-11.6,1.4-3.9.6-7.7,1.2-11.5,2-3.8.8-7.6,1.6-11.4,2.6-3.8.9-7.5,2-11.3,3.1-3.7,1.1-7.4,2.4-11.1,3.7-3.7,1.3-7.3,2.7-10.9,4.2s-7.2,3.1-10.7,4.7-7,3.4-10.4,5.3-6.8,3.8-10.2,5.8-6.6,4.1-9.9,6.3-6.4,4.4-9.6,6.7c-3.1,2.3-6.2,4.7-9.2,7.2s-6,5-8.9,7.6-5.7,5.3-8.5,8.1c-2.8,2.8-5.4,5.6-8.1,8.5s-5.2,5.8-7.7,8.9c-2.5,3-4.9,6.1-7.2,9.2s-4.6,6.3-6.7,9.6c-2.2,3.2-4.3,6.5-6.3,9.9-2,3.3-3.9,6.7-5.8,10.2-1.8,3.4-3.6,6.9-5.3,10.5s-3.2,7.1-4.7,10.7c-1.5,3.6-2.9,7.2-4.2,10.9s-2.5,7.4-3.7,11.1c-1.1,3.7-2.2,7.5-3.1,11.3s-1.8,7.6-2.6,11.4c-.8,3.8-1.4,7.7-2,11.5s-1,7.7-1.4,11.6-.7,7.8-.9,11.7-.3,7.8-.3,11.7.1,7.8.3,11.7c.2,3.9.5,7.8.9,11.7s.9,7.8,1.4,11.6,1.2,7.7,2,11.5c.8,3.8,1.6,7.6,2.6,11.4.9,3.8,2,7.5,3.1,11.3,1.1,3.7,2.3,7.4,3.7,11.1,1.3,3.7,2.7,7.3,4.2,10.9s3.1,7.2,4.7,10.7,3.4,7,5.3,10.5,3.8,6.8,5.8,10.2,4.1,6.6,6.3,9.9,4.4,6.4,6.7,9.6c2.3,3.1,4.7,6.2,7.2,9.2s5,6,7.7,8.9c2.7,2.9,5.3,5.7,8.1,8.5,2.8,2.8,5.6,5.5,8.5,8.1s5.8,5.2,8.9,7.6c3,2.5,6.1,4.9,9.2,7.2,3.1,2.3,6.3,4.6,9.6,6.7s6.5,4.3,9.9,6.3c3.3,2,6.7,3.9,10.2,5.8,3.5,1.9,6.9,3.6,10.4,5.3s7.1,3.2,10.7,4.7c3.6,1.5,7.2,2.9,10.9,4.2,3.7,1.3,7.4,2.5,11.1,3.7s7.5,2.2,11.3,3.1c3.8,1,7.6,1.8,11.4,2.6s7.7,1.4,11.5,2c3.9.6,7.7,1,11.6,1.4s7.8.7,11.7.9c3.9.2,7.8.3,11.7.3s7.8-.1,11.7-.3c3.9-.2,7.8-.5,11.7-.9s7.8-.9,11.6-1.4,7.7-1.2,11.5-2,7.6-1.6,11.4-2.6,7.5-2,11.3-3.1c3.7-1.1,7.4-2.4,11.1-3.7,3.7-1.3,7.3-2.7,10.9-4.2s7.2-3.1,10.7-4.7,7-3.4,10.5-5.3,6.8-3.8,10.2-5.8,6.6-4.1,9.9-6.3,6.4-4.4,9.6-6.7c3.1-2.3,6.2-4.7,9.2-7.2s6-5,8.9-7.6,5.7-5.3,8.5-8.1c2.8-2.8,5.5-5.6,8.1-8.5s5.2-5.8,7.6-8.9c2.5-3,4.9-6.1,7.2-9.2,2.3-3.1,4.6-6.3,6.7-9.6s4.3-6.5,6.3-9.9,3.9-6.7,5.8-10.2,3.6-6.9,5.3-10.5,3.2-7.1,4.7-10.7,2.9-7.2,4.2-10.9c1.3-3.7,2.5-7.4,3.7-11.1,1.1-3.7,2.2-7.5,3.1-11.3,1-3.8,1.8-7.6,2.6-11.4.8-3.8,1.4-7.7,2-11.5s1-7.7,1.4-11.6.7-7.8.9-11.7c.2-3.9.3-7.8.3-11.7s-.1-7.8-.3-11.7-.5-7.8-.9-11.7-.9-7.8-1.4-11.6-1.2-7.7-2-11.5-1.6-7.6-2.6-11.4-2-7.5-3.1-11.3c-1.1-3.7-2.4-7.4-3.7-11.1s-2.7-7.3-4.2-10.9c-1.5-3.6-3.1-7.2-4.7-10.7-1.7-3.5-3.4-7-5.3-10.4s-3.8-6.8-5.8-10.2c-2-3.3-4.1-6.6-6.3-9.9-2.2-3.2-4.4-6.4-6.7-9.6-2.3-3.1-4.7-6.2-7.2-9.2s-5-6-7.6-8.9-5.3-5.7-8.1-8.5-5.6-5.4-8.5-8.1-5.8-5.2-8.9-7.6-6.1-4.9-9.2-7.2-6.3-4.6-9.6-6.7-6.5-4.3-9.9-6.3-6.7-3.9-10.2-5.8-6.9-3.6-10.5-5.3-7.1-3.2-10.7-4.7-7.2-2.9-10.9-4.2c-3.7-1.3-7.4-2.5-11.1-3.7-3.7-1.1-7.5-2.2-11.3-3.1s-7.6-1.8-11.4-2.6c-3.8-.8-7.7-1.4-11.5-2s-7.7-1-11.6-1.4-7.8-.7-11.7-.9-7.8-.4-11.7-.4h0Zm121.7,68.7c.6-.7,1.2-1.3,1.9-1.9s1.5-1,2.2-1.4c.8-.4,1.6-.7,2.5-1,.9-.2,1.7-.4,2.6-.5s1.8-.1,2.7,0c.9.1,1.8.3,2.6.6s1.7.6,2.5,1.1c.8.4,1.5.9,2.2,1.5,5.8,4.9,11.3,10.2,16.6,15.7.6.7,1.2,1.4,1.6,2.1.5.8.9,1.6,1.2,2.4.3.8.6,1.7.7,2.6s.2,1.8.2,2.7-.1,1.8-.3,2.7c-.2.9-.5,1.7-.9,2.5s-.8,1.6-1.3,2.3-1.1,1.4-1.8,2c-.7.6-1.4,1.2-2.1,1.6-.8.5-1.6.9-2.4,1.2-.8.3-1.7.6-2.6.7-.9.2-1.8.2-2.7.2s-1.8-.1-2.7-.3-1.7-.5-2.5-.8c-.8-.4-1.6-.8-2.3-1.3-.7-.5-1.4-1.1-2-1.8-4.5-4.8-9.4-9.3-14.4-13.6-.7-.6-1.3-1.2-1.9-1.9s-1-1.4-1.5-2.3c-.4-.8-.7-1.6-1-2.5s-.4-1.7-.5-2.6,0-1.8,0-2.7c.1-.9.3-1.8.6-2.6s.6-1.7,1.1-2.5c.6-.8,1.1-1.5,1.7-2.2h0ZM194.2,24.5c5.5-1.4,11-2.6,16.6-3.6s11.2-1.7,16.9-2.2,11.3-.8,17-.8,11.3.2,17,.6c5.7.4,11.3,1.1,16.9,2s11.2,2,16.7,3.4,11,3,16.3,4.8c5.4,1.8,10.7,3.8,15.9,6.1.7.3,1.3.6,1.9,1s1.2.8,1.8,1.3,1.1,1,1.5,1.6.9,1.2,1.2,1.8c.4.6.7,1.3.9,2,.3.7.5,1.4.6,2.1.1.7.2,1.5.3,2.2,0,.7,0,1.5-.1,2.2s-.2,1.5-.4,2.2c-.2.7-.5,1.4-.8,2.1-.3.7-.7,1.3-1.1,1.9-.4.6-.9,1.2-1.4,1.7s-1.1,1-1.6,1.5c-.6.4-1.2.8-1.9,1.2-.6.3-1.3.6-2,.9s-1.4.4-2.1.5c-2.6.4-5.1.1-7.5-1-9.1-3.9-18.4-7.1-28-9.4s-19.3-3.9-29.1-4.7c-9.8-.8-19.7-.7-29.5.2s-19.5,2.5-29.1,5c-.9.2-1.8.4-2.6.4s-1.8,0-2.7-.1-1.8-.3-2.6-.6-1.7-.7-2.4-1.1c-.8-.5-1.5-1-2.2-1.6s-1.3-1.3-1.8-2-1-1.5-1.4-2.3-.7-1.7-.9-2.5-.4-1.8-.4-2.7,0-1.8.1-2.7.3-1.8.6-2.6.7-1.7,1.1-2.4c.5-.8,1-1.5,1.6-2.2s1.3-1.3,2-1.8,1.5-1,2.3-1.4,1.5-.7,2.4-1h0Zm35.3,423.8C.8,438.1,83,225.7,83,225.7c-7.9-225.5,96.7-60.9,96.7-60.9,36.4-14.9,74.8-14.3,74.8-14.3,0,0,19.6-71.9,47-68.8s42.5,86.9,42.5,86.9c128.8,62.7,107.3,289.6-114.5,279.7h0Z"/>
    </g>
    <rect id="SVGID" class="cls-2" x=".4" y=".2" width="477" height="476.8"/>
  </g>
  <path class="cls-1" d="m343.2,340.7c-.7-.2-1.4-.2-2-.1s-1.3.3-1.9.6-1.1.8-1.5,1.3-.7,1.2-.9,1.8c-1.4,5.1-3.7,8.3-7,9.6-5.8,2.3-14.2-1-18.4-3.2,3-17.5-2.6-37.4-2.9-38.6-.1-.3-.2-.5-.3-.8,3.2-2.4,5.7-5.4,7.4-9,.2-.5.4-1,.5-1.5s.1-1,0-1.5c0-.5-.2-1-.4-1.5-.2-.5-.5-.9-.8-1.3s-.7-.8-1.1-1-.9-.5-1.4-.7-1-.2-1.5-.3-1,0-1.5.2l-18.9,4.8c-1,.3-1.9.8-2.6,1.6-.7.8-1.2,1.7-1.4,2.7s-.1,2.1.3,3,1,1.8,1.9,2.4c2.9,2.2,6.1,3.6,9.6,4.4,0,.5,0,1,.2,1.5,2.7,9.6,7.5,36.9-3.3,47-5.8,5.5-16.2,5.7-30.9.6-.7-.2-1.3-.3-2-.3s-1.4.2-2,.5-1.2.7-1.6,1.2c-.5.5-.8,1.1-1,1.8s-.3,1.3-.3,2,.2,1.4.5,2,.7,1.2,1.2,1.6c.5.5,1.1.8,1.8,1,7,2.6,14.2,4,21.7,4.2,1.8.1,3.6,0,5.4-.3s3.5-.7,5.2-1.3c1.7-.6,3.3-1.4,4.9-2.3,1.5-.9,3-2,4.3-3.2,2.6-2.5,4.6-5.4,6.1-8.7,5.3,2.6,10.9,4,16.8,4.2,2.9,0,5.7-.5,8.4-1.5,6.6-2.6,11-8.2,13.4-16.6.2-.7.2-1.3.1-2s-.3-1.3-.7-1.9c-.4-.6-.8-1.1-1.4-1.5-.8-.4-1.4-.7-2-.9h0Z"/>
  <path class="cls-1" d="m108.1,204l45.4-24.3s-54.8-106.5-45.4,24.3Z"/>
  <path class="cls-1" d="m335.4,250.7c-12.6,5.3-18.2,22.6-14,32.6s17.1,7.1,29.7,1.8c12.5-5.3,20-10.9,15.8-21-4.2-10.2-18.9-18.7-31.5-13.4h0Z"/>
  <path class="cls-1" d="m320.1,165.8s-18.9-101.7-38.7-7.7c0,.1,21-2.7,38.7,7.7Z"/>
  <path class="cls-1" d="m222.8,273.7c-18.9-2.9-37,9.3-38.7,20.9-1.8,11.5,15.4,16.2,34.4,19.1,19,2.9,32.7,2.9,34.4-8.6s-11.1-28.5-30.1-31.4h0Z"/>
</svg>