<svg xmlns="http://www.w3.org/2000/svg" xmlns:xlink="http://www.w3.org/1999/xlink" width="500" zoomAndPan="magnify" viewBox="0 0 375 374.999991" height="500" preserveAspectRatio="xMidYMid meet" version="1.0"><path fill="#b3ffae" d="M 341.964844 174.609375 L 341.855469 174.882812 C 341.816406 174.980469 341.777344 175.078125 341.734375 175.171875 L 341.6875 175.292969 C 341.5625 175.625 341.449219 175.953125 341.339844 176.28125 L 341.195312 176.707031 C 340.84375 177.714844 340.496094 178.722656 340.152344 179.730469 C 340.109375 179.855469 340.0625 179.976562 340.019531 180.097656 L 339.757812 180.824219 L 339.324219 180.472656 C 317.089844 162.546875 296.125 146.640625 275.257812 131.867188 C 275.140625 132.578125 274.800781 133.222656 274.285156 133.679688 C 273.550781 134.324219 272.515625 134.558594 271.375 134.335938 L 271.234375 134.28125 C 268.136719 132.261719 264.746094 132.246094 261.15625 132.226562 C 260.082031 132.222656 258.976562 132.21875 257.878906 132.15625 C 256.59375 132.71875 255.175781 132.429688 253.921875 132.175781 C 253.664062 132.121094 253.410156 132.070312 253.160156 132.027344 C 251.519531 132.0625 249.878906 131.160156 249.15625 129.8125 C 248.652344 128.875 248.667969 127.851562 249.183594 126.890625 C 246.832031 125.917969 244.171875 126.171875 241.589844 126.421875 C 241.199219 126.460938 240.8125 126.496094 240.425781 126.53125 C 240.390625 126.589844 240.351562 126.652344 240.3125 126.710938 C 240.359375 126.832031 240.402344 126.957031 240.4375 127.085938 C 240.453125 127.136719 240.464844 127.1875 240.476562 127.238281 C 241.992188 127.5625 243.15625 128.828125 243.355469 130.417969 C 243.550781 131.988281 242.75 133.324219 241.265625 133.90625 L 241.175781 133.929688 C 234.910156 134.8125 228.4375 134.539062 222.175781 134.273438 C 219.136719 134.144531 215.996094 134.03125 212.925781 134.011719 C 212.855469 134.011719 212.78125 134.011719 212.707031 134.011719 C 204.21875 134.011719 196.152344 136.066406 189.363281 139.957031 C 188.757812 140.335938 188.097656 140.691406 187.457031 141.039062 C 185.207031 142.253906 183.078125 143.40625 182.382812 145.847656 C 183.554688 146.019531 184.605469 146.8125 185.09375 147.929688 C 185.5625 148.996094 185.417969 150.128906 184.722656 151.015625 C 185.382812 152.328125 185.480469 153.414062 185.007812 154.246094 C 183.996094 156.035156 180.648438 156.179688 177.957031 156.292969 C 177.089844 156.328125 176.273438 156.363281 175.675781 156.453125 C 173.363281 156.667969 171.070312 157.1875 168.855469 157.691406 C 166.375 158.253906 163.816406 158.835938 161.242188 158.996094 C 158.929688 162.535156 154.328125 164.007812 149.878906 165.433594 C 147.246094 166.277344 144.753906 167.074219 142.734375 168.261719 C 142.925781 169.109375 142.730469 169.949219 142.171875 170.667969 C 141.921875 171.199219 141.496094 171.664062 140.933594 172.015625 C 140.289062 172.824219 139.769531 173.726562 139.253906 174.660156 C 137.425781 181.101562 136.175781 187.460938 135.546875 193.566406 C 137.714844 194.882812 137.230469 199.914062 136.800781 204.375 C 136.628906 206.152344 136.46875 207.835938 136.550781 208.824219 C 136.503906 209.285156 136.472656 209.71875 136.4375 210.175781 C 136.230469 212.980469 135.929688 217.246094 132.117188 217.011719 C 131.125 216.9375 130.234375 216.441406 129.628906 215.691406 C 129.480469 217.230469 129.015625 218.75 128.5625 220.230469 C 128.253906 221.253906 127.933594 222.308594 127.730469 223.328125 C 127.503906 224.058594 127.300781 224.761719 127.101562 225.464844 C 126.417969 227.855469 125.714844 230.328125 124.289062 232.449219 C 124.726562 238.101562 124.8125 247.449219 120.765625 248.753906 C 120.769531 249.527344 120.785156 250.296875 120.808594 251.070312 C 121.996094 251.113281 122.683594 251.652344 123.054688 252.125 C 124.015625 253.339844 123.929688 255.242188 123.523438 256.644531 C 123.582031 257.949219 123.707031 259.300781 123.824219 260.605469 C 124.128906 263.960938 124.445312 267.429688 123.765625 270.730469 C 124.71875 276.042969 125.960938 281.332031 127.050781 285.808594 L 127.242188 286.363281 C 128.085938 288.800781 129.460938 292.792969 127.257812 294.316406 C 131.867188 300.515625 136.65625 306.773438 141.5 312.925781 C 142.453125 312.085938 143.386719 311.742188 144.273438 311.914062 C 146.339844 312.3125 147.648438 315.34375 148.800781 318.019531 C 149.304688 319.1875 149.78125 320.292969 150.238281 320.964844 L 150.289062 321.066406 C 150.535156 321.816406 151.011719 322.652344 151.515625 323.535156 C 152.839844 325.855469 154.339844 328.484375 152.128906 330.589844 C 151.539062 331.054688 150.820312 331.28125 150.113281 331.28125 C 149.292969 331.28125 148.484375 330.976562 147.914062 330.378906 C 97.398438 270.902344 58.425781 205.570312 32.0625 136.183594 C 30.117188 129.671875 30.261719 125.792969 32.488281 124.304688 C 36.183594 121.832031 45.078125 126.382812 60.429688 138.605469 C 47.347656 116.296875 32.597656 90.429688 20.914062 63.523438 C 19.972656 61.011719 18.441406 57.609375 16.664062 53.671875 C 10.023438 38.9375 -0.015625 16.671875 6.960938 8.921875 C 10.070312 5.464844 16.269531 5.226562 25.386719 8.21875 C 43.53125 15.050781 60.171875 25.632812 76.265625 35.863281 C 81.417969 39.140625 86.75 42.527344 92.03125 45.730469 C 99.566406 50.527344 107.078125 55.335938 114.585938 60.144531 C 121.609375 64.644531 128.636719 69.144531 135.671875 73.625 C 126.214844 61.695312 118.378906 50.660156 111.75 39.949219 L 111.699219 39.824219 C 111.136719 37.15625 111.59375 35.277344 113.058594 34.242188 C 121.160156 28.496094 159.925781 51.929688 180.75 64.519531 C 186.980469 68.285156 191.480469 71.003906 193.09375 71.707031 C 227.765625 92.347656 272.988281 120.304688 315.675781 153.75 L 316.753906 154.601562 C 324.960938 161.074219 333.449219 167.769531 341.734375 174.425781 Z M 94.367188 29.421875 C 94.996094 29.613281 95.628906 29.707031 96.25 29.707031 C 97.996094 29.707031 99.648438 28.960938 100.890625 27.5625 C 102.671875 25.558594 103.121094 22.699219 102.03125 20.285156 C 100.242188 16.191406 95.023438 11.03125 90.105469 9.871094 C 87.625 9.285156 85.46875 9.722656 83.691406 11.167969 C 80.59375 12.035156 80.234375 14.195312 80.480469 15.859375 C 81.265625 21.167969 89.78125 29.511719 94.367188 29.421875 Z M 32.207031 116.246094 C 34.101562 112.316406 33.394531 106.8125 30.597656 103.71875 C 28.523438 101.425781 25.601562 100.804688 22.378906 101.96875 L 22.355469 101.976562 C 18.15625 103.796875 16.816406 108.46875 17.347656 112.289062 C 17.976562 116.773438 20.882812 120.003906 24.78125 120.519531 C 24.980469 120.53125 25.179688 120.535156 25.375 120.535156 C 28.457031 120.539062 30.867188 119.03125 32.207031 116.246094 Z M 32.207031 116.246094 " fill-opacity="1" fill-rule="nonzero"/><path fill="#bf9b8e" d="M 233.242188 150.214844 C 233.128906 151.410156 232.324219 152.539062 231.242188 153.023438 C 230.261719 153.464844 229.207031 153.332031 228.273438 152.652344 C 226.527344 151.332031 224.785156 150.007812 223.042969 148.6875 C 215.664062 143.085938 208.039062 137.296875 200.339844 131.875 C 200.34375 132.949219 199.960938 133.953125 199.257812 134.671875 C 198.484375 135.460938 196.957031 136.289062 194.066406 135.804688 C 191.890625 136.550781 190.425781 136.71875 189.246094 136.855469 C 187 137.109375 185.640625 137.265625 181.617188 141.039062 C 181 142.796875 179.742188 144.238281 178.523438 145.628906 C 177.871094 146.375 177.199219 147.144531 176.648438 147.941406 C 176.640625 150.714844 173.328125 155.851562 170.101562 157.125 C 168.679688 157.6875 167.398438 157.460938 166.382812 156.476562 C 164.203125 158.140625 161.765625 159.351562 159.40625 160.523438 C 158.972656 160.738281 158.542969 160.949219 158.113281 161.167969 C 156.890625 161.992188 155.667969 162.984375 154.378906 164.035156 C 151.109375 166.691406 147.734375 169.4375 143.539062 169.808594 C 143.265625 170.320312 143.011719 170.878906 142.75 171.460938 C 141.847656 173.460938 140.828125 175.71875 138.535156 176.464844 C 138.097656 178.609375 137.664062 180.914062 137.214844 183.496094 C 137.152344 183.863281 137.097656 184.238281 137.039062 184.609375 C 136.921875 185.363281 136.800781 186.140625 136.652344 186.90625 C 137.371094 187.675781 137.632812 188.820312 137.355469 190.015625 C 136.875 192.527344 136.480469 195.054688 136.101562 197.496094 C 135.269531 202.851562 134.484375 207.910156 132.796875 212.984375 C 132.824219 213.769531 132.550781 214.5 132 215.105469 C 131.453125 215.707031 130.667969 216.136719 129.816406 216.3125 C 134.59375 222.695312 138.996094 229.066406 137.605469 231.929688 C 137.15625 232.851562 136.167969 233.332031 134.667969 233.367188 L 134.605469 233.371094 L 134.542969 233.351562 C 132.300781 232.667969 131.246094 230.558594 130.230469 228.515625 C 129.597656 227.25 128.945312 225.9375 128.019531 225.027344 C 114.375 205.519531 104.648438 190.242188 96.433594 175.4375 C 95.128906 172.5625 93.386719 169.570312 91.539062 166.40625 C 87.558594 159.585938 83.441406 152.535156 83.214844 145.800781 L 83.210938 145.695312 L 83.261719 145.601562 C 84.242188 143.757812 85.589844 142.59375 87.273438 142.136719 C 91.421875 141.015625 96.847656 144.375 101.210938 147.070312 C 102 147.558594 102.765625 148.035156 103.484375 148.457031 C 93.613281 136.179688 84.71875 121.34375 75.605469 101.96875 C 75.351562 101.433594 75.066406 100.847656 74.753906 100.210938 C 71.78125 94.125 66.804688 83.941406 70.128906 79.207031 C 71.566406 77.164062 74.390625 76.351562 78.523438 76.796875 C 86.894531 78.960938 93.871094 84.273438 100.621094 89.414062 C 102.566406 90.894531 104.574219 92.425781 106.566406 93.835938 C 115.714844 100.679688 124.703125 108.007812 133.394531 115.097656 C 137.378906 118.347656 141.476562 121.691406 145.574219 124.96875 C 135.636719 110.246094 132.664062 101.335938 136.488281 97.765625 C 145.78125 89.082031 194.480469 118.683594 208.246094 129.671875 C 213.742188 133.730469 219.292969 137.929688 224.660156 141.988281 C 227.089844 143.824219 229.519531 145.660156 231.953125 147.492188 C 232.890625 148.15625 233.347656 149.125 233.242188 150.214844 Z M 233.242188 150.214844 " fill-opacity="1" fill-rule="nonzero"/><path fill="#494d56" d="M 361.984375 301.847656 C 361.058594 302.128906 359.960938 302.785156 358.984375 303.417969 C 359.082031 306.996094 359.03125 310.570312 358.992188 313.453125 C 358.953125 316.003906 358.925781 318.015625 359.015625 318.9375 C 358.964844 320 358.933594 321.023438 358.898438 322.0625 C 358.6875 328.480469 358.453125 335.753906 353.394531 340.839844 C 345.867188 349.292969 336.371094 352.292969 326.484375 354.855469 C 323.507812 355.867188 320.464844 357 317.519531 358.09375 C 306.328125 362.257812 294.753906 366.558594 282.183594 366.09375 C 276.050781 366.171875 269.835938 365.710938 263.820312 365.265625 C 262.636719 365.175781 261.449219 365.085938 260.265625 365.003906 C 257.085938 364.785156 254.464844 363.15625 251.925781 361.585938 C 251.066406 361.050781 250.179688 360.5 249.296875 360.027344 C 248.695312 359.582031 248.019531 359.226562 247.300781 358.847656 C 247.136719 358.761719 246.96875 358.671875 246.804688 358.582031 C 237.441406 363.957031 229.046875 366.511719 220.667969 366.515625 C 219.660156 366.515625 218.648438 366.476562 217.636719 366.402344 C 215.566406 366.289062 213.273438 366.226562 210.84375 366.160156 C 197.664062 365.800781 181.265625 365.351562 173.6875 356.847656 C 170.492188 353.839844 167.132812 350.832031 163.882812 347.917969 C 158.453125 343.050781 152.835938 338.019531 147.6875 332.730469 C 137.058594 321.945312 129.9375 311.640625 125.910156 301.234375 C 119.078125 281.195312 119.222656 260.078125 120.0625 236.53125 C 121.132812 223.988281 126.441406 213.789062 135.011719 207.765625 C 135.078125 204.347656 135.175781 200.941406 135.300781 197.640625 C 135.351562 196.820312 135.394531 196.003906 135.441406 195.183594 C 135.914062 186.664062 136.402344 177.851562 141.015625 170.226562 C 147.386719 160.171875 159.359375 156.027344 170.933594 152.019531 C 172.597656 151.445312 174.246094 150.871094 175.867188 150.289062 C 175.867188 149.15625 176.144531 147.894531 176.625 146.855469 C 180.613281 136.222656 192.761719 130.121094 202.796875 127.964844 C 210.644531 126.371094 218.695312 126.078125 226.480469 125.796875 C 228.421875 125.761719 230.363281 125.71875 232.304688 125.671875 C 243.132812 125.425781 254.332031 125.171875 265.164062 126.996094 C 279.367188 129.90625 292.535156 136.066406 305.269531 142.023438 C 307.003906 142.835938 308.734375 143.644531 310.464844 144.445312 C 312.945312 145.414062 315.660156 146.074219 318.285156 146.710938 C 323.21875 147.910156 328.320312 149.148438 332.308594 152.566406 C 341.726562 159.074219 343.011719 161.015625 344.765625 171.445312 C 345.035156 172.585938 345.960938 176.695312 346.40625 181.0625 L 347.425781 181.878906 C 348.882812 183.046875 350.507812 184.195312 352.074219 185.304688 C 357.820312 189.371094 363.757812 193.574219 364.855469 200.53125 C 369.105469 214.269531 370.570312 228.699219 371.988281 242.660156 C 372.324219 246.003906 372.675781 249.464844 373.0625 252.855469 C 373.902344 260.53125 373.929688 268.359375 373.957031 275.925781 C 373.960938 277.597656 373.964844 279.273438 373.980469 280.945312 C 374.960938 291.628906 370.8125 298.855469 361.984375 301.847656 Z M 361.984375 301.847656 " fill-opacity="1" fill-rule="nonzero"/><path fill="#0d0d0d" d="M 137.601562 229.945312 C 137.164062 229.945312 136.726562 229.863281 136.328125 229.699219 C 135.328125 229.285156 134.699219 228.425781 134.554688 227.277344 C 132.875 214.5625 132.949219 201.117188 134.773438 186.171875 C 135.117188 184.707031 135.371094 182.730469 135.664062 180.4375 C 136.601562 173.078125 137.773438 163.925781 142.761719 162.261719 C 144.355469 162.046875 145.664062 162.855469 146.175781 164.296875 C 146.691406 165.742188 146.191406 167.296875 144.964844 168.136719 C 140.570312 181.28125 140.09375 195.621094 139.671875 208.277344 C 139.519531 213.714844 140.09375 219.230469 140.648438 224.566406 L 140.839844 226.429688 C 141 227.570312 140.609375 228.566406 139.746094 229.234375 C 139.144531 229.699219 138.371094 229.945312 137.601562 229.945312 Z M 142.9375 248.957031 C 143.792969 248.289062 144.171875 247.292969 144.003906 246.152344 L 143.984375 246.066406 C 143.636719 245.15625 143.667969 243.921875 143.703125 242.730469 C 143.769531 240.414062 143.847656 237.785156 140.898438 237.152344 C 139.722656 237.121094 138.816406 237.476562 138.191406 238.183594 C 136.734375 239.828125 137.171875 242.964844 137.527344 245.484375 C 137.605469 246.039062 137.679688 246.554688 137.722656 247.011719 C 137.875 248.164062 138.515625 249.023438 139.527344 249.4375 C 139.925781 249.597656 140.355469 249.675781 140.792969 249.675781 C 141.5625 249.675781 142.339844 249.425781 142.9375 248.957031 Z M 256.351562 349.582031 L 256.386719 349.609375 C 260.125 352.003906 264.277344 353.8125 268.296875 355.558594 C 269.910156 356.261719 271.578125 356.988281 273.195312 357.742188 C 273.574219 357.90625 273.988281 357.988281 274.40625 357.988281 C 274.808594 357.988281 275.214844 357.910156 275.601562 357.757812 C 276.394531 357.4375 277.035156 356.816406 277.351562 356.054688 C 278.03125 354.460938 277.273438 352.597656 275.667969 351.90625 C 271.097656 349.945312 266.527344 347.847656 262.113281 345.691406 C 261.949219 345.59375 261.78125 345.488281 261.609375 345.378906 C 259.898438 344.320312 257.554688 342.867188 255.785156 345.144531 C 254.726562 346.511719 254.976562 348.460938 256.351562 349.582031 Z M 274.425781 341.613281 C 273.6875 341.792969 273.085938 342.269531 272.636719 343.023438 C 272.167969 343.699219 272.039062 344.410156 272.253906 345.132812 C 273.074219 347.871094 278.785156 350.164062 283.375 352.007812 C 285.316406 352.789062 286.992188 353.460938 287.835938 354.007812 C 288.273438 354.195312 288.707031 354.289062 289.128906 354.289062 C 289.734375 354.289062 290.308594 354.097656 290.820312 353.71875 C 291.78125 353 292.324219 351.722656 292.179688 350.535156 C 292.042969 349.453125 291.378906 348.613281 290.316406 348.171875 C 286.777344 346.617188 282.769531 344.851562 278.984375 342.976562 C 277.558594 342.097656 275.902344 341.25 274.425781 341.613281 Z M 322.863281 161.324219 L 322.816406 161.300781 C 321.902344 160.921875 320.339844 159.925781 318.523438 158.773438 C 313.859375 155.808594 308.058594 152.121094 304.941406 153.074219 C 304.152344 153.3125 303.578125 153.835938 303.230469 154.628906 C 302.878906 155.46875 302.867188 156.265625 303.199219 156.996094 C 303.824219 158.371094 305.53125 159.1875 306.804688 159.605469 C 311.3125 161.761719 315.648438 164.332031 319.664062 166.789062 C 320.1875 167.105469 320.730469 167.265625 321.269531 167.265625 C 321.742188 167.265625 322.210938 167.140625 322.65625 166.894531 C 323.699219 166.3125 324.402344 165.113281 324.410156 163.914062 C 324.417969 162.824219 323.867188 161.902344 322.863281 161.324219 Z M 290.292969 362.410156 C 289.308594 362.414062 288.324219 362.421875 287.335938 362.429688 C 279.449219 362.480469 271.292969 362.535156 263.566406 360.609375 C 259.699219 359.546875 254.746094 357.996094 250.480469 355.410156 C 251.035156 354.441406 251.066406 353.40625 250.558594 352.296875 C 250.128906 351.566406 249.390625 351.027344 248.535156 350.816406 C 247.714844 350.617188 246.886719 350.742188 246.183594 351.1875 C 229.632812 363.503906 215.414062 363.417969 197.152344 361.953125 C 195.679688 361.769531 194.15625 361.675781 192.683594 361.582031 C 188.15625 361.304688 183.472656 361.015625 179.78125 357.980469 C 167.46875 349.277344 157.742188 340.382812 150.050781 330.785156 C 149.902344 329.351562 148.875 328.175781 147.457031 327.835938 C 146.070312 327.503906 144.753906 328.0625 144.003906 329.316406 C 141.746094 333.539062 151.550781 342.742188 160.917969 351.035156 C 162.414062 352.359375 163.59375 353.402344 164.335938 354.125 C 179.886719 367.699219 184.398438 367.871094 201.179688 368.511719 C 202.910156 368.574219 204.777344 368.648438 206.800781 368.738281 C 221.460938 369.578125 232.988281 367.117188 242.078125 361.183594 C 242.757812 360.558594 243.910156 359.953125 245.136719 359.3125 C 246.710938 361.046875 249.230469 362.089844 251.46875 363.011719 C 252.433594 363.414062 253.351562 363.792969 254.179688 364.21875 C 261.714844 367.3125 270.621094 368.796875 281.492188 368.75 C 282.386719 368.605469 283.703125 368.699219 285.097656 368.800781 C 286.046875 368.867188 287.054688 368.941406 288.03125 368.941406 C 290.757812 368.941406 293.234375 368.375 293.46875 365.582031 C 293.46875 364.742188 293.113281 363.910156 292.492188 363.304688 C 291.886719 362.710938 291.109375 362.394531 290.292969 362.410156 Z M 147.96875 313.570312 C 148.089844 313.570312 148.21875 313.5625 148.34375 313.546875 C 149.542969 313.394531 150.65625 312.542969 151.117188 311.417969 C 151.53125 310.410156 151.359375 309.355469 150.640625 308.449219 L 150.601562 308.40625 C 149.765625 307.632812 148.960938 306.054688 148.109375 304.386719 C 146.433594 301.101562 144.53125 297.375 141.546875 298.621094 C 140.625 299.113281 140.050781 299.8125 139.84375 300.695312 C 139.265625 303.15625 141.699219 306.5625 143.652344 309.300781 C 144.457031 310.433594 145.222656 311.5 145.621094 312.320312 C 146.222656 313.132812 147.042969 313.570312 147.96875 313.570312 Z M 156.980469 313.691406 C 157.558594 314.691406 158.46875 315.242188 159.550781 315.242188 C 159.558594 315.242188 159.5625 315.242188 159.566406 315.242188 C 160.757812 315.234375 161.953125 314.535156 162.539062 313.496094 C 163.074219 312.550781 163.042969 311.480469 162.453125 310.492188 L 162.40625 310.429688 C 161.734375 309.683594 161.207031 308.480469 160.648438 307.207031 C 159.628906 304.871094 158.570312 302.457031 156.359375 302.40625 L 156.320312 302.40625 L 156.277344 302.414062 C 154.824219 302.683594 153.875 303.300781 153.457031 304.246094 C 152.519531 306.351562 154.429688 309.464844 155.964844 311.96875 C 156.351562 312.601562 156.71875 313.199219 156.980469 313.691406 Z M 267.027344 257.527344 C 268.214844 258.148438 269.402344 258.457031 270.554688 258.457031 C 271.914062 258.457031 273.214844 258.027344 274.382812 257.167969 C 276.953125 255.28125 278.398438 251.582031 277.820312 248.375 C 277.320312 245.609375 275.472656 243.644531 272.660156 242.851562 C 270.292969 241.828125 267.925781 242.058594 265.996094 243.5 C 263.648438 245.257812 262.277344 248.644531 262.660156 251.734375 C 262.996094 254.429688 264.546875 256.484375 267.027344 257.527344 Z M 311.785156 232.804688 C 310.789062 231.800781 309.550781 231.164062 308.050781 230.90625 C 307.675781 230.898438 307.292969 230.921875 306.890625 230.984375 C 304.671875 230.636719 302.242188 232.359375 300.980469 235.136719 C 299.445312 237.507812 298.757812 241.269531 301.890625 244.070312 C 302.582031 244.699219 303.335938 245.1875 304.082031 245.503906 L 304.175781 245.554688 C 304.320312 245.640625 304.464844 245.726562 304.632812 245.8125 C 305.78125 246.339844 306.871094 246.574219 307.882812 246.574219 C 310.816406 246.574219 313.101562 244.609375 314.273438 242.148438 C 315.824219 238.894531 315.460938 234.65625 311.785156 232.804688 Z M 311.785156 232.804688 " fill-opacity="1" fill-rule="nonzero"/><path fill="#bf9b8e" d="M 308.167969 289.996094 C 306.75 291.570312 304.972656 292.367188 302.886719 292.371094 C 302.886719 292.371094 302.886719 292.371094 302.882812 292.371094 C 301.5625 292.371094 300.097656 292.042969 298.523438 291.398438 C 288.707031 285.128906 283.730469 273.0625 280.835938 264.527344 L 280.71875 264.179688 L 281.054688 264.035156 C 281.359375 263.90625 281.667969 263.777344 281.972656 263.648438 L 283.628906 262.953125 C 284.527344 262.582031 285.429688 262.222656 286.335938 261.871094 L 286.789062 261.691406 L 286.789062 261.707031 C 287.421875 261.460938 288.050781 261.214844 288.683594 260.976562 C 289.3125 260.738281 289.898438 260.519531 290.484375 260.300781 L 290.542969 260.273438 L 304.359375 255.175781 C 305.675781 254.691406 306.996094 254.222656 308.320312 253.757812 L 308.554688 253.675781 L 308.558594 253.679688 L 309.320312 253.414062 L 309.464844 253.753906 C 309.511719 253.871094 309.550781 253.988281 309.585938 254.105469 C 309.640625 254.34375 309.671875 254.566406 309.675781 254.800781 C 310.738281 256.34375 311.039062 258.882812 311.304688 261.125 C 311.46875 262.5 311.625 263.800781 311.925781 264.652344 L 311.949219 264.742188 C 312.40625 269.179688 313.484375 284.105469 308.167969 289.996094 Z M 308.167969 289.996094 " fill-opacity="1" fill-rule="nonzero"/></svg>