<svg xmlns="http://www.w3.org/2000/svg" xmlns:xlink="http://www.w3.org/1999/xlink" width="500" zoomAndPan="magnify" viewBox="0 0 375 374.999991" height="500" preserveAspectRatio="xMidYMid meet" version="1.0"><defs><clipPath id="f151cc3ea2"><path d="M 72 97 L 275 97 L 275 301.941406 L 72 301.941406 Z M 72 97 " clip-rule="nonzero"/></clipPath><clipPath id="32bd365920"><path d="M 230 73.191406 L 247 73.191406 L 247 89 L 230 89 Z M 230 73.191406 " clip-rule="nonzero"/></clipPath></defs><path fill="#f2f2f2" d="M 19.980469 238.28125 C 29.03125 235.964844 50.167969 242.207031 52.503906 234.730469 C 58.5625 215.328125 76.492188 209.476562 85.871094 219.679688 C 89.558594 223.695312 91.386719 231.332031 96.988281 232.542969 C 105.613281 234.410156 114.136719 225.574219 123.085938 230.191406 C 129.226562 233.359375 125.160156 242.144531 130.652344 245.515625 C 137.5625 249.757812 157.984375 242.519531 159.03125 257 C 159.875 268.589844 139.261719 271.210938 129.882812 269.921875 C 125.902344 269.375 121.027344 266.28125 117.105469 266.878906 C 110.191406 267.925781 107.453125 276.308594 99.285156 276.308594 C 89.925781 276.308594 85.210938 265.6875 75.066406 267.917969 C 62.789062 270.617188 58.515625 281.691406 42.933594 277.375 C 36.871094 275.695312 34.558594 268.96875 29.488281 265.8125 C 23.527344 262.101562 11.523438 260.441406 10.476562 252.875 C 9.535156 246.0625 12.90625 240.097656 19.980469 238.28125 Z M 19.980469 238.28125 " fill-opacity="1" fill-rule="evenodd"/><g clip-path="url(#f151cc3ea2)"><path fill="#9c9c9c" d="M 190.878906 97.15625 C 211.089844 113.273438 224.058594 138.125 224.058594 165.984375 C 224.058594 214.515625 184.71875 253.917969 136.265625 253.917969 C 111.289062 253.917969 88.738281 243.449219 72.746094 226.660156 C 84.949219 270.019531 124.765625 301.84375 171.945312 301.84375 C 228.824219 301.84375 275 255.59375 275 198.628906 C 275 148.140625 238.726562 106.070312 190.878906 97.15625 Z M 190.878906 97.15625 " fill-opacity="1" fill-rule="evenodd"/></g><path fill="#494d56" d="M 155.84375 102.484375 C 155.707031 102.265625 155.46875 102.132812 155.214844 102.132812 C 154.957031 102.132812 154.71875 102.265625 154.585938 102.484375 L 149.914062 110.136719 L 141.203125 112.222656 C 140.957031 112.285156 140.753906 112.46875 140.675781 112.714844 C 140.597656 112.957031 140.648438 113.222656 140.816406 113.417969 L 146.636719 120.234375 L 145.929688 129.175781 C 145.90625 129.433594 146.023438 129.679688 146.230469 129.832031 C 146.4375 129.980469 146.707031 130.011719 146.945312 129.914062 L 155.214844 126.476562 L 163.484375 129.914062 C 163.722656 130.011719 163.992188 129.980469 164.199219 129.832031 C 164.40625 129.679688 164.519531 129.433594 164.5 129.175781 L 163.792969 120.234375 L 169.613281 113.417969 C 169.777344 113.222656 169.832031 112.957031 169.753906 112.714844 C 169.671875 112.46875 169.472656 112.285156 169.222656 112.222656 L 160.515625 110.136719 Z M 155.84375 102.484375 " fill-opacity="1" fill-rule="evenodd"/><path fill="#494d56" d="M 118.105469 163.3125 C 118.035156 163.195312 117.90625 163.125 117.765625 163.125 C 117.628906 163.125 117.5 163.195312 117.429688 163.3125 L 114.90625 167.445312 L 110.203125 168.570312 C 110.070312 168.601562 109.960938 168.703125 109.917969 168.835938 C 109.875 168.96875 109.902344 169.113281 109.992188 169.214844 L 113.136719 172.894531 L 112.753906 177.722656 C 112.742188 177.863281 112.804688 177.996094 112.917969 178.078125 C 113.027344 178.15625 113.175781 178.175781 113.300781 178.121094 L 117.765625 176.265625 L 122.234375 178.121094 C 122.359375 178.175781 122.507812 178.15625 122.617188 178.078125 C 122.730469 177.996094 122.792969 177.863281 122.78125 177.722656 L 122.398438 172.894531 L 125.539062 169.214844 C 125.628906 169.113281 125.660156 168.96875 125.617188 168.835938 C 125.574219 168.703125 125.464844 168.601562 125.332031 168.570312 L 120.628906 167.445312 Z M 118.105469 163.3125 " fill-opacity="1" fill-rule="evenodd"/><path fill="#494d56" d="M 90.78125 115.871094 L 94.109375 121.320312 C 94.109375 121.320312 100.3125 122.804688 100.3125 122.804688 C 100.785156 122.917969 101.167969 123.273438 101.320312 123.742188 C 101.472656 124.207031 101.371094 124.71875 101.050781 125.089844 C 101.050781 125.089844 96.90625 129.945312 96.90625 129.945312 C 96.90625 129.945312 97.410156 136.3125 97.410156 136.3125 C 97.449219 136.800781 97.234375 137.273438 96.835938 137.5625 C 96.441406 137.851562 95.921875 137.914062 95.46875 137.726562 C 95.46875 137.726562 89.582031 135.277344 89.582031 135.277344 C 89.582031 135.277344 83.691406 137.726562 83.691406 137.726562 C 83.238281 137.914062 82.722656 137.851562 82.324219 137.5625 C 81.929688 137.273438 81.710938 136.800781 81.75 136.3125 C 81.75 136.3125 82.253906 129.945312 82.253906 129.945312 C 82.253906 129.945312 78.109375 125.089844 78.109375 125.089844 C 77.792969 124.71875 77.691406 124.207031 77.839844 123.742188 C 77.992188 123.273438 78.375 122.917969 78.851562 122.804688 C 78.851562 122.804688 85.050781 121.320312 85.050781 121.320312 C 85.050781 121.320312 88.382812 115.871094 88.382812 115.871094 C 88.636719 115.453125 89.089844 115.199219 89.582031 115.199219 C 90.070312 115.199219 90.523438 115.453125 90.78125 115.871094 Z M 89.582031 117.183594 L 86.324219 122.515625 C 86.207031 122.707031 86.015625 122.847656 85.792969 122.898438 L 79.726562 124.355469 L 83.78125 129.105469 C 83.929688 129.277344 84.003906 129.5 83.984375 129.726562 L 83.492188 135.957031 L 89.253906 133.5625 C 89.464844 133.472656 89.699219 133.472656 89.90625 133.5625 L 95.671875 135.957031 L 95.175781 129.726562 C 95.160156 129.5 95.234375 129.277344 95.378906 129.105469 L 99.433594 124.355469 L 93.367188 122.898438 C 93.148438 122.847656 92.957031 122.707031 92.835938 122.515625 Z M 89.582031 117.183594 " fill-opacity="1" fill-rule="evenodd"/><g clip-path="url(#32bd365920)"><path fill="#494d56" d="M 239.664062 73.859375 L 241.773438 77.308594 C 241.773438 77.308594 245.703125 78.253906 245.703125 78.253906 C 246.113281 78.351562 246.445312 78.65625 246.574219 79.058594 C 246.707031 79.460938 246.617188 79.902344 246.34375 80.226562 C 246.34375 80.226562 243.714844 83.300781 243.714844 83.300781 C 243.714844 83.300781 244.035156 87.335938 244.035156 87.335938 C 244.070312 87.757812 243.882812 88.167969 243.539062 88.417969 C 243.195312 88.664062 242.75 88.71875 242.359375 88.554688 C 242.359375 88.554688 238.628906 87.003906 238.628906 87.003906 C 238.628906 87.003906 234.894531 88.554688 234.894531 88.554688 C 234.503906 88.71875 234.058594 88.664062 233.714844 88.417969 C 233.375 88.167969 233.183594 87.757812 233.21875 87.335938 C 233.21875 87.335938 233.539062 83.300781 233.539062 83.300781 C 233.539062 83.300781 230.910156 80.226562 230.910156 80.226562 C 230.636719 79.902344 230.550781 79.460938 230.679688 79.058594 C 230.808594 78.65625 231.140625 78.351562 231.550781 78.253906 C 231.550781 78.253906 235.480469 77.308594 235.480469 77.308594 C 235.480469 77.308594 237.589844 73.859375 237.589844 73.859375 C 237.8125 73.496094 238.203125 73.277344 238.628906 73.277344 C 239.050781 73.277344 239.441406 73.496094 239.664062 73.859375 Z M 238.628906 75.4375 L 236.753906 78.503906 C 236.636719 78.699219 236.445312 78.835938 236.222656 78.890625 L 232.734375 79.726562 L 235.066406 82.460938 C 235.214844 82.632812 235.285156 82.855469 235.269531 83.082031 L 234.984375 86.667969 L 238.300781 85.289062 C 238.507812 85.203125 238.746094 85.203125 238.953125 85.289062 L 242.269531 86.667969 L 241.984375 83.082031 C 241.96875 82.855469 242.042969 82.632812 242.1875 82.460938 L 244.523438 79.726562 L 241.03125 78.890625 C 240.808594 78.835938 240.621094 78.699219 240.5 78.503906 Z M 238.628906 75.4375 " fill-opacity="1" fill-rule="evenodd"/></g><path fill="#f2f2f2" d="M 225.902344 211.625 C 234.953125 209.304688 256.089844 215.546875 258.425781 208.070312 C 264.484375 188.667969 282.414062 182.816406 291.792969 193.019531 C 295.484375 197.035156 297.3125 204.671875 302.910156 205.882812 C 311.535156 207.75 320.058594 198.914062 329.011719 203.53125 C 335.148438 206.699219 331.082031 215.484375 336.574219 218.855469 C 343.488281 223.097656 363.90625 215.859375 364.957031 230.339844 C 365.796875 241.933594 345.183594 244.550781 335.808594 243.261719 C 331.824219 242.714844 326.953125 239.625 323.027344 240.21875 C 316.113281 241.269531 313.375 249.648438 305.210938 249.648438 C 295.847656 249.648438 291.132812 239.027344 280.988281 241.257812 C 268.714844 243.957031 264.4375 255.03125 248.855469 250.714844 C 242.796875 249.035156 240.480469 242.308594 235.410156 239.152344 C 229.449219 235.441406 217.445312 233.78125 216.398438 226.214844 C 215.457031 219.402344 218.828125 213.4375 225.902344 211.625 Z M 225.902344 211.625 " fill-opacity="1" fill-rule="evenodd"/></svg>