<svg xmlns="http://www.w3.org/2000/svg" xmlns:xlink="http://www.w3.org/1999/xlink" width="500" zoomAndPan="magnify" viewBox="0 0 375 374.999991" height="500" preserveAspectRatio="xMidYMid meet" version="1.0"><defs><clipPath id="ef1456b6e7"><path d="M 47 63 L 342 63 L 342 317 L 47 317 Z M 47 63 " clip-rule="nonzero"/></clipPath><clipPath id="220a6dcf79"><path d="M 91.515625 10.925781 L 370.871094 104.941406 L 283.554688 364.394531 L 4.199219 270.378906 Z M 91.515625 10.925781 " clip-rule="nonzero"/></clipPath><clipPath id="e19c602812"><path d="M 91.515625 10.925781 L 370.871094 104.941406 L 283.554688 364.394531 L 4.199219 270.378906 Z M 91.515625 10.925781 " clip-rule="nonzero"/></clipPath></defs><g clip-path="url(#ef1456b6e7)"><g clip-path="url(#220a6dcf79)"><g clip-path="url(#e19c602812)"><path fill="#0d0d0d" d="M 186.03125 100.929688 C 193.949219 127.167969 183.199219 153.617188 162.074219 160.011719 C 140.945312 166.40625 117.328125 150.304688 109.410156 124.070312 C 101.492188 97.835938 112.242188 71.382812 133.367188 64.988281 C 154.496094 58.59375 178.113281 74.695312 186.03125 100.929688 Z M 262.429688 69.183594 C 241.746094 61.585938 217.347656 76.179688 207.878906 101.851562 C 198.414062 127.523438 207.550781 154.484375 228.214844 162.140625 C 248.878906 169.796875 273.296875 155.144531 282.765625 129.472656 C 292.230469 103.800781 283.09375 76.839844 262.429688 69.183594 Z M 63.25 134.082031 C 47.039062 143.085938 42.921875 166.671875 54.101562 186.804688 C 65.226562 206.921875 87.394531 215.972656 103.664062 206.988281 C 119.933594 198.003906 123.992188 174.398438 112.867188 154.28125 C 101.746094 134.167969 79.5 125.152344 63.25 134.082031 Z M 336 158.601562 C 325.378906 143.433594 301.46875 141.820312 282.648438 154.980469 C 263.808594 168.195312 257.15625 191.183594 267.78125 206.351562 C 278.402344 221.523438 302.3125 223.132812 321.132812 209.976562 C 339.949219 196.816406 346.605469 173.828125 336 158.601562 Z M 102.375 248.664062 C 102.375 248.664062 81.496094 292.152344 129.230469 310.574219 C 164.554688 324.246094 163.503906 287.074219 199.5625 296.851562 C 215.144531 301.074219 224.027344 317.25 245.214844 316.164062 C 268.75 314.914062 290.015625 287.667969 281.695312 256.773438 C 272.972656 224.410156 236.558594 179.921875 191.601562 177.46875 C 153.171875 175.300781 119.648438 196.570312 102.375 248.664062 Z M 102.375 248.664062 " fill-opacity="1" fill-rule="nonzero"/></g></g></g></svg>