<svg xmlns="http://www.w3.org/2000/svg" xmlns:xlink="http://www.w3.org/1999/xlink" width="500" zoomAndPan="magnify" viewBox="0 0 375 374.999991" height="500" preserveAspectRatio="xMidYMid meet" version="1.0"><defs><clipPath id="a325ad512b"><path d="M 18.007812 14.8125 L 357.007812 14.8125 L 357.007812 354 L 18.007812 354 Z M 18.007812 14.8125 " clip-rule="nonzero"/></clipPath><clipPath id="5031823230"><path d="M 18.007812 43 L 300 43 L 300 254 L 18.007812 254 Z M 18.007812 43 " clip-rule="nonzero"/></clipPath><clipPath id="155eb18a2d"><path d="M 128 169 L 357.007812 169 L 357.007812 354 L 128 354 Z M 128 169 " clip-rule="nonzero"/></clipPath></defs><g clip-path="url(#a325ad512b)"><path fill="#f2f2f2" d="M 357.007812 184.15625 L 355.457031 207.132812 C 348.125 253.417969 326.667969 290.4375 291.082031 318.1875 C 255.253906 345.917969 213.0625 357.160156 164.507812 351.921875 C 118.167969 344.59375 81.109375 323.160156 53.328125 287.617188 C 44.425781 276.128906 37.09375 263.609375 31.328125 250.058594 L 24.0625 229.167969 C 20.074219 214.789062 18.054688 199.785156 18.007812 184.15625 C 19.222656 136.195312 35.769531 96.289062 67.65625 64.4375 C 99.539062 32.589844 139.492188 16.058594 187.507812 14.847656 C 235.523438 16.058594 275.476562 32.589844 307.359375 64.4375 C 339.246094 96.289062 355.792969 136.195312 357.007812 184.15625 " fill-opacity="1" fill-rule="nonzero"/></g><g clip-path="url(#5031823230)"><path fill="#bf9b8e" d="M 274.582031 43.582031 C 272.210938 43.582031 269.621094 43.898438 266.808594 44.527344 C 248.429688 50.121094 236.851562 53.230469 232.078125 53.851562 C 231.242188 54.039062 230.179688 54.132812 228.886719 54.132812 C 226.878906 54.132812 224.316406 53.90625 221.195312 53.457031 C 215.445312 52.589844 206.953125 50.847656 195.71875 48.234375 L 188.738281 47.785156 C 188.183594 47.769531 187.632812 47.761719 187.085938 47.761719 C 179.085938 47.761719 171.558594 49.351562 164.503906 52.527344 C 154.816406 56.003906 144.714844 62.4375 134.199219 71.835938 C 114.648438 94.789062 103.726562 106.972656 101.4375 108.382812 C 77.480469 118.507812 56.441406 130.253906 38.324219 143.621094 C 31.238281 149.933594 24.957031 156.710938 19.484375 163.953125 L 19.484375 163.957031 C 18.675781 170.523438 18.183594 177.257812 18.007812 184.15625 C 18.054688 199.785156 20.074219 214.789062 24.0625 229.167969 L 31.328125 250.058594 C 31.890625 251.382812 32.46875 252.691406 33.058594 253.992188 C 35.035156 252.859375 37.082031 251.609375 39.203125 250.246094 C 47.097656 245.03125 60.3125 232.984375 78.847656 214.109375 C 82.09375 211.320312 86.675781 208.457031 92.589844 205.515625 C 96 203.839844 101.035156 202.046875 107.691406 200.132812 C 131.21875 196.34375 146.769531 192.941406 154.335938 189.9375 C 159.398438 188.050781 163.921875 185.660156 167.910156 182.761719 L 175.953125 176.929688 L 191.128906 164.675781 C 194.503906 162.574219 197.429688 161.039062 199.894531 160.066406 C 201.980469 157.949219 221.496094 153.820312 258.449219 147.679688 C 266.332031 145.648438 274.140625 141.335938 281.875 134.742188 C 288.617188 128.398438 291.828125 123.917969 291.503906 121.292969 L 288.6875 89.9375 C 296.363281 72.949219 299.757812 63.171875 298.867188 60.601562 C 298.089844 58.113281 297.105469 55.894531 295.914062 53.953125 C 291.972656 50.648438 287.917969 47.554688 283.753906 44.667969 C 281.25 43.945312 278.476562 43.582031 275.433594 43.582031 C 275.351562 43.582031 275.269531 43.585938 275.191406 43.585938 L 274.929688 43.585938 C 274.8125 43.582031 274.699219 43.582031 274.582031 43.582031 Z M 274.582031 43.582031 " fill-opacity="1" fill-rule="nonzero"/></g><g clip-path="url(#155eb18a2d)"><path fill="#bf9b8e" d="M 341.390625 169.265625 L 338.195312 169.347656 C 321.953125 170.839844 307.640625 176.355469 295.253906 185.890625 C 292.546875 187.59375 287.375 192.433594 279.746094 200.410156 C 276.765625 203.21875 262.222656 221.8125 236.121094 256.191406 C 233.5625 259.5 229.5 263.617188 223.933594 268.539062 C 220.890625 271.328125 216.761719 274.148438 211.554688 276.996094 C 189.890625 285.742188 174.980469 292.570312 166.832031 297.484375 C 156.074219 304.175781 147.902344 311.359375 142.3125 319.027344 C 136.449219 326.101562 131.953125 334.039062 128.835938 342.839844 C 140.042969 346.90625 151.933594 349.933594 164.507812 351.921875 C 172.226562 352.753906 179.785156 353.167969 187.179688 353.167969 C 226.316406 353.167969 260.949219 341.507812 291.082031 318.1875 C 326.667969 290.4375 348.125 253.417969 355.457031 207.132812 L 357.003906 184.15625 C 356.894531 179.726562 356.652344 175.363281 356.277344 171.066406 C 354.511719 170.535156 353.246094 170.269531 352.480469 170.269531 C 352.4375 170.269531 352.390625 170.269531 352.351562 170.273438 C 348.734375 169.601562 345.082031 169.265625 341.390625 169.265625 Z M 341.390625 169.265625 " fill-opacity="1" fill-rule="nonzero"/></g><path fill="#bf9b8e" d="M 222.519531 186.203125 L 220.945312 186.246094 C 212.148438 187.167969 204.726562 189.011719 198.679688 191.78125 C 197.449219 192.429688 196.292969 193.148438 195.222656 193.941406 C 189.398438 199.160156 182 205.269531 173.03125 212.273438 C 168.984375 215.355469 164.429688 218.429688 159.367188 221.496094 C 150.472656 225.980469 137.140625 231.929688 119.371094 239.34375 L 113.273438 242.722656 C 107.261719 245.664062 101.230469 251.234375 95.179688 259.429688 C 90.835938 262 86.070312 265.542969 80.882812 270.046875 C 71.773438 277.792969 67.371094 285.785156 67.667969 294.023438 C 68.828125 300.933594 70.152344 305.117188 71.636719 306.5625 C 75.601562 310.105469 79.375 311.710938 82.960938 311.371094 C 87.488281 311.300781 92.308594 309.828125 97.425781 306.949219 L 126.722656 286.265625 C 128.839844 284.558594 140.476562 278.574219 161.625 268.308594 C 164.203125 266.875 166.640625 265.171875 168.9375 263.199219 L 188.851562 238.363281 L 217.359375 212.792969 C 221.660156 208.585938 224.941406 204.917969 227.199219 201.789062 C 230.664062 196.941406 231.859375 192.910156 230.785156 189.691406 C 229.292969 187.691406 228.058594 186.714844 227.085938 186.761719 C 225.84375 186.390625 224.320312 186.203125 222.519531 186.203125 Z M 222.519531 186.203125 " fill-opacity="1" fill-rule="nonzero"/><path fill="#bf9b8e" d="M 335.417969 101.222656 C 332.707031 104.71875 325.71875 111.941406 314.449219 122.886719 C 309.851562 128.15625 307.097656 131.777344 306.183594 133.75 C 303.757812 138.296875 303.992188 141.679688 306.886719 143.890625 C 307.511719 143.957031 308.125 143.988281 308.734375 143.988281 C 312.339844 143.988281 315.636719 142.824219 318.625 140.492188 C 322.710938 137.140625 325.851562 134.066406 328.039062 131.269531 C 332.613281 124.378906 336.984375 118.109375 341.144531 112.457031 L 341.148438 112.457031 L 341.144531 112.457031 L 341.148438 112.457031 C 339.382812 108.636719 337.472656 104.890625 335.417969 101.222656 Z M 335.417969 101.222656 " fill-opacity="1" fill-rule="nonzero"/><path fill="#bf9b8e" d="M 153.59375 30.339844 L 152.582031 30.367188 C 149.71875 30.503906 145.488281 31.203125 139.894531 32.460938 L 114.011719 45.691406 C 100.8125 51.113281 93.46875 54.359375 91.976562 55.429688 C 86.28125 59.832031 82.820312 62.902344 81.589844 64.640625 C 79.472656 67.066406 77.820312 69.523438 76.628906 72.019531 C 74.304688 74.269531 72.523438 76.578125 71.289062 78.949219 C 69.765625 81.757812 69.324219 84.253906 69.960938 86.429688 C 70.21875 87.058594 70.628906 87.585938 71.191406 88.011719 C 71.414062 88.375 72.464844 88.769531 74.339844 89.191406 C 77.503906 89.027344 84.113281 86.796875 94.160156 82.507812 C 99.277344 80.21875 103.652344 77.605469 107.285156 74.664062 C 108.484375 73.714844 112.304688 68.984375 118.742188 60.46875 C 120 59.09375 121.675781 57.539062 123.761719 55.800781 C 126.832031 53.191406 129.074219 51.433594 130.492188 50.53125 C 134.335938 47.917969 141.484375 43.429688 151.9375 37.074219 C 153.761719 35.824219 154.964844 34.90625 155.539062 34.3125 C 156.691406 33.136719 157.199219 32.21875 157.070312 31.566406 C 157.007812 31.238281 156.78125 30.976562 156.398438 30.78125 C 155.160156 30.40625 154.222656 30.257812 153.59375 30.339844 Z M 153.59375 30.339844 " fill-opacity="1" fill-rule="nonzero"/></svg>