<svg xmlns="http://www.w3.org/2000/svg" xmlns:xlink="http://www.w3.org/1999/xlink" width="1000" zoomAndPan="magnify" viewBox="0 0 750 749.999995" height="1000" preserveAspectRatio="xMidYMid meet" version="1.0"><defs><clipPath id="d21c2df1d2"><path d="M 27.355469 27.355469 L 722.605469 27.355469 L 722.605469 722.605469 L 27.355469 722.605469 Z M 27.355469 27.355469 " clip-rule="nonzero"/></clipPath></defs><g clip-path="url(#d21c2df1d2)"><path fill="#bfbdbc" d="M 722.601562 374.984375 C 722.601562 566.96875 566.96875 722.601562 374.984375 722.601562 C 183.003906 722.601562 27.371094 566.96875 27.371094 374.984375 C 27.371094 183 183.003906 27.367188 374.984375 27.367188 C 566.96875 27.367188 722.601562 183 722.601562 374.984375 " fill-opacity="1" fill-rule="nonzero"/></g><path fill="#ffffff" d="M 498.46875 265.097656 C 498.46875 333.539062 442.980469 389.019531 374.542969 389.019531 C 306.097656 389.019531 250.613281 333.539062 250.613281 265.097656 C 250.613281 196.652344 306.097656 141.167969 374.542969 141.167969 C 442.980469 141.167969 498.46875 196.652344 498.46875 265.097656 " fill-opacity="1" fill-rule="nonzero"/><path fill="#ffffff" d="M 374.539062 706.101562 C 462.234375 706.101562 542.332031 673.613281 603.488281 620.039062 C 584.503906 496.074219 528.605469 410.050781 374.539062 410.050781 C 224.804688 410.050781 166.84375 496.441406 146.484375 620.828125 C 207.527344 673.9375 287.273438 706.101562 374.539062 706.101562 " fill-opacity="1" fill-rule="nonzero"/></svg>