<svg xmlns="http://www.w3.org/2000/svg" xmlns:xlink="http://www.w3.org/1999/xlink" width="500" zoomAndPan="magnify" viewBox="0 0 375 374.999991" height="500" preserveAspectRatio="xMidYMid meet" version="1.0"><path fill="#ffffff" d="M 84.722656 212.445312 C 84.929688 212.445312 85.339844 212.445312 85.542969 212.445312 C 87.800781 212.445312 92.109375 211.621094 94.160156 208.335938 C 95.390625 209.160156 97.441406 210.390625 99.492188 210.390625 C 100.519531 210.390625 101.546875 210.183594 102.570312 209.363281 C 105.441406 207.105469 104.828125 203.203125 104.210938 201.148438 C 105.851562 200.53125 107.085938 199.503906 107.699219 198.066406 C 109.136719 195.601562 108.316406 193.140625 108.316406 193.140625 C 108.109375 192.316406 107.289062 191.90625 106.675781 192.113281 C 105.851562 192.316406 105.441406 193.140625 105.648438 193.753906 C 105.648438 193.753906 106.058594 195.191406 105.238281 196.628906 C 104.621094 197.65625 103.597656 198.480469 101.957031 198.890625 C 96.828125 200.328125 93.75 196.835938 93.75 196.628906 C 93.339844 196.015625 92.519531 196.015625 91.902344 196.425781 C 91.289062 196.835938 91.082031 197.65625 91.492188 198.273438 C 91.492188 198.273438 93.542969 201.558594 92.3125 205.667969 C 90.878906 209.980469 85.132812 209.570312 84.929688 209.570312 C 84.109375 209.570312 83.492188 209.980469 83.289062 210.800781 C 83.492188 211.621094 84.109375 212.238281 84.722656 212.445312 Z M 95.597656 201.148438 C 97.238281 201.765625 99.289062 202.175781 101.546875 201.765625 C 101.957031 203.203125 102.570312 205.871094 100.929688 206.898438 C 99.492188 208.132812 96.621094 206.488281 95.390625 205.460938 C 95.800781 204.023438 95.800781 202.585938 95.597656 201.148438 Z M 123.085938 183.074219 C 122.46875 182.460938 122.46875 181.636719 123.085938 181.023438 L 129.445312 174.65625 C 130.058594 174.039062 130.878906 174.039062 131.496094 174.65625 C 132.113281 175.269531 132.113281 176.09375 131.496094 176.707031 L 125.136719 183.074219 C 124.929688 183.28125 124.519531 183.484375 124.109375 183.484375 C 123.699219 183.484375 123.496094 183.484375 123.085938 183.074219 Z M 67.902344 224.355469 C 68.105469 225.175781 67.695312 225.792969 67.082031 226.203125 L 56.003906 229.902344 C 55.796875 229.902344 55.796875 229.902344 55.59375 229.902344 C 54.976562 229.902344 54.363281 229.492188 54.363281 228.875 C 54.15625 228.054688 54.566406 227.4375 55.183594 227.027344 L 66.261719 223.328125 C 66.875 223.328125 67.695312 223.738281 67.902344 224.355469 Z M 374.589844 201.558594 C 374.179688 198.066406 371.511719 194.578125 366.792969 191.496094 C 349.5625 180.199219 309.355469 175.886719 285.558594 182.664062 C 261.351562 189.648438 251.09375 194.578125 247.605469 196.628906 C 243.710938 188.210938 237.554688 181.226562 225.042969 177.734375 C 208.425781 172.804688 198.988281 175.066406 188.320312 177.53125 C 182.78125 178.761719 177.242188 180.199219 169.859375 180.816406 C 153.445312 182.253906 146.0625 181.023438 143.597656 180.40625 C 143.804688 179.585938 143.804688 178.96875 144.011719 178.144531 C 146.472656 159.664062 137.035156 137.070312 121.238281 123.515625 C 105.03125 109.757812 83.902344 105.855469 61.542969 112.425781 C 37.953125 119.410156 20.515625 132.757812 10.667969 150.832031 C 1.847656 167.054688 0 187.183594 5.128906 204.640625 C 13.746094 233.1875 38.976562 247.359375 61.542969 247.5625 C 59.285156 249.207031 57.03125 251.261719 56.207031 253.726562 C 55.796875 255.164062 56.003906 256.804688 56.824219 258.039062 C 58.054688 260.089844 62.15625 260.914062 69.132812 260.914062 C 77.132812 260.914062 88.621094 259.886719 103.800781 258.039062 C 107.90625 257.628906 111.597656 257.214844 113.855469 257.011719 C 119.394531 259.066406 126.367188 261.734375 134.367188 265.019531 C 140.316406 267.484375 147.703125 268.511719 156.113281 268.511719 C 171.703125 268.511719 189.757812 265.226562 205.550781 262.351562 C 213.964844 260.914062 221.757812 259.476562 228.324219 258.652344 C 240.222656 257.214844 250.273438 259.679688 258.070312 261.53125 C 266.683594 263.582031 273.660156 265.226562 278.582031 260.707031 C 280.019531 259.269531 280.839844 257.628906 280.839844 255.984375 C 280.839844 252.082031 276.941406 248.179688 272.019531 243.457031 C 271.199219 242.632812 270.378906 241.8125 269.558594 241.195312 C 275.710938 239.144531 288.226562 232.570312 291.710938 227.847656 C 292.53125 226.617188 292.941406 225.589844 292.738281 224.5625 C 291.917969 219.835938 286.992188 219.222656 278.789062 218.398438 C 276.738281 218.195312 274.480469 217.988281 271.8125 217.578125 C 261.554688 216.140625 254.375 212.035156 252.53125 211.007812 C 252.53125 210.800781 252.53125 210.597656 252.324219 210.597656 C 257.453125 210.183594 293.96875 206.695312 323.917969 209.363281 C 331.511719 209.980469 338.28125 211.007812 344.433594 211.828125 C 351.820312 212.855469 357.769531 213.675781 362.488281 213.675781 C 367 213.675781 370.488281 212.855469 372.539062 210.800781 C 374.382812 208.335938 375 205.460938 374.589844 201.558594 Z M 7.589844 203.820312 C 2.460938 186.976562 4.511719 167.671875 12.925781 152.0625 C 22.359375 134.605469 39.183594 121.875 61.953125 115.097656 C 69.339844 112.835938 76.109375 112.015625 82.261719 112.015625 C 98.878906 112.015625 110.980469 118.792969 118.984375 125.570312 C 134.164062 138.507812 143.1875 160.074219 140.726562 177.734375 C 139.496094 186.976562 136.828125 194.78125 133.957031 201.148438 C 134.777344 199.300781 135.394531 197.453125 135.804688 195.398438 C 136.214844 193.550781 136.625 191.90625 137.035156 190.058594 C 137.652344 189.851562 138.0625 189.03125 137.855469 188.414062 C 137.855469 188.210938 137.652344 188.003906 137.445312 187.800781 C 137.855469 184.511719 138.0625 181.226562 137.855469 177.941406 C 136.417969 152.0625 110.367188 130.292969 99.492188 126.800781 C 98.671875 126.597656 96.210938 125.773438 94.777344 127.214844 C 91.699219 130.910156 89.851562 142.820312 89.441406 146.109375 C 84.519531 149.1875 51.285156 170.34375 44.722656 175.683594 C 40.824219 174.65625 28.308594 171.574219 24.410156 174.039062 C 23.589844 174.449219 23.179688 175.269531 22.976562 176.09375 C 21.746094 184.308594 23.179688 230.515625 61.132812 237.292969 C 63.59375 237.707031 65.851562 238.117188 68.3125 238.320312 L 67.082031 240.375 C 66.671875 240.992188 66.875 241.8125 67.492188 242.222656 C 67.695312 242.429688 67.902344 242.429688 68.3125 242.429688 C 68.722656 242.429688 69.339844 242.222656 69.542969 241.8125 L 71.59375 238.527344 C 74.671875 238.734375 77.542969 238.9375 80.210938 238.9375 C 83.082031 238.9375 85.75 238.734375 88.417969 238.527344 C 81.238281 241.402344 73.644531 243.660156 66.464844 244.484375 C 44.105469 246.535156 16.617188 233.1875 7.589844 203.820312 Z M 75.289062 230.105469 C 74.671875 229.695312 73.851562 229.902344 73.441406 230.515625 L 70.160156 235.652344 C 68.3125 235.445312 66.464844 235.242188 64.621094 234.832031 L 70.773438 229.078125 C 71.390625 228.464844 71.390625 227.640625 70.773438 227.027344 C 70.160156 226.410156 69.339844 226.410156 68.722656 227.027344 L 61.132812 234.214844 C 22.976562 226.820312 26.054688 176.914062 26.054688 176.503906 C 26.054688 176.503906 26.054688 176.296875 26.257812 176.296875 C 26.875 175.886719 27.898438 175.683594 29.335938 175.683594 C 33.4375 175.683594 40.207031 177.121094 45.132812 178.351562 C 45.542969 178.558594 46.15625 178.351562 46.363281 177.941406 C 51.285156 173.421875 91.492188 147.957031 91.902344 147.75 C 92.3125 147.546875 92.519531 147.132812 92.519531 146.722656 C 93.132812 142.617188 94.980469 131.730469 97.238281 128.652344 C 98.058594 128.445312 101.136719 129.265625 106.46875 132.964844 C 116.726562 139.945312 134.367188 157.199219 135.394531 177.53125 C 135.394531 178.144531 135.394531 178.96875 135.394531 179.585938 C 134.984375 179.378906 134.574219 179.378906 134.164062 179.585938 C 125.753906 184.308594 125.546875 184.921875 125.546875 185.539062 C 125.34375 186.363281 125.753906 186.976562 126.574219 187.183594 C 126.777344 187.183594 126.777344 187.183594 126.984375 187.183594 C 127.394531 187.183594 128.007812 186.976562 128.214844 186.566406 C 128.828125 185.949219 132.523438 183.691406 135.597656 182.046875 C 135.597656 183.691406 135.394531 185.539062 134.984375 187.386719 L 127.804688 189.648438 C 126.984375 189.851562 126.574219 190.675781 126.984375 191.496094 C 127.1875 192.113281 127.804688 192.523438 128.417969 192.523438 C 128.625 192.523438 128.625 192.523438 128.828125 192.523438 L 134.574219 190.675781 C 134.367188 191.90625 133.957031 192.933594 133.753906 194.164062 C 130.265625 206.28125 123.496094 216.960938 115.085938 224.355469 C 111.800781 226.410156 106.675781 229.695312 100.519531 232.777344 C 92.929688 235.445312 84.109375 236.472656 73.644531 235.652344 L 76.109375 231.75 C 76.109375 231.542969 75.902344 230.515625 75.289062 230.105469 Z M 271.402344 220.25 C 274.070312 220.660156 276.328125 220.863281 278.378906 221.070312 C 286.171875 221.890625 289.457031 222.300781 289.867188 224.972656 C 289.867188 225.175781 289.867188 225.382812 289.457031 226 C 286.171875 230.515625 271.8125 237.707031 267.503906 238.734375 C 263.609375 234.625 259.503906 229.695312 257.25 223.945312 C 256.015625 220.863281 254.785156 217.578125 253.964844 214.5 C 257.042969 216.550781 263.199219 219.222656 271.402344 220.25 Z M 254.375 225.382812 C 258.070312 234.007812 264.632812 240.375 269.96875 245.511719 C 274.273438 249.617188 277.96875 253.3125 277.96875 255.984375 C 277.96875 257.011719 277.558594 257.832031 276.53125 258.652344 C 272.839844 262.144531 266.890625 260.707031 258.683594 258.859375 C 250.480469 256.804688 240.222656 254.339844 227.914062 255.984375 C 221.347656 256.804688 213.554688 258.242188 205.140625 259.679688 C 181.347656 263.992188 151.804688 269.332031 135.597656 262.554688 C 113.445312 253.3125 99.492188 249.414062 99.289062 249.207031 C 98.46875 249 97.851562 249.414062 97.648438 250.234375 C 97.441406 251.054688 97.851562 251.671875 98.671875 251.875 C 98.671875 251.875 101.957031 252.902344 107.90625 254.75 C 106.675781 254.957031 105.238281 255.164062 103.800781 255.164062 C 92.3125 256.601562 61.542969 260.089844 59.492188 256.394531 C 59.082031 255.777344 59.082031 255.164062 59.285156 254.339844 C 60.105469 251.261719 65.441406 248.179688 67.492188 247.152344 C 79.390625 246.125 92.109375 240.785156 102.160156 235.445312 C 103.800781 234.832031 105.441406 234.214844 106.878906 233.394531 C 109.136719 232.367188 111.1875 230.929688 113.238281 229.492188 C 114.46875 228.667969 115.496094 227.847656 116.726562 226.820312 C 118.984375 225.382812 120.214844 224.355469 120.417969 224.355469 C 121.238281 223.738281 138.0625 211.007812 143.394531 182.871094 C 146.472656 183.484375 154.265625 184.511719 170.472656 183.28125 C 177.859375 182.664062 184.011719 181.226562 189.347656 179.996094 C 199.808594 177.53125 208.835938 175.476562 224.628906 179.996094 C 242.476562 185.128906 245.964844 197.246094 250.273438 211.210938 C 251.09375 216.140625 252.53125 220.660156 254.375 225.382812 Z M 370.488281 208.335938 C 367.203125 211.621094 357.769531 210.390625 344.84375 208.542969 C 338.691406 207.71875 331.921875 206.898438 324.125 206.078125 C 292.328125 203.40625 252.941406 207.308594 251.503906 207.515625 C 250.683594 204.640625 249.65625 201.765625 248.632812 199.09375 C 251.503906 197.453125 261.761719 192.316406 286.378906 185.335938 C 311.609375 178.144531 350.179688 184.101562 365.152344 193.960938 C 369.050781 196.425781 371.308594 199.300781 371.71875 201.96875 C 372.128906 205.050781 371.71875 207.105469 370.488281 208.335938 Z M 193.242188 229.492188 C 193.242188 230.722656 192.628906 232.570312 190.167969 233.804688 C 188.527344 234.625 186.269531 235.035156 183.808594 235.035156 C 173.753906 235.035156 158.78125 229.078125 151.804688 224.972656 C 147.90625 222.714844 147.496094 221.6875 147.496094 220.863281 C 147.496094 220.042969 148.113281 219.425781 148.933594 219.425781 C 149.546875 219.425781 150.164062 219.835938 150.371094 220.453125 C 152.625 223.535156 180.523438 235.855469 189.140625 231.339844 C 190.371094 230.722656 190.578125 229.902344 190.578125 229.492188 C 190.578125 225.382812 179.910156 217.578125 172.933594 213.675781 C 172.320312 213.265625 172.113281 212.445312 172.320312 211.828125 C 172.730469 211.210938 173.550781 211.007812 174.164062 211.210938 C 177.449219 213.058594 193.449219 222.507812 193.242188 229.492188 Z M 43.078125 184.511719 C 42.257812 184.101562 34.875 180.816406 31.386719 182.253906 C 30.769531 182.460938 29.746094 183.28125 29.746094 184.925781 C 29.335938 188.210938 32.207031 193.960938 33.847656 195.191406 C 34.054688 195.398438 34.257812 195.398438 34.667969 195.398438 C 34.875 195.398438 34.875 195.398438 35.078125 195.398438 C 37.542969 194.988281 42.257812 188.003906 43.488281 185.949219 C 43.695312 185.746094 43.695312 185.539062 43.695312 185.335938 C 43.488281 184.925781 43.488281 184.71875 43.078125 184.511719 Z M 34.667969 193.753906 C 33.4375 192.933594 31.179688 187.800781 31.386719 185.128906 C 31.59375 184.101562 32.003906 183.898438 32.003906 183.898438 C 32.414062 183.691406 32.824219 183.691406 33.4375 183.691406 C 35.898438 183.691406 39.386719 184.925781 41.4375 185.746094 C 38.773438 190.058594 35.695312 193.550781 34.667969 193.753906 Z M 98.671875 147.546875 C 98.878906 147.546875 99.082031 147.546875 99.289062 147.546875 C 101.546875 147.546875 107.699219 147.339844 109.339844 145.285156 C 109.75 144.671875 109.957031 144.054688 109.75 143.230469 C 108.929688 139.945312 103.800781 134.605469 101.339844 134.402344 C 100.519531 134.402344 100.109375 134.605469 99.699219 135.222656 C 98.671875 137.480469 97.851562 145.695312 97.851562 146.519531 C 97.851562 146.722656 97.851562 146.929688 98.058594 147.132812 C 98.261719 147.339844 98.46875 147.546875 98.671875 147.546875 Z M 101.339844 135.839844 C 102.570312 135.839844 107.496094 140.5625 108.109375 143.4375 C 108.109375 143.644531 108.109375 143.847656 107.90625 143.847656 C 107.085938 145.082031 102.777344 145.492188 99.492188 145.492188 C 99.902344 142.820312 100.726562 137.480469 101.339844 135.839844 Z M 76.722656 209.570312 C 75.492188 211.210938 72.414062 211.007812 69.953125 209.160156 C 67.492188 207.308594 66.464844 204.433594 67.902344 202.792969 C 69.132812 201.148438 72.210938 201.355469 74.671875 203.203125 C 76.929688 204.84375 77.953125 207.71875 76.722656 209.570312 Z M 111.800781 177.121094 C 113.238281 179.789062 112.828125 182.871094 110.980469 183.898438 C 109.136719 184.925781 106.46875 183.484375 105.03125 180.816406 C 103.597656 178.144531 104.007812 175.066406 105.851562 174.039062 C 107.699219 173.011719 110.367188 174.449219 111.800781 177.121094 Z M 111.800781 177.121094 " fill-opacity="1" fill-rule="nonzero"/></svg>