<?xml version="1.0" encoding="utf-8"?>
<!-- Generator: Adobe Illustrator 27.9.0, SVG Export Plug-In . SVG Version: 6.00 Build 0)  -->
<svg version="1.1" id="Layer_1" xmlns="http://www.w3.org/2000/svg" xmlns:xlink="http://www.w3.org/1999/xlink" x="0px" y="0px"
	 viewBox="0 0 400 400" style="enable-background:new 0 0 400 400;" xml:space="preserve">
<style type="text/css">
	.st0{clip-path:url(#SVGID_00000018233373067704150920000011101342904457895840_);}
	.st1{fill-rule:evenodd;clip-rule:evenodd;fill:#0D0D0D;}
	.st2{clip-path:url(#SVGID_00000049215942542562464430000013372244474976214952_);}
	.st3{fill-rule:evenodd;clip-rule:evenodd;fill:#FFFFFF;}
</style>
<g>
	<defs>
		<rect id="SVGID_1_" x="56" width="326.5" height="350.7"/>
	</defs>
	<clipPath id="SVGID_00000107587665742738092440000014724689936476974230_">
		<use xlink:href="#SVGID_1_"  style="overflow:visible;"/>
	</clipPath>
	<g style="clip-path:url(#SVGID_00000107587665742738092440000014724689936476974230_);">
		<path class="st1" d="M70.9,289l162.8-180.1l-19.2,60.8L382.8,0.3L234.7,198.1l66.8-48.8l-181,201.4l-64.1-21.6L70.9,289z"/>
	</g>
</g>
<g>
	<defs>
		<rect id="SVGID_00000129181163362367508850000013054388209046374585_" x="17.5" y="272" width="131.9" height="128"/>
	</defs>
	<clipPath id="SVGID_00000040545519585971025370000006180154899638341031_">
		<use xlink:href="#SVGID_00000129181163362367508850000013054388209046374585_"  style="overflow:visible;"/>
	</clipPath>
	<g style="clip-path:url(#SVGID_00000040545519585971025370000006180154899638341031_);">
		<path class="st3" d="M49.3,274l32.9,25.5c1.4,1,3.1,1,4.5,0.2l34.4-23.7c1.4-0.9,3.1-0.9,4.5,0.2c1.2,1,1.7,2.7,1.2,4.3
			l-14.1,39.2c-0.7,1.5-0.2,3.3,1.2,4.3l32.9,25.4c1.4,1,1.9,2.7,1.4,4.3c-0.7,1.5-2.1,2.6-3.8,2.6l-41.6-1.4c-1.7,0-3.1,1-3.6,2.6
			l-14.1,39.2c-0.5,1.5-2.1,2.6-3.8,2.6c-1.5-0.2-2.9-1.2-3.4-2.7l-11.7-40.1c-0.5-1.5-1.9-2.7-3.4-2.7l-41.6-1.2
			c-1.7,0-3.1-1-3.6-2.7c-0.5-1.5,0.2-3.3,1.5-4.1l34.4-23.5c1.4-0.9,1.9-2.6,1.5-4.1l-11.8-39.9c-0.5-1.7,0.2-3.3,1.5-4.3
			C46.2,272.8,48,273,49.3,274z"/>
	</g>
</g>
</svg>
