<svg xmlns="http://www.w3.org/2000/svg" xmlns:xlink="http://www.w3.org/1999/xlink" width="500" zoomAndPan="magnify" viewBox="0 0 375 374.999991" height="500" preserveAspectRatio="xMidYMid meet" version="1.0"><defs><clipPath id="b156fb8394"><path d="M 64 69 L 293 69 L 293 316.226562 L 64 316.226562 Z M 64 69 " clip-rule="nonzero"/></clipPath></defs><path fill="#494d56" d="M 370.65625 242.003906 C 367.875 250.472656 360.015625 256.226562 353.699219 260.847656 C 326.757812 278.136719 297.738281 288.457031 269.757812 290.710938 C 268.246094 290.707031 266.617188 290.644531 264.605469 290.523438 C 248.351562 292.484375 232.082031 292.875 218.746094 292.875 C 216.664062 292.875 214.652344 292.863281 212.722656 292.851562 C 210.867188 292.804688 209.1875 292.648438 207.722656 292.386719 C 182.929688 291.449219 158.570312 287.484375 135.378906 280.597656 C 122.917969 276.804688 110.429688 272.292969 98.257812 267.1875 C 77.007812 259.441406 54.875 250.128906 37.109375 234.628906 C 35.824219 233.480469 34.523438 232.34375 33.214844 231.199219 C 25.125 224.128906 16.761719 216.816406 12.089844 206.917969 C 0.0742188 184.023438 38.515625 159.011719 51.148438 150.792969 C 73.96875 137.820312 97.710938 127.867188 121.730469 121.199219 C 124.011719 120.609375 126.257812 120.074219 128.152344 119.625 L 128.304688 119.589844 L 128.414062 119.65625 C 129.390625 119.015625 130.632812 118.933594 131.800781 119.433594 C 155.007812 120.035156 177.648438 120.960938 199.527344 125.589844 C 226.140625 130.746094 251.027344 140.789062 280.210938 154.28125 C 286.433594 157.136719 292.617188 160.03125 298.585938 162.886719 C 299.859375 163.421875 300.585938 164.589844 300.503906 165.964844 C 305.527344 169.066406 312.488281 173.597656 317.527344 177.777344 C 324.972656 181.851562 331.757812 185.964844 338.210938 190.308594 L 338.21875 190.3125 C 363.914062 208.574219 374.828125 225.964844 370.65625 242.003906 Z M 370.65625 242.003906 " fill-opacity="1" fill-rule="nonzero"/><path fill="#f2f2f2" d="M 306.191406 172.691406 L 306.179688 172.746094 C 306.039062 173.414062 305.992188 174.125 305.949219 174.8125 L 305.9375 174.945312 C 305.84375 175.949219 305.714844 176.976562 305.539062 178.195312 C 305.28125 179.347656 305.050781 180.269531 304.804688 181.136719 L 304.773438 181.210938 C 303.886719 182.84375 303.054688 184.285156 302.21875 185.617188 C 301.320312 186.90625 300.320312 188.222656 299.15625 189.65625 C 298.609375 190.257812 297.96875 190.945312 297.261719 191.625 C 296.675781 192.191406 296.070312 192.734375 295.464844 193.28125 L 295.253906 193.46875 C 294.523438 194.082031 293.777344 194.679688 292.960938 195.308594 L 292.882812 195.355469 C 287.089844 197.914062 281.871094 199.984375 276.925781 201.691406 C 254.171875 209.9375 231.28125 214.117188 208.902344 214.117188 C 206.707031 214.117188 204.46875 214.074219 202.25 213.992188 C 170.738281 213.421875 143.34375 205.09375 118.5 188.53125 C 113.300781 184.8125 97.503906 173.511719 90.851562 163.835938 L 90.800781 163.722656 C 90.613281 163.039062 90.445312 162.363281 90.292969 161.65625 C 90.167969 160.742188 90.066406 159.855469 89.972656 158.960938 C 89.9375 157.257812 90.023438 155.636719 90.101562 154.40625 L 90.167969 153.808594 C 90.257812 152.984375 90.347656 152.128906 90.488281 151.292969 L 90.527344 151.179688 L 90.589844 151.0625 C 91.347656 149.648438 92.066406 148.3125 92.34375 147.378906 C 97.890625 135.933594 103.273438 126.320312 108.816406 117.941406 C 124.84375 92.886719 145.027344 75.75 167.175781 68.386719 C 196.375 58.949219 226.097656 61.023438 250.878906 74.226562 C 273.953125 86.519531 290.164062 106.996094 297.761719 133.441406 C 300.242188 140.085938 302.222656 146.992188 303.640625 153.949219 C 304.035156 155.351562 304.4375 156.78125 304.84375 158.207031 C 305.035156 158.917969 305.007812 159.609375 304.769531 160.222656 C 305.269531 163.453125 305.65625 166.71875 305.921875 169.9375 Z M 306.191406 172.691406 " fill-opacity="1" fill-rule="nonzero"/><g clip-path="url(#b156fb8394)"><path fill="#b3ffae" d="M 127.472656 276.789062 L 128.167969 276.953125 L 127.960938 277.375 C 127.59375 278.113281 127.011719 278.746094 126.238281 279.257812 C 117.949219 285.691406 108.402344 289.242188 99.378906 289.242188 C 93.582031 289.242188 88.167969 287.785156 83.292969 284.90625 C 71.96875 278.171875 64.582031 264.847656 64.476562 250.957031 L 64.472656 250.390625 L 64.992188 250.609375 C 65.121094 250.664062 65.25 250.71875 65.371094 250.773438 C 66.511719 251.273438 67.648438 251.785156 68.792969 252.292969 L 69.277344 252.511719 C 70.277344 252.957031 71.269531 253.421875 72.261719 253.886719 C 72.703125 254.09375 73.140625 254.308594 73.578125 254.515625 L 78.015625 256.648438 C 80.523438 257.859375 83.121094 259.113281 85.703125 260.269531 C 89.222656 261.84375 92.953125 263.488281 97.109375 265.289062 C 100.222656 266.636719 103.84375 268.191406 107.457031 269.59375 C 107.980469 269.796875 108.503906 270.003906 109.027344 270.210938 C 110.179688 270.664062 111.375 271.140625 112.5625 271.550781 C 114.910156 272.367188 117.699219 273.324219 120.578125 274.230469 C 120.675781 274.261719 120.773438 274.285156 120.871094 274.304688 C 121.558594 274.527344 122.207031 274.734375 122.855469 274.941406 L 122.953125 274.988281 L 122.75 275.304688 L 123.019531 275.042969 C 123.179688 275.1875 123.296875 275.285156 123.417969 275.378906 C 123.464844 275.414062 123.515625 275.449219 123.566406 275.480469 C 123.695312 275.570312 123.792969 275.628906 123.894531 275.6875 C 124.144531 275.828125 124.371094 275.929688 124.59375 276.003906 C 125.425781 276.277344 126.316406 276.519531 127.472656 276.789062 Z M 191.820312 290.125 C 190.675781 289.976562 189.535156 289.820312 188.394531 289.664062 L 188.375 289.660156 C 187.648438 289.597656 186.925781 289.53125 186.199219 289.460938 L 185.683594 289.414062 C 183.492188 289.21875 181.265625 288.949219 179.117188 288.691406 L 178.019531 288.558594 L 178.019531 288.554688 C 176.578125 288.386719 175.109375 288.125 173.691406 287.871094 C 173.058594 287.757812 172.429688 287.644531 171.796875 287.542969 C 170.484375 287.324219 169.15625 287.042969 167.871094 286.769531 C 167.304688 286.652344 166.738281 286.53125 166.171875 286.414062 C 162.871094 285.746094 159.53125 284.976562 156.304688 284.230469 L 155.675781 284.085938 C 151.710938 283.175781 147.777344 282.183594 143.992188 281.132812 C 142.785156 280.800781 141.582031 280.453125 140.375 280.109375 L 139.1875 279.769531 L 139.34375 280.394531 C 143.457031 297.019531 156.582031 308.160156 175.332031 310.949219 C 177.449219 311.417969 179.574219 311.65625 181.652344 311.65625 C 197.039062 311.65625 207.015625 299.230469 211.589844 291.824219 L 211.933594 291.265625 L 211.277344 291.253906 C 204.996094 291.148438 198.320312 290.972656 191.820312 290.125 Z M 292.167969 284.871094 C 290.863281 285.125 289.554688 285.367188 288.242188 285.605469 L 288.242188 285.601562 C 287.167969 285.804688 286.089844 286 285.015625 286.179688 C 282.46875 286.597656 280.144531 286.945312 277.863281 287.25 C 277.6875 287.292969 277.496094 287.316406 277.242188 287.328125 C 275.519531 287.550781 273.9375 287.726562 272.417969 287.875 C 270.195312 288.09375 267.773438 288.308594 264.988281 288.535156 C 262.949219 288.914062 260.9375 289.238281 259.007812 289.488281 C 254.546875 290.074219 250.929688 290.417969 247.625 290.570312 C 243.304688 290.769531 239.03125 290.78125 235.785156 290.777344 C 234.535156 290.773438 233.285156 290.773438 232.035156 290.777344 C 229.734375 290.789062 227.433594 290.785156 225.128906 290.753906 L 224.148438 290.738281 L 224.28125 291.222656 C 227.238281 301.9375 239.867188 311.363281 250.246094 314.792969 C 253.046875 315.730469 255.910156 316.203125 258.761719 316.203125 C 275.097656 316.203125 288.066406 301.183594 291.964844 287.078125 C 292.085938 286.722656 292.226562 286.351562 292.367188 285.964844 L 292.816406 284.742188 Z M 215.152344 187.851562 C 212.496094 187.460938 210.109375 186.75 208.035156 185.734375 C 209.554688 191.246094 210.898438 196.886719 212.195312 202.351562 C 212.753906 204.695312 213.3125 207.035156 213.882812 209.371094 L 213.988281 209.800781 L 213.546875 209.832031 C 212.695312 209.894531 211.84375 209.949219 210.988281 210 L 210.90625 210.003906 C 210.230469 210.042969 209.554688 210.082031 208.882812 210.109375 L 208.5625 210.125 L 208.558594 210.117188 L 208.4375 210.121094 C 208.214844 210.132812 207.996094 210.144531 207.777344 210.152344 C 204.121094 210.273438 201.15625 210.328125 198.449219 210.328125 C 197.898438 210.328125 197.347656 210.328125 196.796875 210.320312 C 195.113281 210.308594 193.429688 210.28125 191.75 210.25 L 186.714844 210.144531 L 186.703125 209.792969 C 186.460938 203.644531 186.617188 197.378906 186.769531 191.324219 C 186.855469 187.914062 186.945312 184.390625 186.960938 180.929688 C 185.960938 180.789062 184.957031 180.585938 183.976562 180.324219 C 166.640625 174.925781 159.648438 156.191406 158.925781 141.789062 C 158.261719 126.273438 160.695312 106.21875 175.988281 98.542969 L 175.984375 98.433594 L 176.191406 98.320312 C 176.714844 98.035156 177.238281 97.753906 177.769531 97.480469 C 178.46875 97.167969 179.140625 96.890625 179.84375 96.621094 C 181.535156 96.058594 183.058594 95.621094 184.515625 95.28125 C 184.796875 95.214844 185.066406 95.101562 185.320312 94.953125 L 185.429688 94.910156 C 186.246094 94.730469 187.066406 94.554688 187.886719 94.394531 C 188.269531 94.324219 188.625 94.257812 188.980469 94.199219 C 189.128906 94.171875 189.273438 94.136719 189.414062 94.09375 L 189.492188 94.070312 L 189.570312 94.078125 C 191.039062 94.25 192.226562 94.382812 193.125 94.371094 C 206.746094 96.125 217.980469 104.757812 221.792969 116.367188 C 226.273438 131.328125 220.683594 160.054688 207.054688 173.597656 C 211.429688 178.457031 219.539062 180.402344 226.09375 178.121094 C 233.984375 175.398438 237.5 167.375 240.292969 160.835938 C 236.988281 157.582031 233.996094 151.070312 233.191406 149.007812 C 232.4375 147.3125 232.820312 145.0625 234.097656 143.785156 C 235.101562 142.78125 236.472656 142.5625 237.863281 143.1875 C 239.707031 144.007812 240.746094 145.691406 241.75 147.3125 C 241.867188 147.503906 241.984375 147.695312 242.105469 147.882812 C 242.21875 147.300781 242.316406 146.707031 242.414062 146.125 C 242.722656 144.253906 243.042969 142.320312 243.894531 140.605469 L 243.96875 140.503906 C 245.277344 139.25 246.464844 138.867188 247.496094 139.363281 C 249.476562 140.320312 250.171875 144.347656 250.191406 147.027344 C 252.039062 144.71875 253.871094 143.597656 255.414062 143.851562 C 256.457031 144.023438 257.273438 144.835938 257.644531 146.085938 C 258.289062 148.246094 257.613281 151.804688 254.761719 154.933594 C 257.859375 154.390625 262.675781 154.523438 264.414062 156.710938 C 265.324219 157.855469 265.273438 159.359375 264.257812 161.183594 L 264.183594 161.277344 C 261.121094 164.058594 256.621094 163.941406 252.648438 163.839844 C 251.433594 163.808594 250.28125 163.777344 249.1875 163.824219 C 248.859375 164.457031 248.5 165.085938 248.148438 165.695312 C 247.488281 166.851562 246.863281 167.941406 246.664062 168.707031 L 246.644531 168.769531 C 240.863281 181.480469 227.617188 189.507812 215.152344 187.851562 Z M 210.96875 209.625 Z M 209.660156 76.082031 C 210.246094 77.496094 211.457031 77.84375 212.433594 77.714844 C 212.59375 78.011719 212.8125 78.269531 213.09375 78.488281 C 213.859375 79.019531 214.765625 79.222656 215.640625 79.417969 C 216.152344 79.53125 216.628906 79.636719 217.109375 79.8125 C 217.382812 79.890625 217.648438 79.925781 217.898438 79.925781 C 219.148438 79.925781 220.0625 79.03125 220.371094 77.976562 C 220.734375 76.722656 220.25 75.191406 218.582031 74.683594 C 218.449219 74.65625 218.3125 74.621094 218.179688 74.585938 C 219.074219 73.402344 220.160156 71.578125 218.371094 69.980469 C 217.730469 69.453125 216.980469 69.265625 216.199219 69.4375 C 215.265625 69.644531 214.402344 70.363281 213.929688 71.320312 L 213.699219 71.605469 C 213.699219 71.605469 213.699219 71.605469 213.699219 71.609375 C 213.382812 70.699219 212.894531 69.765625 211.730469 69.382812 C 211.050781 69.183594 210.332031 69.265625 209.699219 69.609375 C 209.070312 69.957031 208.617188 70.515625 208.414062 71.214844 C 208.117188 72.527344 208.652344 73.730469 209.171875 74.894531 C 209.351562 75.296875 209.519531 75.683594 209.660156 76.082031 Z M 209.660156 76.082031 " fill-opacity="1" fill-rule="nonzero"/></g><path fill="#0d0d0d" d="M 140.339844 240.46875 C 140.113281 242.253906 138.785156 244.0625 136.679688 244.0625 C 136.285156 244.0625 135.878906 244 135.476562 243.875 C 114.328125 237.769531 96.601562 230.578125 81.292969 221.890625 C 63.183594 211.613281 48.246094 198.957031 36.902344 184.277344 C 33.398438 179.765625 29.699219 174.875 26.367188 169.691406 L 26.285156 169.5625 L 26.394531 169.457031 C 27.949219 167.96875 29.417969 166.617188 30.878906 165.324219 C 31.289062 164.957031 31.710938 164.597656 32.132812 164.238281 L 32.300781 164.097656 L 32.414062 164.289062 C 45.441406 186.476562 66.832031 206.019531 92.644531 219.316406 C 104.453125 225.355469 117.25 229.566406 129.628906 233.640625 C 132.285156 234.515625 134.9375 235.390625 137.585938 236.28125 C 139.929688 236.886719 140.535156 238.914062 140.339844 240.46875 Z M 180.136719 245.679688 L 180.109375 245.671875 C 178.355469 245.488281 176.507812 244.953125 174.554688 244.394531 C 171.226562 243.433594 167.78125 242.441406 164.75 243.289062 C 163.382812 244.019531 162.648438 245.570312 162.871094 247.246094 C 163.097656 248.914062 164.179688 250.160156 165.691406 250.5 C 169.726562 251.410156 173.757812 252.316406 177.792969 253.222656 L 178.042969 253.277344 C 178.441406 253.394531 178.832031 253.453125 179.210938 253.453125 C 180.136719 253.453125 180.980469 253.109375 181.660156 252.441406 C 182.742188 251.378906 183.207031 249.6875 182.816406 248.226562 C 182.46875 246.9375 181.519531 246.03125 180.136719 245.679688 Z M 364.664062 215.164062 C 363.96875 214.410156 363.277344 213.652344 362.582031 212.894531 L 361.847656 212.089844 C 361.550781 211.765625 361.25 211.441406 360.949219 211.117188 C 360.421875 210.539062 359.890625 209.964844 359.367188 209.382812 L 359.210938 209.210938 L 359.074219 209.398438 C 345.097656 228.859375 288.925781 238.664062 282.574219 239.71875 C 272.511719 241.089844 262.574219 241.894531 251.554688 242.730469 C 250.015625 242.855469 248.78125 243.941406 248.335938 245.5625 C 247.878906 247.210938 248.40625 248.859375 249.671875 249.757812 C 250.351562 250.292969 251.195312 250.5625 252.167969 250.5625 C 252.308594 250.5625 252.453125 250.554688 252.601562 250.542969 C 257.710938 250.167969 262.90625 249.722656 267.929688 249.289062 L 269.324219 249.167969 C 294.222656 247.136719 319.484375 240.605469 344.40625 229.75 C 351.285156 226.378906 359.800781 221.707031 364.671875 215.40625 L 364.769531 215.28125 Z M 178.609375 157.003906 L 178.640625 157.007812 C 178.8125 157.019531 178.980469 157.023438 179.144531 157.023438 C 182.21875 157.023438 184.679688 155.292969 186.257812 152.019531 C 189.628906 145.035156 188.222656 133.273438 184.769531 128.929688 C 183.316406 126.230469 180.671875 124.269531 177.867188 123.808594 C 176.265625 123.546875 173.902344 123.664062 171.71875 125.714844 C 171.425781 126.0625 171.054688 126.425781 170.65625 126.808594 C 170.375 127.085938 170.082031 127.367188 169.808594 127.660156 L 169.769531 127.722656 C 169.300781 129.011719 168.914062 130.199219 168.59375 131.351562 L 168.574219 131.414062 L 168.601562 131.476562 C 168.613281 131.5 168.621094 131.519531 168.632812 131.542969 C 167.171875 139.003906 170.757812 155.078125 178.609375 157.003906 Z M 202.535156 126.785156 L 202.515625 126.792969 C 202.105469 126.980469 201.597656 127.167969 201.054688 127.363281 L 200.910156 127.414062 L 200.859375 127.445312 C 200.195312 127.972656 199.597656 128.46875 199.027344 128.96875 C 198.652344 129.316406 198.28125 129.664062 197.890625 130.042969 C 197.601562 130.453125 197.320312 130.867188 197.039062 131.292969 C 196.941406 131.457031 196.84375 131.625 196.753906 131.792969 L 196.714844 131.859375 L 196.738281 131.9375 C 196.746094 131.953125 196.75 131.972656 196.753906 131.988281 C 193.847656 136.65625 190.183594 146.375 192.601562 152.875 C 193.617188 155.613281 195.605469 157.453125 198.523438 158.34375 C 199.0625 158.460938 199.601562 158.519531 200.128906 158.519531 C 204.3125 158.519531 208.371094 154.789062 210.984375 148.539062 C 213.75 141.929688 214.582031 132.765625 210.691406 128.8125 C 208.710938 126.566406 205.511719 125.769531 202.535156 126.785156 Z M 193.640625 160.539062 C 192.59375 160.5 191.699219 161.039062 191.335938 161.933594 C 191.195312 162.199219 191.0625 162.515625 190.921875 162.851562 C 190.386719 164.113281 189.78125 165.550781 188.546875 165.421875 C 188.515625 165.40625 188.480469 165.390625 188.4375 165.371094 C 188.363281 165.339844 188.257812 165.292969 188.207031 165.253906 L 188.195312 165.246094 L 188.183594 165.261719 C 187.238281 164.699219 186.84375 163.597656 186.460938 162.527344 C 185.964844 161.132812 185.449219 159.695312 183.671875 159.511719 C 181.902344 159.722656 181.011719 160.785156 181.164062 162.5 C 181.433594 165.578125 185.25 170.378906 187.957031 170.378906 C 188 170.378906 188.042969 170.378906 188.085938 170.375 C 188.351562 170.421875 188.625 170.445312 188.894531 170.445312 C 190.308594 170.445312 191.761719 169.8125 193.058594 168.617188 C 194.960938 166.863281 196.109375 164.269531 195.90625 162.125 C 195.601562 161.195312 194.710938 160.574219 193.640625 160.539062 Z M 213.753906 75.214844 C 212.121094 74.605469 209.9375 75.945312 207.269531 79.191406 C 205.429688 81.210938 203.53125 83.234375 201.691406 85.195312 C 198.476562 88.617188 195.15625 92.152344 192.070312 95.761719 C 191.628906 96.113281 191.335938 96.539062 191.195312 97.027344 C 190.871094 97.574219 190.816406 98.175781 191.03125 98.804688 C 192.039062 101.769531 198.785156 104.921875 204.269531 107.046875 C 205.792969 107.574219 207.472656 107.832031 209.480469 107.832031 C 209.996094 107.832031 210.535156 107.816406 211.101562 107.78125 C 211.460938 107.738281 211.789062 107.636719 212.074219 107.480469 C 213.382812 107.597656 214.59375 106.640625 214.738281 105.386719 C 215.792969 98.671875 216.40625 91.742188 216.566406 84.792969 C 216.636719 81.632812 216.367188 76.183594 213.753906 75.214844 Z M 213.753906 75.214844 " fill-opacity="1" fill-rule="nonzero"/><path fill="#ffffff" d="M 278.8125 147.867188 C 277.027344 147.867188 275.214844 146.949219 274.347656 144.636719 C 270.894531 135.28125 267.324219 125.605469 262.445312 116.648438 C 260.007812 112.84375 256.898438 109.398438 253.886719 106.070312 L 253.628906 105.785156 C 252.765625 104.855469 252.320312 103.613281 252.382812 102.28125 C 252.445312 100.925781 253.039062 99.648438 254.019531 98.773438 C 258.753906 95.308594 262.328125 100.085938 265.203125 103.921875 C 266.132812 105.167969 267.011719 106.34375 267.855469 107.160156 C 273.898438 115.289062 277.503906 124.917969 280.996094 134.226562 C 281.863281 136.546875 282.765625 138.949219 283.683594 141.273438 L 283.6875 141.289062 C 284.730469 144.304688 282.949219 146.714844 280.652344 147.542969 C 280.074219 147.75 279.445312 147.867188 278.8125 147.867188 Z M 287.09375 158.617188 C 286.195312 157.664062 285.03125 157.140625 283.820312 157.140625 C 282.386719 157.140625 281.1875 157.566406 280.257812 158.398438 C 279.285156 159.265625 278.6875 160.515625 278.613281 161.824219 C 278.539062 163.152344 279.070312 164.558594 280.035156 165.578125 C 280.9375 166.53125 282.097656 167.054688 283.3125 167.054688 C 284.742188 167.054688 285.941406 166.632812 286.871094 165.796875 C 287.84375 164.929688 288.441406 163.679688 288.515625 162.371094 C 288.589844 161.042969 288.058594 159.636719 287.09375 158.617188 Z M 204.777344 95.09375 C 202.277344 94.109375 200.070312 92.824219 198.210938 91.28125 C 197.921875 90.757812 197.472656 90.371094 196.910156 90.160156 L 196.675781 90.070312 L 196.503906 90.257812 C 196.242188 90.546875 195.980469 90.835938 195.722656 91.132812 L 195.359375 91.546875 C 194.820312 92.15625 194.265625 92.789062 193.6875 93.375 L 193.507812 93.5625 L 193.617188 93.796875 C 195.667969 98.144531 206.789062 101.71875 210.164062 101.980469 C 211.21875 102.105469 212.289062 102.164062 213.4375 102.164062 C 214.019531 102.164062 214.597656 102.148438 215.175781 102.121094 L 215.492188 102.105469 L 215.527344 101.792969 C 215.652344 100.769531 215.785156 99.746094 215.914062 98.722656 L 215.917969 98.703125 L 215.921875 98.703125 L 215.992188 98.144531 C 216.035156 97.820312 216.074219 97.492188 216.113281 97.167969 L 216.164062 96.714844 L 215.710938 96.753906 C 212.035156 97.070312 208.359375 96.511719 204.777344 95.09375 Z M 214.640625 85.855469 C 211.351562 85.367188 207.765625 84.117188 204.273438 82.242188 L 204.023438 82.105469 L 202.550781 83.683594 C 201.917969 84.363281 201.289062 85.039062 200.652344 85.714844 L 200.355469 86.035156 L 200.691406 86.285156 C 201.753906 87.070312 202.925781 87.625 203.839844 88.023438 L 204.550781 88.3125 C 207.734375 89.597656 211.027344 90.929688 214.566406 91.195312 C 216.257812 91.195312 217.164062 89.882812 217.1875 88.585938 C 217.207031 87.277344 216.34375 85.925781 214.640625 85.855469 Z M 214.640625 85.855469 " fill-opacity="1" fill-rule="nonzero"/></svg>