<svg xmlns="http://www.w3.org/2000/svg" xmlns:xlink="http://www.w3.org/1999/xlink" width="1000" zoomAndPan="magnify" viewBox="0 0 750 749.999995" height="1000" preserveAspectRatio="xMidYMid meet" version="1.0"><defs><clipPath id="5926feb83c"><path d="M 124 124.261719 L 626 124.261719 L 626 626 L 124 626 Z M 124 124.261719 " clip-rule="nonzero"/></clipPath><clipPath id="4fc4b73268"><path d="M 124 124.261719 L 626 124.261719 L 626 626.011719 L 124 626.011719 Z M 124 124.261719 " clip-rule="nonzero"/></clipPath><clipPath id="22dd6cfe74"><path d="M 68.210938 37.871094 L 681.710938 37.871094 L 681.710938 552 L 68.210938 552 Z M 68.210938 37.871094 " clip-rule="nonzero"/></clipPath><clipPath id="38df58cba5"><path d="M 334 626 L 453 626 L 453 712.121094 L 334 712.121094 Z M 334 626 " clip-rule="nonzero"/></clipPath></defs><g clip-path="url(#5926feb83c)"><path fill="#ffffff" d="M 124.8125 362.738281 C 125.023438 358.636719 125.339844 354.539062 125.757812 350.441406 C 126.179688 346.339844 126.703125 342.242188 127.230469 338.246094 C 127.859375 334.148438 128.488281 330.15625 129.332031 326.160156 C 130.171875 322.167969 131.011719 318.171875 132.0625 314.179688 C 133.113281 310.1875 134.160156 306.296875 135.316406 302.304688 C 136.472656 298.414062 137.734375 294.527344 139.203125 290.636719 C 140.675781 286.75 142.039062 282.964844 143.613281 279.179688 C 145.191406 275.398438 146.871094 271.613281 148.550781 267.9375 C 150.335938 264.257812 152.125 260.578125 154.117188 256.898438 C 156.007812 253.328125 158.109375 249.753906 160.210938 246.179688 C 162.3125 242.710938 164.515625 239.242188 166.828125 235.773438 C 169.140625 232.410156 171.449219 229.046875 173.867188 225.683594 C 176.28125 222.425781 178.800781 219.167969 181.429688 216.015625 C 184.054688 212.863281 186.679688 209.710938 189.410156 206.664062 C 192.140625 203.613281 194.976562 200.671875 197.917969 197.730469 C 200.859375 194.785156 203.800781 191.949219 206.847656 189.214844 C 209.894531 186.484375 212.9375 183.75 216.195312 181.226562 C 219.347656 178.601562 222.601562 176.078125 225.859375 173.660156 C 229.113281 171.242188 232.476562 168.824219 235.941406 166.617188 C 239.304688 164.304688 242.769531 162.097656 246.339844 159.996094 C 249.808594 157.894531 253.378906 155.898438 257.054688 153.902344 C 260.730469 151.90625 264.300781 150.117188 268.082031 148.332031 C 271.761719 146.542969 275.542969 144.96875 279.324219 143.390625 C 283.105469 141.816406 286.886719 140.34375 290.773438 138.976562 C 294.65625 137.609375 298.542969 136.351562 302.429688 135.089844 C 306.316406 133.933594 310.308594 132.777344 314.300781 131.832031 C 318.292969 130.78125 322.28125 129.9375 326.273438 129.097656 C 330.265625 128.257812 334.363281 127.625 338.351562 126.996094 C 342.34375 126.367188 346.441406 125.945312 350.539062 125.523438 C 354.632812 125.105469 358.730469 124.789062 362.828125 124.578125 C 366.921875 124.367188 371.019531 124.261719 375.117188 124.261719 C 379.210938 124.261719 383.308594 124.367188 387.40625 124.578125 C 391.5 124.789062 395.597656 125.105469 399.695312 125.523438 C 403.792969 125.945312 407.886719 126.46875 411.878906 126.996094 C 415.976562 127.625 419.96875 128.257812 423.957031 129.097656 C 427.949219 129.9375 431.941406 130.78125 435.933594 131.832031 C 439.921875 132.882812 443.808594 133.933594 447.800781 135.089844 C 451.6875 136.246094 455.574219 137.609375 459.460938 138.976562 C 463.347656 140.34375 467.128906 141.816406 470.910156 143.390625 C 474.691406 144.96875 478.472656 146.648438 482.148438 148.332031 C 485.824219 150.117188 489.5 151.90625 493.175781 153.902344 C 496.855469 155.898438 500.320312 157.894531 503.890625 159.996094 C 507.460938 162.097656 510.824219 164.304688 514.289062 166.617188 C 517.652344 168.929688 521.011719 171.242188 524.375 173.660156 C 527.628906 176.078125 530.886719 178.601562 534.035156 181.226562 C 537.1875 183.855469 540.339844 186.484375 543.386719 189.214844 C 546.429688 191.949219 549.371094 194.785156 552.3125 197.730469 C 555.253906 200.671875 558.089844 203.613281 560.820312 206.664062 C 563.550781 209.710938 566.28125 212.757812 568.910156 216.015625 C 571.535156 219.167969 574.054688 222.425781 576.472656 225.683594 C 578.886719 228.945312 581.304688 232.308594 583.507812 235.773438 C 585.820312 239.136719 588.027344 242.605469 590.125 246.179688 C 592.226562 249.648438 594.222656 253.222656 596.21875 256.898438 C 598.109375 260.472656 600 264.152344 601.785156 267.9375 C 603.570312 271.613281 605.148438 275.398438 606.722656 279.179688 C 608.296875 282.964844 609.769531 286.75 611.132812 290.636719 C 612.5 294.527344 613.757812 298.414062 615.019531 302.304688 C 616.175781 306.191406 617.332031 310.1875 618.277344 314.179688 C 619.222656 318.171875 620.167969 322.167969 621.007812 326.160156 C 621.847656 330.15625 622.476562 334.253906 623.109375 338.246094 C 623.738281 342.347656 624.160156 346.339844 624.578125 350.441406 C 625 354.539062 625.3125 358.636719 625.523438 362.738281 C 625.734375 366.835938 625.839844 370.933594 625.839844 375.03125 C 625.839844 379.132812 625.734375 383.230469 625.523438 387.328125 C 625.3125 391.429688 625 395.527344 624.578125 399.625 C 624.160156 403.726562 623.632812 407.824219 623.109375 411.820312 C 622.582031 415.8125 621.847656 419.910156 621.007812 423.90625 C 620.167969 427.898438 619.328125 431.894531 618.277344 435.886719 C 617.226562 439.878906 616.175781 443.769531 615.019531 447.761719 C 613.863281 451.652344 612.605469 455.539062 611.132812 459.429688 C 609.769531 463.316406 608.296875 467.101562 606.722656 470.886719 C 605.148438 474.667969 603.464844 478.453125 601.785156 482.128906 C 600 485.808594 598.214844 489.488281 596.21875 493.167969 C 594.328125 496.738281 592.226562 500.3125 590.125 503.886719 C 588.027344 507.355469 585.820312 510.824219 583.507812 514.292969 C 581.199219 517.65625 578.886719 521.019531 576.472656 524.382812 C 574.054688 527.640625 571.535156 530.898438 568.910156 534.050781 C 566.28125 537.203125 563.65625 540.355469 560.820312 543.402344 C 558.089844 546.453125 555.253906 549.394531 552.3125 552.335938 C 549.371094 555.28125 546.429688 558.117188 543.386719 560.851562 C 540.339844 563.582031 537.292969 566.316406 534.035156 568.945312 C 530.886719 571.570312 527.628906 574.09375 524.375 576.511719 C 521.117188 578.929688 517.757812 581.34375 514.289062 583.550781 C 510.929688 585.863281 507.460938 588.070312 503.890625 590.175781 C 500.425781 592.277344 496.855469 594.273438 493.175781 596.269531 C 489.605469 598.160156 485.929688 600.054688 482.148438 601.839844 C 478.472656 603.625 474.691406 605.203125 470.910156 606.78125 C 467.128906 608.355469 463.347656 609.828125 459.460938 611.195312 C 455.574219 612.558594 451.6875 613.820312 447.800781 615.082031 C 443.914062 616.34375 439.921875 617.394531 435.933594 618.339844 C 431.941406 619.390625 427.949219 620.234375 423.957031 621.074219 C 419.96875 621.914062 415.871094 622.546875 411.878906 623.175781 C 407.78125 623.804688 403.792969 624.226562 399.695312 624.648438 C 395.597656 625.066406 391.5 625.382812 387.40625 625.59375 C 383.308594 625.804688 379.210938 625.910156 375.117188 625.910156 C 371.019531 625.910156 366.921875 625.804688 362.828125 625.59375 C 358.730469 625.382812 354.632812 625.066406 350.539062 624.648438 C 346.441406 624.226562 342.34375 623.699219 338.351562 623.175781 C 334.363281 622.648438 330.265625 621.914062 326.273438 621.074219 C 322.28125 620.234375 318.292969 619.390625 314.300781 618.339844 C 310.308594 617.289062 306.421875 616.238281 302.429688 615.082031 C 298.542969 613.925781 294.65625 612.558594 290.773438 611.195312 C 286.886719 609.828125 283.105469 608.355469 279.324219 606.78125 C 275.542969 605.203125 271.761719 603.523438 268.082031 601.839844 C 264.40625 600.054688 260.730469 598.265625 257.054688 596.269531 C 253.484375 594.378906 249.914062 592.277344 246.339844 590.175781 C 242.875 588.070312 239.410156 585.863281 235.941406 583.550781 C 232.582031 581.242188 229.21875 578.929688 225.859375 576.511719 C 222.601562 574.09375 219.347656 571.570312 216.195312 568.945312 C 213.042969 566.316406 209.894531 563.6875 206.847656 560.851562 C 203.800781 558.117188 200.859375 555.28125 197.917969 552.335938 C 194.976562 549.394531 192.140625 546.453125 189.410156 543.402344 C 186.679688 540.355469 183.949219 537.308594 181.429688 534.050781 C 178.800781 530.898438 176.28125 527.640625 173.867188 524.382812 C 171.449219 521.121094 169.035156 517.757812 166.828125 514.292969 C 164.621094 510.824219 162.3125 507.460938 160.210938 503.886719 C 158.109375 500.417969 156.113281 496.84375 154.117188 493.167969 C 152.226562 489.59375 150.335938 485.914062 148.550781 482.128906 C 146.765625 478.453125 145.191406 474.667969 143.613281 470.886719 C 142.039062 467.101562 140.570312 463.316406 139.203125 459.429688 C 137.839844 455.539062 136.578125 451.652344 135.316406 447.761719 C 134.160156 443.875 133.007812 439.878906 132.0625 435.886719 C 131.011719 431.894531 130.171875 427.898438 129.332031 423.90625 C 128.488281 419.910156 127.859375 415.8125 127.230469 411.820312 C 126.597656 407.824219 126.179688 403.726562 125.757812 399.625 C 125.339844 395.527344 125.023438 391.429688 124.8125 387.328125 C 124.601562 383.230469 124.5 379.132812 124.5 375.03125 C 124.5 370.933594 124.601562 366.835938 124.8125 362.738281 Z M 124.8125 362.738281 " fill-opacity="1" fill-rule="nonzero"/></g><g clip-path="url(#4fc4b73268)"><path fill="#000000" d="M 374.800781 124.472656 C 378.898438 124.472656 382.992188 124.578125 387.089844 124.789062 C 391.1875 125 395.28125 125.3125 399.378906 125.734375 C 403.476562 126.15625 407.574219 126.679688 411.5625 127.207031 C 415.660156 127.835938 419.652344 128.46875 423.644531 129.308594 C 427.632812 130.148438 431.625 130.988281 435.617188 132.039062 C 439.609375 132.988281 443.496094 134.144531 447.488281 135.300781 C 451.371094 136.453125 455.257812 137.820312 459.144531 139.1875 C 463.03125 140.554688 466.8125 142.023438 470.59375 143.601562 C 474.375 145.179688 478.15625 146.859375 481.832031 148.542969 C 485.507812 150.222656 489.1875 152.113281 492.757812 154.113281 C 496.328125 156.109375 499.898438 158.105469 503.472656 160.207031 C 507.042969 162.308594 510.402344 164.515625 513.871094 166.828125 C 517.335938 169.140625 520.59375 171.453125 523.953125 173.871094 C 527.210938 176.289062 530.464844 178.808594 533.617188 181.4375 C 536.769531 184.066406 539.917969 186.691406 542.964844 189.425781 C 546.011719 192.160156 548.953125 194.996094 551.894531 197.9375 C 554.832031 200.882812 557.566406 203.824219 560.402344 206.871094 C 563.238281 209.921875 565.863281 212.96875 568.488281 216.226562 C 571.113281 219.378906 573.636719 222.636719 576.050781 225.894531 C 578.46875 229.152344 580.882812 232.515625 583.089844 235.984375 C 585.398438 239.347656 587.605469 242.816406 589.707031 246.390625 C 591.808594 249.859375 593.800781 253.433594 595.796875 257.109375 C 597.6875 260.683594 599.578125 264.363281 601.363281 268.144531 C 603.152344 271.929688 604.726562 275.609375 606.300781 279.390625 C 607.878906 283.175781 609.347656 286.957031 610.714844 290.847656 C 612.078125 294.738281 613.339844 298.625 614.601562 302.515625 C 615.753906 306.402344 616.910156 310.394531 617.855469 314.390625 C 618.800781 318.382812 619.746094 322.378906 620.585938 326.371094 C 621.425781 330.367188 622.058594 334.464844 622.6875 338.457031 C 623.316406 342.453125 623.738281 346.550781 624.15625 350.648438 C 624.578125 354.75 624.894531 358.847656 625.101562 362.945312 C 625.3125 367.046875 625.417969 371.144531 625.417969 375.242188 C 625.417969 379.34375 625.3125 383.441406 625.101562 387.539062 C 624.894531 391.640625 624.578125 395.738281 624.15625 399.835938 C 623.738281 403.9375 623.210938 408.035156 622.6875 412.027344 C 622.164062 416.023438 621.425781 420.121094 620.585938 424.113281 C 619.746094 428.109375 618.90625 432.101562 617.855469 436.097656 C 616.910156 440.089844 615.753906 443.980469 614.601562 447.972656 C 613.445312 451.863281 612.183594 455.75 610.714844 459.640625 C 609.347656 463.527344 607.878906 467.3125 606.300781 471.09375 C 604.726562 474.878906 603.046875 478.664062 601.363281 482.339844 C 599.683594 486.019531 597.792969 489.699219 595.796875 493.375 C 593.800781 497.054688 591.808594 500.523438 589.707031 504.097656 C 587.605469 507.671875 585.398438 511.035156 583.089844 514.5 C 580.777344 517.96875 578.46875 521.226562 576.050781 524.589844 C 573.636719 527.847656 571.113281 531.109375 568.488281 534.261719 C 565.863281 537.414062 563.238281 540.566406 560.402344 543.613281 C 557.566406 546.664062 554.832031 549.605469 551.894531 552.546875 C 548.953125 555.492188 546.011719 558.328125 542.964844 561.0625 C 539.917969 563.792969 536.871094 566.527344 533.617188 569.046875 C 530.464844 571.675781 527.210938 574.199219 523.953125 576.617188 C 520.695312 579.035156 517.335938 581.449219 513.871094 583.65625 C 510.402344 585.863281 507.042969 588.175781 503.472656 590.277344 C 500.003906 592.382812 496.433594 594.378906 492.757812 596.375 C 489.082031 598.371094 485.507812 600.160156 481.832031 601.945312 C 478.15625 603.730469 474.375 605.308594 470.59375 606.886719 C 466.8125 608.460938 463.03125 609.933594 459.144531 611.300781 C 455.257812 612.664062 451.371094 613.925781 447.488281 615.1875 C 443.601562 616.449219 439.609375 617.5 435.617188 618.445312 C 431.625 619.496094 427.632812 620.335938 423.644531 621.179688 C 419.652344 622.019531 415.554688 622.648438 411.5625 623.28125 C 407.46875 623.910156 403.476562 624.332031 399.378906 624.753906 C 395.28125 625.171875 391.1875 625.488281 387.089844 625.699219 C 382.992188 625.910156 378.898438 626.011719 374.800781 626.011719 C 370.703125 626.011719 366.609375 625.910156 362.511719 625.699219 C 358.414062 625.488281 354.320312 625.171875 350.222656 624.753906 C 346.125 624.332031 342.03125 623.804688 338.039062 623.28125 C 334.046875 622.753906 329.949219 622.019531 325.957031 621.179688 C 321.96875 620.339844 317.976562 619.496094 313.984375 618.445312 C 309.992188 617.394531 306.105469 616.34375 302.117188 615.1875 C 298.230469 614.03125 294.34375 612.664062 290.457031 611.300781 C 286.570312 609.933594 282.789062 608.460938 279.007812 606.886719 C 275.226562 605.308594 271.445312 603.625 267.769531 601.945312 C 264.09375 600.261719 260.414062 598.371094 256.738281 596.375 C 253.0625 594.378906 249.597656 592.382812 246.027344 590.277344 C 242.453125 588.175781 239.09375 585.96875 235.628906 583.65625 C 232.160156 581.34375 228.90625 579.035156 225.542969 576.617188 C 222.289062 574.199219 219.03125 571.675781 215.878906 569.046875 C 212.730469 566.421875 209.578125 563.792969 206.53125 561.0625 C 203.484375 558.328125 200.546875 555.492188 197.605469 552.546875 C 194.664062 549.605469 191.828125 546.664062 189.097656 543.613281 C 186.363281 540.566406 183.632812 537.519531 181.113281 534.261719 C 178.488281 531.109375 175.964844 527.847656 173.550781 524.589844 C 171.132812 521.332031 168.71875 517.96875 166.511719 514.5 C 164.308594 511.035156 161.996094 507.671875 159.894531 504.097656 C 157.796875 500.523438 155.800781 497.054688 153.804688 493.375 C 151.808594 489.699219 150.023438 486.125 148.238281 482.339844 C 146.449219 478.558594 144.875 474.878906 143.300781 471.09375 C 141.722656 467.3125 140.253906 463.527344 138.886719 459.640625 C 137.523438 455.75 136.261719 451.863281 135.003906 447.972656 C 133.847656 444.085938 132.691406 440.089844 131.746094 436.097656 C 130.695312 432.101562 129.855469 428.109375 129.015625 424.113281 C 128.175781 420.121094 127.542969 416.023438 126.914062 412.027344 C 126.285156 408.035156 125.863281 403.9375 125.445312 399.835938 C 125.023438 395.738281 124.707031 391.640625 124.5 387.539062 C 124.289062 383.441406 124.183594 379.34375 124.183594 375.242188 C 124.183594 371.144531 124.289062 367.046875 124.5 362.945312 C 124.707031 358.847656 125.023438 354.75 125.445312 350.648438 C 125.863281 346.550781 126.390625 342.453125 126.914062 338.457031 C 127.4375 334.464844 128.175781 330.367188 129.015625 326.371094 C 129.855469 322.378906 130.695312 318.382812 131.746094 314.390625 C 132.796875 310.394531 133.847656 306.507812 135.003906 302.515625 C 136.15625 298.625 137.523438 294.738281 138.886719 290.847656 C 140.253906 286.957031 141.722656 283.175781 143.300781 279.390625 C 144.875 275.609375 146.554688 271.824219 148.238281 268.144531 C 150.023438 264.46875 151.808594 260.789062 153.804688 257.214844 C 155.800781 253.640625 157.796875 250.070312 159.894531 246.496094 C 161.996094 243.027344 164.203125 239.558594 166.511719 236.089844 C 168.824219 232.726562 171.132812 229.363281 173.550781 226 C 175.964844 222.742188 178.488281 219.484375 181.113281 216.332031 C 183.738281 213.179688 186.363281 210.023438 189.097656 206.976562 C 191.828125 203.929688 194.664062 200.988281 197.605469 198.042969 C 200.546875 195.101562 203.484375 192.367188 206.53125 189.53125 C 209.578125 186.691406 212.625 184.066406 215.878906 181.542969 C 219.136719 179.019531 222.289062 176.394531 225.542969 173.976562 C 228.800781 171.558594 232.160156 169.140625 235.628906 166.933594 C 239.09375 164.726562 242.453125 162.414062 246.027344 160.3125 C 249.597656 158.210938 253.0625 156.214844 256.738281 154.21875 C 260.414062 152.21875 263.988281 150.433594 267.769531 148.648438 C 271.550781 146.859375 275.226562 145.285156 279.007812 143.707031 C 282.789062 142.128906 286.570312 140.660156 290.457031 139.292969 C 294.34375 137.925781 298.230469 136.664062 302.117188 135.402344 C 306 134.246094 309.992188 133.089844 313.984375 132.144531 C 317.976562 131.199219 321.96875 130.253906 325.957031 129.414062 C 329.949219 128.574219 334.046875 127.941406 338.039062 127.3125 C 342.03125 126.679688 346.125 126.261719 350.222656 125.839844 C 354.320312 125.417969 358.414062 125.105469 362.511719 124.894531 C 366.609375 124.683594 370.703125 124.472656 374.800781 124.472656 Z M 246.972656 196.675781 C 246.339844 195.941406 245.710938 195.3125 244.976562 194.679688 C 244.242188 194.050781 243.398438 193.628906 242.664062 193.210938 C 241.824219 192.789062 240.984375 192.472656 240.039062 192.160156 C 239.09375 191.949219 238.253906 191.738281 237.308594 191.632812 C 236.363281 191.527344 235.417969 191.527344 234.472656 191.632812 C 233.527344 191.738281 232.582031 191.949219 231.742188 192.261719 C 230.902344 192.578125 229.957031 192.894531 229.113281 193.417969 C 228.273438 193.839844 227.539062 194.367188 226.804688 194.996094 C 220.710938 200.144531 214.933594 205.714844 209.367188 211.496094 C 208.738281 212.234375 208.109375 212.96875 207.6875 213.703125 C 207.164062 214.542969 206.742188 215.386719 206.425781 216.226562 C 206.113281 217.066406 205.796875 218.011719 205.691406 218.957031 C 205.585938 219.90625 205.480469 220.851562 205.480469 221.796875 C 205.480469 222.742188 205.585938 223.6875 205.796875 224.632812 C 206.007812 225.582031 206.320312 226.421875 206.742188 227.261719 C 207.164062 228.101562 207.582031 228.945312 208.109375 229.679688 C 208.632812 230.414062 209.261719 231.152344 210 231.78125 C 210.734375 232.410156 211.46875 233.042969 212.203125 233.460938 C 213.042969 233.988281 213.882812 234.410156 214.726562 234.722656 C 215.566406 235.039062 216.511719 235.355469 217.457031 235.460938 C 218.402344 235.667969 219.347656 235.667969 220.292969 235.667969 C 221.238281 235.667969 222.183594 235.566406 223.128906 235.355469 C 224.074219 235.144531 224.914062 234.828125 225.753906 234.515625 C 226.59375 234.09375 227.433594 233.671875 228.167969 233.148438 C 228.90625 232.621094 229.640625 231.992188 230.269531 231.253906 C 234.996094 226.210938 240.144531 221.480469 245.394531 216.960938 C 246.128906 216.332031 246.761719 215.699219 247.390625 214.964844 C 248.023438 214.230469 248.441406 213.492188 248.96875 212.546875 C 249.386719 211.707031 249.703125 210.867188 250.015625 209.921875 C 250.332031 208.972656 250.4375 208.132812 250.542969 207.1875 C 250.648438 206.242188 250.542969 205.296875 250.542969 204.351562 C 250.4375 203.402344 250.226562 202.457031 249.914062 201.617188 C 249.597656 200.777344 249.28125 199.832031 248.757812 198.988281 C 248.125 198.148438 247.601562 197.414062 246.972656 196.675781 Z M 421.859375 150.011719 C 416.082031 148.542969 410.304688 147.28125 404.421875 146.230469 C 398.539062 145.179688 392.65625 144.441406 386.671875 143.917969 C 380.683594 143.390625 374.800781 143.078125 368.8125 143.078125 C 362.828125 143.078125 356.945312 143.285156 350.957031 143.707031 C 344.96875 144.128906 339.089844 144.863281 333.207031 145.808594 C 327.324219 146.753906 321.441406 147.910156 315.664062 149.382812 C 309.886719 150.855469 304.109375 152.535156 298.542969 154.425781 C 292.871094 156.320312 287.304688 158.421875 281.84375 160.839844 C 281.109375 161.152344 280.476562 161.46875 279.847656 161.890625 C 279.21875 162.308594 278.585938 162.730469 277.957031 163.253906 C 277.328125 163.78125 276.800781 164.304688 276.382812 164.9375 C 275.960938 165.566406 275.4375 166.199219 275.121094 166.828125 C 274.699219 167.460938 274.386719 168.195312 274.175781 168.929688 C 273.859375 169.667969 273.652344 170.402344 273.546875 171.136719 C 273.441406 171.875 273.335938 172.714844 273.230469 173.449219 C 273.230469 174.1875 273.230469 175.027344 273.335938 175.761719 C 273.441406 176.5 273.546875 177.339844 273.753906 178.074219 C 273.964844 178.808594 274.28125 179.546875 274.597656 180.28125 C 274.910156 181.019531 275.332031 181.648438 275.75 182.277344 C 276.171875 182.910156 276.695312 183.539062 277.222656 184.066406 C 277.746094 184.589844 278.378906 185.117188 278.902344 185.640625 C 279.53125 186.0625 280.164062 186.484375 280.898438 186.902344 C 281.527344 187.21875 282.261719 187.535156 283 187.847656 C 283.734375 188.164062 284.46875 188.269531 285.203125 188.375 C 287.9375 188.796875 290.5625 188.480469 293.082031 187.324219 C 302.640625 183.226562 312.410156 179.863281 322.492188 177.445312 C 332.578125 175.027344 342.765625 173.34375 353.058594 172.503906 C 363.351562 171.664062 373.75 171.769531 384.042969 172.714844 C 394.335938 173.660156 404.527344 175.34375 414.609375 177.96875 C 415.554688 178.179688 416.5 178.390625 417.339844 178.390625 C 418.179688 178.390625 419.230469 178.390625 420.175781 178.285156 C 421.121094 178.179688 422.066406 177.96875 422.90625 177.65625 C 423.75 177.339844 424.695312 176.917969 425.429688 176.5 C 426.269531 175.972656 427.003906 175.445312 427.738281 174.816406 C 428.476562 174.1875 429.105469 173.449219 429.628906 172.714844 C 430.15625 171.980469 430.679688 171.136719 431.101562 170.296875 C 431.519531 169.457031 431.835938 168.511719 432.046875 167.667969 C 432.257812 166.828125 432.464844 165.777344 432.464844 164.832031 C 432.464844 163.886719 432.464844 162.941406 432.359375 161.996094 C 432.257812 161.046875 432.046875 160.101562 431.730469 159.261719 C 431.414062 158.421875 430.996094 157.476562 430.574219 156.738281 C 430.050781 155.898438 429.523438 155.164062 428.894531 154.425781 C 428.265625 153.691406 427.53125 153.0625 426.792969 152.535156 C 426.058594 152.011719 425.21875 151.484375 424.378906 151.0625 C 423.539062 150.644531 422.804688 150.328125 421.855469 150.011719 Z M 384.78125 595.429688 C 625 584.707031 538.660156 361.476562 538.660156 361.476562 C 546.957031 124.472656 437.085938 297.46875 437.085938 297.46875 C 398.855469 281.808594 358.519531 282.441406 358.519531 282.441406 C 358.519531 282.441406 337.933594 206.871094 309.152344 210.128906 C 280.371094 213.386719 264.511719 301.460938 264.511719 301.460938 C 129.226562 367.359375 151.808594 605.832031 384.78125 595.429688 Z M 384.78125 595.429688 " fill-opacity="1" fill-rule="nonzero"/></g><path fill="#000000" d="M 265.351562 482.339844 C 266.089844 482.128906 266.824219 482.128906 267.453125 482.234375 C 268.082031 482.339844 268.820312 482.550781 269.449219 482.867188 C 270.078125 483.183594 270.605469 483.707031 271.023438 484.234375 C 271.445312 484.757812 271.761719 485.492188 271.96875 486.125 C 273.441406 491.484375 275.855469 494.847656 279.324219 496.214844 C 285.414062 498.632812 294.238281 495.164062 298.648438 492.851562 C 295.5 474.457031 301.378906 453.542969 301.695312 452.28125 C 301.800781 451.964844 301.90625 451.757812 302.011719 451.441406 C 298.648438 448.917969 296.023438 445.765625 294.238281 441.980469 C 294.027344 441.457031 293.816406 440.929688 293.710938 440.40625 C 293.609375 439.878906 293.609375 439.355469 293.710938 438.828125 C 293.710938 438.304688 293.921875 437.777344 294.132812 437.253906 C 294.34375 436.726562 294.65625 436.308594 294.972656 435.886719 C 295.289062 435.464844 295.707031 435.046875 296.128906 434.835938 C 296.546875 434.625 297.074219 434.308594 297.597656 434.101562 C 298.125 433.890625 298.648438 433.890625 299.175781 433.785156 C 299.699219 433.679688 300.226562 433.785156 300.75 433.996094 L 320.601562 439.039062 C 321.652344 439.355469 322.597656 439.878906 323.332031 440.722656 C 324.066406 441.5625 324.59375 442.507812 324.804688 443.558594 C 325.011719 444.609375 324.910156 445.765625 324.488281 446.710938 C 324.066406 447.65625 323.4375 448.605469 322.492188 449.234375 C 319.445312 451.546875 316.085938 453.019531 312.410156 453.859375 C 312.410156 454.382812 312.410156 454.910156 312.199219 455.433594 C 309.363281 465.523438 304.320312 494.21875 315.664062 504.832031 C 321.757812 510.613281 332.679688 510.824219 348.121094 505.464844 C 348.855469 505.253906 349.488281 505.148438 350.222656 505.148438 C 350.957031 505.148438 351.691406 505.359375 352.324219 505.671875 C 352.953125 505.988281 353.582031 506.410156 354.003906 506.933594 C 354.527344 507.460938 354.84375 508.089844 355.054688 508.828125 C 355.265625 509.5625 355.367188 510.191406 355.367188 510.929688 C 355.367188 511.664062 355.160156 512.398438 354.84375 513.03125 C 354.527344 513.660156 354.109375 514.292969 353.582031 514.710938 C 353.058594 515.238281 352.429688 515.550781 351.691406 515.761719 C 344.339844 518.496094 336.777344 519.96875 328.898438 520.175781 C 327.007812 520.28125 325.117188 520.175781 323.226562 519.863281 C 321.335938 519.546875 319.550781 519.125 317.765625 518.496094 C 315.980469 517.863281 314.300781 517.023438 312.617188 516.078125 C 311.042969 515.132812 309.46875 513.976562 308.101562 512.714844 C 305.371094 510.085938 303.269531 507.039062 301.695312 503.570312 C 296.128906 506.304688 290.246094 507.773438 284.050781 507.984375 C 281.003906 507.984375 278.0625 507.460938 275.226562 506.410156 C 268.292969 503.675781 263.671875 497.789062 261.152344 488.960938 C 260.941406 488.226562 260.941406 487.597656 261.046875 486.859375 C 261.152344 486.125 261.359375 485.492188 261.78125 484.863281 C 262.203125 484.234375 262.621094 483.707031 263.25 483.285156 C 264.09375 482.867188 264.722656 482.550781 265.351562 482.339844 Z M 265.351562 482.339844 " fill-opacity="1" fill-rule="nonzero"/><path fill="#000000" d="M 512.292969 338.667969 L 464.605469 313.128906 C 464.605469 313.128906 522.167969 201.195312 512.292969 338.667969 Z M 512.292969 338.667969 " fill-opacity="1" fill-rule="nonzero"/><path fill="#000000" d="M 273.546875 387.75 C 286.78125 393.320312 292.664062 411.503906 288.25 422.011719 C 283.839844 432.523438 270.289062 429.476562 257.054688 423.90625 C 243.925781 418.335938 236.046875 412.449219 240.460938 401.832031 C 244.871094 391.113281 260.3125 382.179688 273.546875 387.75 Z M 273.546875 387.75 " fill-opacity="1" fill-rule="nonzero"/><path fill="#000000" d="M 289.617188 298.519531 C 289.617188 298.519531 309.46875 191.632812 330.265625 290.425781 C 330.265625 290.53125 308.207031 287.589844 289.617188 298.519531 Z M 289.617188 298.519531 " fill-opacity="1" fill-rule="nonzero"/><path fill="#000000" d="M 391.816406 411.921875 C 411.667969 408.875 430.679688 421.699219 432.464844 433.890625 C 434.355469 445.976562 416.289062 450.914062 396.332031 453.964844 C 376.375 457.011719 361.988281 457.011719 360.199219 444.925781 C 358.414062 432.839844 371.859375 414.972656 391.816406 411.921875 Z M 391.816406 411.921875 " fill-opacity="1" fill-rule="nonzero"/><g clip-path="url(#22dd6cfe74)"><path fill="#0d0d0d" d="M 98.871094 534.96875 L 124.875 546.9375 C 159.707031 562.976562 199.4375 537.527344 199.4375 499.183594 L 199.4375 357.214844 C 199.4375 329.089844 177.671875 307.066406 151.390625 304.824219 C 151.480469 301.832031 151.570312 298.839844 151.714844 295.871094 C 152.457031 280.453125 154 265.363281 156.875 250.558594 C 157.679688 246.875 158.40625 243.175781 159.253906 239.5 L 160.648438 234.011719 C 160.921875 233.109375 161.011719 232.15625 161.472656 231.300781 C 161.945312 230.449219 162.523438 229.636719 162.265625 228.582031 L 160.148438 222.023438 L 157.769531 215.222656 C 157.492188 214.390625 157.195312 213.539062 156.902344 212.691406 C 169.925781 180.421875 191.335938 151.816406 218.714844 129.082031 C 227.429688 134.644531 238.890625 134.71875 247.925781 128.699219 C 284.617188 104.253906 328.925781 91 375.039062 91 C 421.148438 91 465.457031 104.253906 502.148438 128.699219 C 511.183594 134.71875 522.644531 134.644531 531.359375 129.082031 C 558.742188 151.816406 580.152344 180.421875 593.171875 212.691406 C 592.878906 213.539062 592.582031 214.390625 592.304688 215.222656 L 589.921875 222.023438 L 587.804688 228.582031 C 587.550781 229.636719 588.128906 230.449219 588.601562 231.300781 C 589.0625 232.15625 589.148438 233.109375 589.425781 234.011719 L 590.816406 239.5 C 591.667969 243.175781 592.394531 246.875 593.199219 250.558594 C 596.074219 265.363281 597.617188 280.453125 598.359375 295.871094 C 598.503906 298.839844 598.59375 301.832031 598.683594 304.824219 C 572.398438 307.066406 550.636719 329.089844 550.636719 357.214844 L 550.636719 499.183594 C 550.636719 537.527344 590.367188 562.976562 625.195312 546.9375 L 651.203125 534.96875 C 669.847656 526.382812 681.789062 507.734375 681.789062 487.210938 L 681.789062 363.199219 C 681.789062 338.707031 664.878906 317.460938 641.007812 311.964844 L 634.230469 310.40625 C 634.125 305.011719 633.976562 299.597656 633.714844 294.148438 C 632.917969 277.507812 631.203125 260.578125 627.953125 243.859375 C 627.0625 239.699219 626.230469 235.523438 625.269531 231.378906 L 623.707031 225.199219 C 623.484375 224.15625 623.078125 223.164062 623.050781 222.074219 C 623.027344 220.980469 623.136719 219.84375 622.277344 218.980469 C 620.480469 217.285156 618.59375 215.632812 616.746094 214 C 614.773438 212.402344 612.980469 210.773438 610.882812 209.277344 C 610.859375 209.257812 610.832031 209.238281 610.804688 209.222656 C 596.742188 172.765625 572.917969 140.515625 542.210938 115.128906 C 545.871094 104.152344 542.070312 91.515625 531.800781 84.65625 C 486.386719 54.34375 431.738281 37.902344 375.039062 37.902344 C 318.332031 37.902344 263.6875 54.34375 218.273438 84.65625 C 208.003906 91.515625 204.203125 104.152344 207.863281 115.128906 C 177.160156 140.515625 153.332031 172.765625 139.269531 209.222656 C 139.242188 209.238281 139.214844 209.257812 139.191406 209.277344 C 137.09375 210.773438 135.300781 212.402344 133.328125 214 C 131.476562 215.632812 129.59375 217.285156 127.792969 218.980469 C 126.9375 219.84375 127.046875 220.980469 127.023438 222.074219 C 126.996094 223.164062 126.589844 224.15625 126.367188 225.199219 L 124.800781 231.378906 C 123.84375 235.523438 123.015625 239.699219 122.121094 243.859375 C 118.871094 260.578125 117.160156 277.507812 116.359375 294.148438 C 116.097656 299.597656 115.949219 305.011719 115.84375 310.40625 L 109.0625 311.964844 C 85.195312 317.460938 68.28125 338.707031 68.28125 363.199219 L 68.28125 487.210938 C 68.28125 507.734375 80.226562 526.382812 98.871094 534.96875 " fill-opacity="1" fill-rule="nonzero"/></g><path fill="#0d0d0d" d="M 458.304688 679.472656 C 450.054688 679.472656 441.457031 679.417969 432.496094 679.359375 C 422.617188 679.296875 412.269531 679.230469 401.429688 679.230469 L 401.429688 659.507812 C 412.3125 659.507812 422.707031 659.578125 432.621094 659.640625 C 502.800781 660.097656 549.148438 660.402344 574.945312 634.769531 C 599.59375 610.285156 609.644531 559.511719 609.644531 459.523438 L 629.363281 459.523438 C 629.363281 566.734375 618.003906 619.789062 588.84375 648.757812 C 561 676.421875 519.1875 679.472656 458.304688 679.472656 " fill-opacity="1" fill-rule="nonzero"/><g clip-path="url(#38df58cba5)"><path fill="#0d0d0d" d="M 377.039062 626.570312 L 409.214844 626.570312 C 432.851562 626.570312 452.015625 645.730469 452.015625 669.367188 C 452.015625 693.007812 432.851562 712.167969 409.214844 712.167969 L 377.039062 712.167969 C 353.398438 712.167969 334.238281 693.007812 334.238281 669.367188 C 334.238281 645.730469 353.398438 626.570312 377.039062 626.570312 " fill-opacity="1" fill-rule="nonzero"/></g></svg>