<svg width="523" height="154" viewBox="0 0 523 154" fill="none" xmlns="http://www.w3.org/2000/svg">
<g filter="url(#filter0_d_533_654)">
<rect x="49" y="39" width="435" height="76" rx="26" fill="#494D56"/>
<path d="M79.9416 84.3C78.755 84.3 77.795 84 77.0616 83.4C76.3416 82.8 75.9816 81.9533 75.9816 80.86C75.9816 80.14 76.1616 79.5067 76.5216 78.96C76.895 78.4133 77.415 77.9867 78.0816 77.68C78.7616 77.3733 79.555 77.22 80.4616 77.22C81.755 77.22 82.875 77.44 83.8216 77.88V77.4C83.8216 76.5733 83.575 75.9667 83.0816 75.58C82.6016 75.18 81.8216 74.98 80.7416 74.98C80.0883 74.98 79.4416 75.0467 78.8016 75.18C78.175 75.3133 77.6283 75.4933 77.1616 75.72V73.74C77.5883 73.54 78.175 73.3667 78.9216 73.22C79.6816 73.0733 80.4216 73 81.1416 73C82.2216 73 83.155 73.1667 83.9416 73.5L84.8216 72.5H87.6216L85.5616 74.86C86.0816 75.4467 86.3416 76.2733 86.3416 77.34V84H83.8216V79.88C82.9283 79.4267 81.9083 79.2 80.7616 79.2C80.015 79.2 79.455 79.3467 79.0816 79.64C78.7216 79.92 78.5416 80.3333 78.5416 80.88C78.5416 81.3733 78.7083 81.74 79.0416 81.98C79.375 82.2067 79.9016 82.32 80.6216 82.32C81.075 82.32 81.4683 82.2533 81.8016 82.12V84.06C81.3083 84.22 80.6883 84.3 79.9416 84.3ZM92.7937 84.3C91.047 84.3 89.7203 84.0133 88.8137 83.44V81.44C89.6403 82.0267 90.7937 82.32 92.2737 82.32C93.487 82.32 94.427 82.02 95.0937 81.42C95.7603 80.8067 96.0937 79.8867 96.0937 78.66C96.0937 77.4333 95.7603 76.5133 95.0937 75.9C94.427 75.2867 93.487 74.98 92.2737 74.98C90.8737 74.98 89.7403 75.2733 88.8737 75.86V73.86C89.7937 73.2867 91.1003 73 92.7937 73C94.6337 73 96.0737 73.5 97.1137 74.5C98.167 75.4867 98.6937 76.8733 98.6937 78.66C98.6937 80.4333 98.167 81.82 97.1137 82.82C96.0603 83.8067 94.6203 84.3 92.7937 84.3ZM94.258 71.84C93.6314 71.84 93.178 71.68 92.898 71.36C92.6047 71.04 92.458 70.56 92.458 69.92V68.76H94.738V69.68C94.738 69.8933 94.778 70.04 94.858 70.12C94.938 70.1867 95.0847 70.22 95.298 70.22H100.058V71.84H94.258ZM104.258 84.3C103.071 84.3 102.111 84 101.378 83.4C100.658 82.8 100.298 81.9533 100.298 80.86C100.298 80.14 100.478 79.5067 100.838 78.96C101.211 78.4133 101.731 77.9867 102.398 77.68C103.078 77.3733 103.871 77.22 104.778 77.22C106.071 77.22 107.191 77.44 108.138 77.88V77.4C108.138 76.5733 107.891 75.9667 107.398 75.58C106.918 75.18 106.138 74.98 105.058 74.98C104.405 74.98 103.758 75.0467 103.118 75.18C102.491 75.3133 101.945 75.4933 101.478 75.72V73.74C101.905 73.54 102.491 73.3667 103.238 73.22C103.998 73.0733 104.738 73 105.458 73C106.538 73 107.471 73.1667 108.258 73.5L109.138 72.5H111.938L109.878 74.86C110.398 75.4467 110.658 76.2733 110.658 77.34V84H108.138V79.88C107.245 79.4267 106.225 79.2 105.078 79.2C104.331 79.2 103.771 79.3467 103.398 79.64C103.038 79.92 102.858 80.3333 102.858 80.88C102.858 81.3733 103.025 81.74 103.358 81.98C103.691 82.2067 104.218 82.32 104.938 82.32C105.391 82.32 105.785 82.2533 106.118 82.12V84.06C105.625 84.22 105.005 84.3 104.258 84.3ZM118.39 84.3C116.763 84.3 115.477 83.8467 114.53 82.94C113.597 82.02 113.13 80.68 113.13 78.92C113.13 77.6933 113.37 76.64 113.85 75.76C114.343 74.8667 115.043 74.1867 115.95 73.72C116.87 73.24 117.95 73 119.19 73C121.15 73 122.583 73.4533 123.49 74.36C124.397 75.2667 124.85 76.4467 124.85 77.9V84H122.31V77.88C122.31 76.9467 122.063 76.2333 121.57 75.74C121.09 75.2333 120.297 74.98 119.19 74.98C118.123 74.98 117.277 75.3267 116.65 76.02C116.037 76.7 115.73 77.6667 115.73 78.92C115.73 80.0667 115.997 80.92 116.53 81.48C117.063 82.04 117.83 82.32 118.83 82.32C119.323 82.32 119.783 82.2533 120.21 82.12V84.06C119.69 84.22 119.083 84.3 118.39 84.3ZM115.941 70.22H122.601V68.06H124.881V71.84H115.941V70.22ZM127.241 77.52C127.241 76.08 127.714 74.9667 128.661 74.18C129.621 73.3933 130.914 73 132.541 73C134.168 73 135.454 73.3933 136.401 74.18C137.348 74.9667 137.821 76.08 137.821 77.52V84H135.281V77.42C135.281 76.6067 135.041 76 134.561 75.6C134.094 75.1867 133.421 74.98 132.541 74.98C131.661 74.98 130.981 75.18 130.501 75.58C130.021 75.98 129.781 76.5933 129.781 77.42V79.18C129.954 78.9 130.208 78.6733 130.541 78.5C130.888 78.3267 131.288 78.24 131.741 78.24H133.361V80.36H131.561C131.041 80.36 130.614 80.5333 130.281 80.88C129.948 81.2133 129.781 81.62 129.781 82.1V84H127.241V77.52ZM144.049 84.3C143.289 84.3 142.516 84.22 141.729 84.06C140.956 83.9 140.349 83.66 139.909 83.34V81.36C140.496 81.7067 141.143 81.9667 141.849 82.14C142.569 82.3133 143.229 82.4 143.829 82.4C144.629 82.4 145.203 82.32 145.549 82.16C145.909 82 146.089 81.7 146.089 81.26C146.089 80.9533 145.996 80.7133 145.809 80.54C145.623 80.3533 145.369 80.2 145.049 80.08C144.729 79.96 144.129 79.7667 143.249 79.5C142.103 79.14 141.243 78.7067 140.669 78.2C140.109 77.6933 139.829 77.0067 139.829 76.14C139.829 75.14 140.229 74.3667 141.029 73.82C141.829 73.2733 142.909 73 144.269 73C144.989 73 145.676 73.08 146.329 73.24C146.996 73.3867 147.543 73.5867 147.969 73.84V75.92C147.529 75.64 146.996 75.4133 146.369 75.24C145.756 75.0667 145.136 74.98 144.509 74.98C143.083 74.98 142.369 75.3667 142.369 76.14C142.369 76.42 142.456 76.6467 142.629 76.82C142.803 76.9933 143.036 77.14 143.329 77.26C143.623 77.3667 144.069 77.5133 144.669 77.7L145.329 77.9C146.183 78.1667 146.843 78.4533 147.309 78.76C147.789 79.0667 148.123 79.42 148.309 79.82C148.509 80.22 148.609 80.7133 148.609 81.3C148.609 82.1933 148.229 82.92 147.469 83.48C146.709 84.0267 145.569 84.3 144.049 84.3ZM139.3 70.22H145.96V68.06H148.24V71.84H139.3V70.22ZM155.96 84.3C154.894 84.3 153.954 84.1067 153.14 83.72C152.34 83.3333 151.72 82.8 151.28 82.12C150.854 81.4267 150.64 80.64 150.64 79.76V73.3H153.18V79.66C153.18 80.5 153.414 81.1533 153.88 81.62C154.347 82.0867 155.04 82.32 155.96 82.32C156.867 82.32 157.554 82.0867 158.02 81.62C158.487 81.1533 158.72 80.5 158.72 79.66V73.3H161.26V79.76C161.26 80.64 161.04 81.4267 160.6 82.12C160.174 82.8 159.56 83.3333 158.76 83.72C157.96 84.1067 157.027 84.3 155.96 84.3ZM177.014 84.3C176.347 84.3 175.687 84.1667 175.034 83.9C174.394 83.62 173.82 83.2133 173.314 82.68V84H170.874V73.3H173.414V80.68C174.107 81.7733 175.067 82.32 176.294 82.32C177.867 82.32 178.654 81.5867 178.654 80.12V73.3H181.174V80.24C181.174 81 181.007 81.6933 180.674 82.32C180.354 82.9333 179.88 83.42 179.254 83.78C178.627 84.1267 177.88 84.3 177.014 84.3ZM172.269 70.22H178.929V68.06H181.209V71.84H172.269V70.22ZM187.749 84.3C186.896 84.3 186.056 84.2067 185.229 84.02C184.402 83.8333 183.716 83.5733 183.169 83.24V77.64H187.969V79.7H185.709V81.92C186.202 82.1867 186.882 82.32 187.749 82.32C188.922 82.32 189.809 82 190.409 81.36C191.009 80.72 191.309 79.7867 191.309 78.56C191.309 77.72 191.176 77.04 190.909 76.52C190.642 76 190.202 75.6133 189.589 75.36C188.976 75.1067 188.149 74.98 187.109 74.98C186.429 74.98 185.736 75.0533 185.029 75.2C184.336 75.3333 183.756 75.5333 183.289 75.8V73.82C183.822 73.5533 184.456 73.3533 185.189 73.22C185.936 73.0733 186.722 73 187.549 73C189.576 73 191.142 73.4867 192.249 74.46C193.356 75.42 193.909 76.7867 193.909 78.56C193.909 80.3333 193.376 81.7333 192.309 82.76C191.256 83.7867 189.736 84.3 187.749 84.3ZM197.253 77.62C196.613 77.62 196.16 77.4733 195.893 77.18C195.64 76.8867 195.513 76.4333 195.513 75.82V74.54H197.793V75.36C197.793 75.56 197.833 75.7 197.913 75.78C198.006 75.86 198.16 75.9 198.373 75.9H200.733V77.62H197.253ZM197.253 83.04C196.613 83.04 196.16 82.8933 195.893 82.6C195.64 82.3067 195.513 81.8533 195.513 81.24V79.96H197.793V80.78C197.793 80.98 197.833 81.12 197.913 81.2C198.006 81.28 198.16 81.32 198.373 81.32H200.733V83.04H197.253ZM205.509 84C204.816 84 204.283 83.8067 203.909 83.42C203.549 83.02 203.369 82.4667 203.369 81.76V74.54C203.369 72.94 203.856 71.7867 204.829 71.08H201.429V68.96H208.149V70.94C207.363 71.26 206.789 71.6933 206.429 72.24C206.083 72.7733 205.909 73.52 205.909 74.48V80.96C205.909 81.3067 205.983 81.5467 206.129 81.68C206.276 81.8133 206.516 81.88 206.849 81.88H207.549V84H205.509ZM213.366 84.3C212.606 84.3 211.832 84.22 211.046 84.06C210.272 83.9 209.666 83.66 209.226 83.34V81.36C209.812 81.7067 210.459 81.9667 211.166 82.14C211.886 82.3133 212.546 82.4 213.146 82.4C213.946 82.4 214.519 82.32 214.866 82.16C215.226 82 215.406 81.7 215.406 81.26C215.406 80.9533 215.312 80.7133 215.126 80.54C214.939 80.3533 214.686 80.2 214.366 80.08C214.046 79.96 213.446 79.7667 212.566 79.5C211.419 79.14 210.559 78.7067 209.986 78.2C209.426 77.6933 209.146 77.0067 209.146 76.14C209.146 75.14 209.546 74.3667 210.346 73.82C211.146 73.2733 212.226 73 213.586 73C214.306 73 214.992 73.08 215.646 73.24C216.312 73.3867 216.859 73.5867 217.286 73.84V75.92C216.846 75.64 216.312 75.4133 215.686 75.24C215.072 75.0667 214.452 74.98 213.826 74.98C212.399 74.98 211.686 75.3667 211.686 76.14C211.686 76.42 211.772 76.6467 211.946 76.82C212.119 76.9933 212.352 77.14 212.646 77.26C212.939 77.3667 213.386 77.5133 213.986 77.7L214.646 77.9C215.499 78.1667 216.159 78.4533 216.626 78.76C217.106 79.0667 217.439 79.42 217.626 79.82C217.826 80.22 217.926 80.7133 217.926 81.3C217.926 82.1933 217.546 82.92 216.786 83.48C216.026 84.0267 214.886 84.3 213.366 84.3ZM223.477 84.3C222.29 84.3 221.33 84 220.597 83.4C219.877 82.8 219.517 81.9533 219.517 80.86C219.517 80.14 219.697 79.5067 220.057 78.96C220.43 78.4133 220.95 77.9867 221.617 77.68C222.297 77.3733 223.09 77.22 223.997 77.22C225.29 77.22 226.41 77.44 227.357 77.88V77.4C227.357 76.5733 227.11 75.9667 226.617 75.58C226.137 75.18 225.357 74.98 224.277 74.98C223.623 74.98 222.977 75.0467 222.337 75.18C221.71 75.3133 221.163 75.4933 220.697 75.72V73.74C221.123 73.54 221.71 73.3667 222.457 73.22C223.217 73.0733 223.957 73 224.677 73C225.757 73 226.69 73.1667 227.477 73.5L228.357 72.5H231.157L229.097 74.86C229.617 75.4467 229.877 76.2733 229.877 77.34V84H227.357V79.88C226.463 79.4267 225.443 79.2 224.297 79.2C223.55 79.2 222.99 79.3467 222.617 79.64C222.257 79.92 222.077 80.3333 222.077 80.88C222.077 81.3733 222.243 81.74 222.577 81.98C222.91 82.2067 223.437 82.32 224.157 82.32C224.61 82.32 225.003 82.2533 225.337 82.12V84.06C224.843 84.22 224.223 84.3 223.477 84.3ZM232.349 74.64H234.889L237.229 82.02C238.349 82.02 239.209 81.7067 239.809 81.08C240.422 80.44 240.729 79.5333 240.729 78.36C240.729 77.2267 240.522 76.38 240.109 75.82C239.695 75.26 239.035 74.98 238.129 74.98C237.635 74.98 237.175 75.0467 236.749 75.18V73.24C237.269 73.08 237.875 73 238.569 73C240.129 73 241.309 73.4733 242.109 74.42C242.922 75.3667 243.329 76.68 243.329 78.36C243.329 79.5333 243.069 80.5467 242.549 81.4C242.042 82.2533 241.355 82.9 240.489 83.34C239.622 83.78 238.662 84 237.609 84H235.309L232.349 74.64ZM248.887 84.3C247.7 84.3 246.74 84 246.007 83.4C245.287 82.8 244.927 81.9533 244.927 80.86C244.927 80.14 245.107 79.5067 245.467 78.96C245.84 78.4133 246.36 77.9867 247.027 77.68C247.707 77.3733 248.5 77.22 249.407 77.22C250.7 77.22 251.82 77.44 252.767 77.88V77.4C252.767 76.5733 252.52 75.9667 252.027 75.58C251.547 75.18 250.767 74.98 249.687 74.98C249.034 74.98 248.387 75.0467 247.747 75.18C247.12 75.3133 246.574 75.4933 246.107 75.72V73.74C246.534 73.54 247.12 73.3667 247.867 73.22C248.627 73.0733 249.367 73 250.087 73C251.167 73 252.1 73.1667 252.887 73.5L253.767 72.5H256.567L254.507 74.86C255.027 75.4467 255.287 76.2733 255.287 77.34V84H252.767V79.88C251.874 79.4267 250.854 79.2 249.707 79.2C248.96 79.2 248.4 79.3467 248.027 79.64C247.667 79.92 247.487 80.3333 247.487 80.88C247.487 81.3733 247.654 81.74 247.987 81.98C248.32 82.2067 248.847 82.32 249.567 82.32C250.02 82.32 250.414 82.2533 250.747 82.12V84.06C250.254 84.22 249.634 84.3 248.887 84.3ZM251.25 71.84C250.624 71.84 250.17 71.68 249.89 71.36C249.597 71.04 249.45 70.56 249.45 69.92V68.76H251.73V69.68C251.73 69.8933 251.77 70.04 251.85 70.12C251.93 70.1867 252.077 70.22 252.29 70.22H257.05V71.84H251.25ZM263.019 84.3C261.432 84.3 260.159 83.9933 259.199 83.38C258.239 82.7667 257.759 81.9 257.759 80.78C257.759 80.2333 257.919 79.74 258.239 79.3C258.559 78.86 258.972 78.5533 259.479 78.38C258.999 78.1533 258.606 77.8267 258.299 77.4C258.006 76.9733 257.859 76.4933 257.859 75.96C257.859 75.0667 258.166 74.3533 258.779 73.82C259.392 73.2733 260.299 73 261.499 73C261.872 73 262.232 73.0267 262.579 73.08C262.926 73.12 263.199 73.1733 263.399 73.24V75.22C263.226 75.14 262.999 75.08 262.719 75.04C262.452 75 262.212 74.98 261.999 74.98C260.972 74.98 260.459 75.36 260.459 76.12C260.459 76.5333 260.586 76.84 260.839 77.04C261.092 77.24 261.499 77.34 262.059 77.34H263.399V79.4H262.059C260.926 79.4 260.359 79.86 260.359 80.78C260.359 81.26 260.592 81.64 261.059 81.92C261.539 82.1867 262.192 82.32 263.019 82.32C264.059 82.32 264.819 82.1067 265.299 81.68C265.792 81.2533 266.039 80.6267 266.039 79.8V73.28H268.579V79.76C268.579 80.52 268.392 81.2467 268.019 81.94C267.659 82.62 267.059 83.1867 266.219 83.64C265.392 84.08 264.326 84.3 263.019 84.3ZM274.531 84.3C273.345 84.3 272.385 84 271.651 83.4C270.931 82.8 270.571 81.9533 270.571 80.86C270.571 80.14 270.751 79.5067 271.111 78.96C271.485 78.4133 272.005 77.9867 272.671 77.68C273.351 77.3733 274.145 77.22 275.051 77.22C276.345 77.22 277.465 77.44 278.411 77.88V77.4C278.411 76.5733 278.165 75.9667 277.671 75.58C277.191 75.18 276.411 74.98 275.331 74.98C274.678 74.98 274.031 75.0467 273.391 75.18C272.765 75.3133 272.218 75.4933 271.751 75.72V73.74C272.178 73.54 272.765 73.3667 273.511 73.22C274.271 73.0733 275.011 73 275.731 73C276.811 73 277.745 73.1667 278.531 73.5L279.411 72.5H282.211L280.151 74.86C280.671 75.4467 280.931 76.2733 280.931 77.34V84H278.411V79.88C277.518 79.4267 276.498 79.2 275.351 79.2C274.605 79.2 274.045 79.3467 273.671 79.64C273.311 79.92 273.131 80.3333 273.131 80.88C273.131 81.3733 273.298 81.74 273.631 81.98C273.965 82.2067 274.491 82.32 275.211 82.32C275.665 82.32 276.058 82.2533 276.391 82.12V84.06C275.898 84.22 275.278 84.3 274.531 84.3ZM287.244 77.16C287.244 76.3733 287.084 75.8133 286.764 75.48C286.457 75.1467 285.897 74.98 285.084 74.98C284.337 74.98 283.577 75.1733 282.804 75.56V73.58C283.124 73.42 283.544 73.2867 284.064 73.18C284.597 73.06 285.117 73 285.624 73C286.997 73 288.03 73.3733 288.724 74.12C289.43 74.8667 289.784 75.9333 289.784 77.32V84H287.244V77.16ZM298.322 84.3C297.656 84.3 296.996 84.1667 296.342 83.9C295.702 83.62 295.129 83.2133 294.622 82.68V84H292.182V73.3H294.722V80.68C295.416 81.7733 296.376 82.32 297.602 82.32C299.176 82.32 299.962 81.5867 299.962 80.12V73.3H302.482V80.24C302.482 81 302.316 81.6933 301.982 82.32C301.662 82.9333 301.189 83.42 300.562 83.78C299.936 84.1267 299.189 84.3 298.322 84.3ZM308.318 77.16C308.318 76.3733 308.158 75.8133 307.838 75.48C307.531 75.1467 306.971 74.98 306.158 74.98C305.411 74.98 304.651 75.1733 303.878 75.56V73.58C304.198 73.42 304.618 73.2867 305.138 73.18C305.671 73.06 306.191 73 306.698 73C308.071 73 309.104 73.3733 309.798 74.12C310.504 74.8667 310.858 75.9333 310.858 77.32V84H308.318V77.16ZM317.077 84.3C316.317 84.3 315.543 84.22 314.757 84.06C313.983 83.9 313.377 83.66 312.937 83.34V81.36C313.523 81.7067 314.17 81.9667 314.877 82.14C315.597 82.3133 316.257 82.4 316.857 82.4C317.657 82.4 318.23 82.32 318.577 82.16C318.937 82 319.117 81.7 319.117 81.26C319.117 80.9533 319.023 80.7133 318.837 80.54C318.65 80.3533 318.397 80.2 318.077 80.08C317.757 79.96 317.157 79.7667 316.277 79.5C315.13 79.14 314.27 78.7067 313.697 78.2C313.137 77.6933 312.857 77.0067 312.857 76.14C312.857 75.14 313.257 74.3667 314.057 73.82C314.857 73.2733 315.937 73 317.297 73C318.017 73 318.703 73.08 319.357 73.24C320.023 73.3867 320.57 73.5867 320.997 73.84V75.92C320.557 75.64 320.023 75.4133 319.397 75.24C318.783 75.0667 318.163 74.98 317.537 74.98C316.11 74.98 315.397 75.3667 315.397 76.14C315.397 76.42 315.483 76.6467 315.657 76.82C315.83 76.9933 316.063 77.14 316.357 77.26C316.65 77.3667 317.097 77.5133 317.697 77.7L318.357 77.9C319.21 78.1667 319.87 78.4533 320.337 78.76C320.817 79.0667 321.15 79.42 321.337 79.82C321.537 80.22 321.637 80.7133 321.637 81.3C321.637 82.1933 321.257 82.92 320.497 83.48C319.737 84.0267 318.597 84.3 317.077 84.3ZM326.408 84C325.701 84 325.161 83.8 324.788 83.4C324.414 83 324.228 82.4533 324.228 81.76V77.48L323.228 75.82C323.961 74.9 324.801 74.2 325.748 73.72C326.708 73.24 327.814 73 329.068 73C330.734 73 332.008 73.3733 332.888 74.12C333.781 74.8667 334.228 75.9 334.228 77.22V84H331.688V77.42C331.688 76.5933 331.468 75.98 331.028 75.58C330.588 75.18 329.934 74.98 329.068 74.98C328.414 74.98 327.834 75.0733 327.328 75.26C326.834 75.4467 326.374 75.7533 325.948 76.18L326.768 77.5V80.94C326.768 81.2867 326.841 81.5333 326.988 81.68C327.148 81.8133 327.408 81.88 327.768 81.88H328.848V84H326.408ZM339.416 84C338.709 84 338.169 83.8 337.796 83.4C337.422 83 337.236 82.4533 337.236 81.76V77.48L336.236 75.82C336.969 74.9 337.809 74.2 338.756 73.72C339.716 73.24 340.822 73 342.076 73C343.742 73 345.016 73.3733 345.896 74.12C346.789 74.8667 347.236 75.9 347.236 77.22V84H344.696V77.42C344.696 76.5933 344.476 75.98 344.036 75.58C343.596 75.18 342.942 74.98 342.076 74.98C341.422 74.98 340.842 75.0733 340.336 75.26C339.842 75.4467 339.382 75.7533 338.956 76.18L339.776 77.5V80.94C339.776 81.2867 339.849 81.5333 339.996 81.68C340.156 81.8133 340.416 81.88 340.776 81.88H341.856V84H339.416ZM353.083 77.16C353.083 76.3733 352.923 75.8133 352.603 75.48C352.297 75.1467 351.737 74.98 350.923 74.98C350.177 74.98 349.417 75.1733 348.643 75.56V73.58C348.963 73.42 349.383 73.2867 349.903 73.18C350.437 73.06 350.957 73 351.463 73C352.837 73 353.87 73.3733 354.563 74.12C355.27 74.8667 355.623 75.9333 355.623 77.32V84H353.083V77.16ZM364.162 84.3C363.496 84.3 362.836 84.1667 362.182 83.9C361.542 83.62 360.969 83.2133 360.462 82.68V84H358.022V73.3H360.562V80.68C361.256 81.7733 362.216 82.32 363.442 82.32C365.016 82.32 365.802 81.5867 365.802 80.12V73.3H368.322V80.24C368.322 81 368.156 81.6933 367.822 82.32C367.502 82.9333 367.029 83.42 366.402 83.78C365.776 84.1267 365.029 84.3 364.162 84.3ZM373.498 84C372.804 84 372.271 83.8067 371.898 83.42C371.538 83.02 371.358 82.4667 371.358 81.76V74.54C371.358 72.94 371.844 71.7867 372.818 71.08H369.418V68.96H376.138V70.94C375.351 71.26 374.778 71.6933 374.418 72.24C374.071 72.7733 373.898 73.52 373.898 74.48V80.96C373.898 81.3067 373.971 81.5467 374.118 81.68C374.264 81.8133 374.504 81.88 374.838 81.88H375.538V84H373.498ZM382.394 84.3C380.767 84.3 379.481 83.8467 378.534 82.94C377.601 82.02 377.134 80.68 377.134 78.92C377.134 77.6933 377.374 76.64 377.854 75.76C378.347 74.8667 379.047 74.1867 379.954 73.72C380.874 73.24 381.954 73 383.194 73C385.154 73 386.587 73.4533 387.494 74.36C388.401 75.2667 388.854 76.4467 388.854 77.9V84H386.314V77.88C386.314 76.9467 386.067 76.2333 385.574 75.74C385.094 75.2333 384.301 74.98 383.194 74.98C382.127 74.98 381.281 75.3267 380.654 76.02C380.041 76.7 379.734 77.6667 379.734 78.92C379.734 80.0667 380.001 80.92 380.534 81.48C381.067 82.04 381.834 82.32 382.834 82.32C383.327 82.32 383.787 82.2533 384.214 82.12V84.06C383.694 84.22 383.087 84.3 382.394 84.3ZM384.285 70.58C384.285 70.4333 384.258 70.3267 384.205 70.26C384.138 70.1933 384.025 70.16 383.865 70.16H382.945V68.4H384.645C385.098 68.4 385.432 68.5133 385.645 68.74C385.858 68.9533 385.965 69.22 385.965 69.54V70.18H390.065V71.84H384.285V70.58ZM393.385 84C392.692 84 392.158 83.8067 391.785 83.42C391.425 83.02 391.245 82.4667 391.245 81.76V73.3H393.785V80.96C393.785 81.3067 393.858 81.5467 394.005 81.68C394.152 81.8133 394.392 81.88 394.725 81.88H395.425V84H393.385ZM400.977 84.3C399.79 84.3 398.83 84 398.097 83.4C397.377 82.8 397.017 81.9533 397.017 80.86C397.017 80.14 397.197 79.5067 397.557 78.96C397.93 78.4133 398.45 77.9867 399.117 77.68C399.797 77.3733 400.59 77.22 401.497 77.22C402.79 77.22 403.91 77.44 404.857 77.88V77.4C404.857 76.5733 404.61 75.9667 404.117 75.58C403.637 75.18 402.857 74.98 401.777 74.98C401.123 74.98 400.477 75.0467 399.837 75.18C399.21 75.3133 398.663 75.4933 398.197 75.72V73.74C398.623 73.54 399.21 73.3667 399.957 73.22C400.717 73.0733 401.457 73 402.177 73C403.91 73 405.21 73.3933 406.077 74.18C406.943 74.9667 407.377 76.02 407.377 77.34V84H404.857V79.88C403.963 79.4267 402.943 79.2 401.797 79.2C401.05 79.2 400.49 79.3467 400.117 79.64C399.757 79.92 399.577 80.3333 399.577 80.88C399.577 81.3733 399.743 81.74 400.077 81.98C400.41 82.2067 400.937 82.32 401.657 82.32C402.11 82.32 402.503 82.2533 402.837 82.12V84.06C402.343 84.22 401.723 84.3 400.977 84.3ZM414.64 84.3C413.053 84.3 411.78 83.9933 410.82 83.38C409.86 82.7667 409.38 81.9 409.38 80.78C409.38 80.2333 409.54 79.74 409.86 79.3C410.18 78.86 410.593 78.5533 411.1 78.38C410.62 78.1533 410.227 77.8267 409.92 77.4C409.627 76.9733 409.48 76.4933 409.48 75.96C409.48 75.0667 409.787 74.3533 410.4 73.82C411.013 73.2733 411.92 73 413.12 73C413.493 73 413.853 73.0267 414.2 73.08C414.547 73.12 414.82 73.1733 415.02 73.24V75.22C414.847 75.14 414.62 75.08 414.34 75.04C414.073 75 413.833 74.98 413.62 74.98C412.593 74.98 412.08 75.36 412.08 76.12C412.08 76.5333 412.207 76.84 412.46 77.04C412.713 77.24 413.12 77.34 413.68 77.34H415.02V79.4H413.68C412.547 79.4 411.98 79.86 411.98 80.78C411.98 81.26 412.213 81.64 412.68 81.92C413.16 82.1867 413.813 82.32 414.64 82.32C415.68 82.32 416.44 82.1067 416.92 81.68C417.413 81.2533 417.66 80.6267 417.66 79.8V73.28H420.2V79.76C420.2 80.52 420.013 81.2467 419.64 81.94C419.28 82.62 418.68 83.1867 417.84 83.64C417.013 84.08 415.947 84.3 414.64 84.3ZM422.593 77.52C422.593 76.08 423.066 74.9667 424.013 74.18C424.973 73.3933 426.266 73 427.893 73C429.519 73 430.806 73.3933 431.753 74.18C432.699 74.9667 433.173 76.08 433.173 77.52V84H430.633V77.42C430.633 76.6067 430.393 76 429.913 75.6C429.446 75.1867 428.773 74.98 427.893 74.98C427.013 74.98 426.333 75.18 425.853 75.58C425.373 75.98 425.133 76.5933 425.133 77.42V79.18C425.306 78.9 425.559 78.6733 425.893 78.5C426.239 78.3267 426.639 78.24 427.093 78.24H428.713V80.36H426.913C426.393 80.36 425.966 80.5333 425.633 80.88C425.299 81.2133 425.133 81.62 425.133 82.1V84H422.593V77.52ZM439.401 84.3C438.641 84.3 437.868 84.22 437.081 84.06C436.308 83.9 435.701 83.66 435.261 83.34V81.36C435.848 81.7067 436.494 81.9667 437.201 82.14C437.921 82.3133 438.581 82.4 439.181 82.4C439.981 82.4 440.554 82.32 440.901 82.16C441.261 82 441.441 81.7 441.441 81.26C441.441 80.9533 441.348 80.7133 441.161 80.54C440.974 80.3533 440.721 80.2 440.401 80.08C440.081 79.96 439.481 79.7667 438.601 79.5C437.454 79.14 436.594 78.7067 436.021 78.2C435.461 77.6933 435.181 77.0067 435.181 76.14C435.181 75.14 435.581 74.3667 436.381 73.82C437.181 73.2733 438.261 73 439.621 73C440.341 73 441.028 73.08 441.681 73.24C442.348 73.3867 442.894 73.5867 443.321 73.84V75.92C442.881 75.64 442.348 75.4133 441.721 75.24C441.108 75.0667 440.488 74.98 439.861 74.98C438.434 74.98 437.721 75.3667 437.721 76.14C437.721 76.42 437.808 76.6467 437.981 76.82C438.154 76.9933 438.388 77.14 438.681 77.26C438.974 77.3667 439.421 77.5133 440.021 77.7L440.681 77.9C441.534 78.1667 442.194 78.4533 442.661 78.76C443.141 79.0667 443.474 79.42 443.661 79.82C443.861 80.22 443.961 80.7133 443.961 81.3C443.961 82.1933 443.581 82.92 442.821 83.48C442.061 84.0267 440.921 84.3 439.401 84.3ZM439.512 71.84C438.885 71.84 438.432 71.68 438.152 71.36C437.859 71.04 437.712 70.56 437.712 69.92V68.76H439.992V69.68C439.992 69.8933 440.032 70.04 440.112 70.12C440.192 70.1867 440.339 70.22 440.552 70.22H445.312V71.84H439.512ZM451.312 84.3C450.245 84.3 449.305 84.1067 448.492 83.72C447.692 83.3333 447.072 82.8 446.632 82.12C446.205 81.4267 445.992 80.64 445.992 79.76V73.3H448.532V79.66C448.532 80.5 448.765 81.1533 449.232 81.62C449.699 82.0867 450.392 82.32 451.312 82.32C452.219 82.32 452.905 82.0867 453.372 81.62C453.839 81.1533 454.072 80.5 454.072 79.66V73.3H456.612V79.76C456.612 80.64 456.392 81.4267 455.952 82.12C455.525 82.8 454.912 83.3333 454.112 83.72C453.312 84.1067 452.379 84.3 451.312 84.3Z" fill="#F2F2F2"/>
<path d="M41.2835 66.572C39.3426 65.4066 39.3426 62.5934 41.2835 61.428L51.2057 55.4703C53.2052 54.2697 55.75 55.7099 55.75 58.0423L55.75 69.9577C55.75 72.2901 53.2052 73.7303 51.2057 72.5297L41.2835 66.572Z" fill="#494D56"/>
</g>
<defs>
<filter id="filter0_d_533_654" x="0.827637" y="0" width="522.172" height="154" filterUnits="userSpaceOnUse" color-interpolation-filters="sRGB">
<feFlood flood-opacity="0" result="BackgroundImageFix"/>
<feColorMatrix in="SourceAlpha" type="matrix" values="0 0 0 0 0 0 0 0 0 0 0 0 0 0 0 0 0 0 127 0" result="hardAlpha"/>
<feOffset/>
<feGaussianBlur stdDeviation="19.5"/>
<feComposite in2="hardAlpha" operator="out"/>
<feColorMatrix type="matrix" values="0 0 0 0 0 0 0 0 0 0 0 0 0 0 0 0 0 0 0.25 0"/>
<feBlend mode="normal" in2="BackgroundImageFix" result="effect1_dropShadow_533_654"/>
<feBlend mode="normal" in="SourceGraphic" in2="effect1_dropShadow_533_654" result="shape"/>
</filter>
</defs>
</svg>
