<svg xmlns="http://www.w3.org/2000/svg" xmlns:xlink="http://www.w3.org/1999/xlink" width="1000" zoomAndPan="magnify" viewBox="0 0 750 749.999995" height="1000" preserveAspectRatio="xMidYMid meet" version="1.0"><defs><clipPath id="ab1814dbff"><path d="M 16.082031 175 L 733.832031 175 L 733.832031 575 L 16.082031 575 Z M 16.082031 175 " clip-rule="nonzero"/></clipPath><clipPath id="e4939de664"><path d="M 552 175 L 733.832031 175 L 733.832031 575 L 552 575 Z M 552 175 " clip-rule="nonzero"/></clipPath></defs><g clip-path="url(#ab1814dbff)"><path fill="#b3ffae" d="M 716.867188 285.265625 C 718.824219 279.804688 724.105469 276.960938 728.28125 273.25 C 728.542969 273.011719 728.796875 272.777344 729.046875 272.535156 C 730.296875 271.335938 731.425781 270.03125 732.265625 268.503906 C 732.429688 268.207031 732.59375 267.894531 732.742188 267.566406 C 733.042969 266.929688 733.277344 266.25 733.472656 265.519531 C 733.753906 264.421875 733.914062 263.234375 733.914062 261.933594 C 733.914062 260.609375 733.753906 259.417969 733.472656 258.324219 C 733.277344 257.597656 733.042969 256.917969 732.742188 256.277344 C 732.59375 255.949219 732.429688 255.640625 732.265625 255.34375 C 731.425781 253.816406 730.296875 252.511719 729.046875 251.308594 C 728.796875 251.070312 728.542969 250.832031 728.28125 250.59375 C 727.496094 249.898438 726.675781 249.230469 725.847656 248.578125 C 725.566406 248.355469 725.28125 248.128906 725.015625 247.921875 C 721.671875 245.296875 718.335938 242.675781 716.867188 238.578125 C 716.722656 238.148438 716.605469 237.699219 716.484375 237.246094 L 716.484375 230.65625 C 716.496094 230.550781 716.53125 230.429688 716.542969 230.332031 C 717.210938 227.789062 718.5625 225.789062 720.238281 224.039062 C 720.472656 223.800781 720.726562 223.550781 720.976562 223.308594 C 722.476562 221.875 724.1875 220.582031 725.847656 219.261719 C 726.125 219.035156 726.394531 218.828125 726.675781 218.609375 C 728.589844 217.050781 730.398438 215.402344 731.734375 213.386719 C 731.914062 213.101562 732.105469 212.804688 732.265625 212.496094 C 732.953125 211.28125 733.457031 209.929688 733.707031 208.386719 C 733.84375 207.613281 733.914062 206.800781 733.914062 205.925781 C 733.914062 205.050781 733.84375 204.21875 733.707031 203.445312 C 733.519531 202.289062 733.1875 201.234375 732.742188 200.269531 C 732.59375 199.957031 732.429688 199.648438 732.265625 199.335938 C 731.925781 198.730469 731.542969 198.152344 731.128906 197.613281 C 730.5 196.78125 729.804688 196.027344 729.046875 195.3125 C 724.773438 191.238281 718.949219 188.386719 716.867188 182.570312 C 716.675781 182.023438 716.53125 181.429688 716.394531 180.824219 L 716.394531 175.035156 L 578.847656 175.035156 C 578.847656 189.425781 567.171875 201.085938 552.78125 201.085938 C 538.402344 201.085938 526.730469 189.425781 526.730469 175.035156 L 16.363281 175.035156 C 16.183594 175.925781 16.082031 176.890625 16.082031 177.929688 C 16.082031 191.933594 33.890625 191.933594 33.890625 205.925781 C 33.890625 219.925781 16.082031 219.925781 16.082031 233.9375 C 16.082031 247.921875 33.890625 247.921875 33.890625 261.933594 C 33.890625 275.933594 16.082031 275.933594 16.082031 289.925781 C 16.082031 303.929688 33.890625 303.929688 33.890625 317.921875 C 33.890625 331.925781 16.082031 331.925781 16.082031 345.933594 C 16.082031 359.921875 33.890625 359.921875 33.890625 373.929688 C 33.890625 387.933594 16.082031 387.933594 16.082031 401.925781 C 16.082031 415.929688 33.890625 415.929688 33.890625 429.933594 C 33.890625 443.941406 16.082031 443.941406 16.082031 457.929688 C 16.082031 471.9375 33.890625 471.9375 33.890625 485.941406 C 33.890625 499.945312 16.082031 499.945312 16.082031 513.9375 C 16.082031 527.9375 33.890625 527.9375 33.890625 541.949219 C 33.890625 555.953125 16.082031 555.953125 16.082031 569.960938 C 16.082031 571.855469 16.410156 573.503906 17.003906 574.957031 L 526.730469 574.957031 C 526.730469 560.566406 538.402344 548.90625 552.78125 548.90625 C 567.171875 548.90625 578.847656 560.566406 578.847656 574.957031 L 717.03125 574.957031 L 717.019531 564.957031 C 717.742188 563.058594 718.886719 561.488281 720.238281 560.0625 C 720.472656 559.828125 720.726562 559.574219 720.976562 559.332031 C 722.476562 557.898438 724.1875 556.609375 725.847656 555.285156 C 726.125 555.066406 726.394531 554.851562 726.675781 554.632812 C 728.589844 553.074219 730.398438 551.425781 731.734375 549.414062 C 731.914062 549.125 732.105469 548.828125 732.265625 548.519531 C 732.953125 547.304688 733.457031 545.953125 733.707031 544.410156 C 733.84375 543.640625 733.914062 542.824219 733.914062 541.949219 C 733.914062 541.074219 733.84375 540.242188 733.707031 539.46875 C 732.03125 529.488281 720.191406 527.496094 716.945312 518.742188 L 716.929688 509.15625 C 717.789062 506.832031 719.238281 504.972656 720.976562 503.332031 C 722.222656 502.125 723.621094 501.027344 725.015625 499.933594 C 725.28125 499.726562 725.566406 499.5 725.847656 499.277344 C 726.675781 498.625 727.496094 497.957031 728.28125 497.257812 C 728.542969 497.023438 728.796875 496.785156 729.046875 496.546875 C 730.296875 495.34375 731.425781 494.042969 732.265625 492.511719 C 732.429688 492.214844 732.59375 491.90625 732.742188 491.578125 C 733.042969 490.941406 733.277344 490.257812 733.472656 489.53125 C 733.753906 488.4375 733.914062 487.246094 733.914062 485.941406 C 733.914062 485.066406 733.84375 484.234375 733.707031 483.460938 C 732.015625 473.390625 719.96875 471.449219 716.855469 462.5 L 716.839844 453.402344 C 717.6875 450.957031 719.183594 449.027344 720.976562 447.324219 C 722.222656 446.117188 723.621094 445.023438 725.015625 443.925781 C 725.28125 443.71875 725.566406 443.492188 725.847656 443.273438 C 726.675781 442.617188 727.496094 441.949219 728.28125 441.253906 C 728.542969 441.015625 728.796875 440.777344 729.046875 440.542969 C 730.296875 439.34375 731.425781 438.035156 732.265625 436.503906 C 732.429688 436.207031 732.59375 435.898438 732.742188 435.574219 C 733.042969 434.933594 733.277344 434.25 733.472656 433.523438 C 733.753906 432.429688 733.914062 431.238281 733.914062 429.933594 C 733.914062 429.058594 733.84375 428.226562 733.707031 427.453125 C 731.988281 417.28125 719.714844 415.398438 716.765625 406.195312 L 716.75 397.679688 C 717.570312 395.101562 719.121094 393.082031 720.976562 391.316406 C 722.222656 390.117188 723.621094 389.015625 725.015625 387.917969 C 725.28125 387.710938 725.566406 387.484375 725.847656 387.265625 C 726.675781 386.617188 727.496094 385.941406 728.28125 385.246094 C 728.542969 385.011719 728.796875 384.769531 729.046875 384.535156 C 730.296875 383.335938 731.425781 382.027344 732.265625 380.503906 C 732.429688 380.207031 732.59375 379.890625 732.742188 379.566406 C 733.042969 378.925781 733.277344 378.242188 733.472656 377.519531 C 733.753906 376.421875 733.914062 375.230469 733.914062 373.929688 C 733.914062 372.605469 733.753906 371.421875 733.472656 370.324219 C 731.050781 361.019531 719.363281 359 716.675781 349.90625 L 716.660156 341.988281 C 717.34375 339.609375 718.652344 337.714844 720.238281 336.035156 C 720.472656 335.800781 720.726562 335.550781 720.976562 335.308594 C 722.476562 333.871094 724.1875 332.578125 725.847656 331.257812 C 726.125 331.035156 726.394531 330.828125 726.675781 330.609375 C 728.589844 329.050781 730.398438 327.402344 731.734375 325.382812 C 731.914062 325.101562 732.105469 324.804688 732.265625 324.496094 C 732.953125 323.277344 733.457031 321.925781 733.707031 320.386719 C 733.84375 319.609375 733.914062 318.796875 733.914062 317.921875 C 733.914062 317.046875 733.84375 316.21875 733.707031 315.445312 C 733.519531 314.289062 733.1875 313.234375 732.742188 312.269531 C 732.59375 311.957031 732.429688 311.648438 732.265625 311.332031 C 731.925781 310.726562 731.542969 310.144531 731.128906 309.613281 C 730.5 308.78125 729.804688 308.023438 729.046875 307.3125 C 724.773438 303.234375 718.949219 300.386719 716.867188 294.570312 C 716.765625 294.257812 716.660156 293.949219 716.574219 293.605469 L 716.574219 286.257812 C 716.660156 285.917969 716.765625 285.59375 716.867188 285.265625 " fill-opacity="1" fill-rule="nonzero"/></g><path fill="#494d56" d="M 30.542969 569.019531 L 23.933594 569.019531 L 23.933594 566.046875 L 30.542969 566.046875 Z M 63.179688 569.019531 L 46.859375 569.019531 L 46.859375 566.046875 L 63.179688 566.046875 Z M 95.820312 569.019531 L 79.5 569.019531 L 79.5 566.046875 L 95.820312 566.046875 Z M 128.464844 569.019531 L 112.140625 569.019531 L 112.140625 566.046875 L 128.464844 566.046875 Z M 161.101562 569.019531 L 144.785156 569.019531 L 144.785156 566.046875 L 161.101562 566.046875 Z M 193.742188 569.019531 L 177.421875 569.019531 L 177.421875 566.046875 L 193.742188 566.046875 Z M 226.378906 569.019531 L 210.0625 569.019531 L 210.0625 566.046875 L 226.378906 566.046875 Z M 259.019531 569.019531 L 242.699219 569.019531 L 242.699219 566.046875 L 259.019531 566.046875 Z M 291.660156 569.019531 L 275.339844 569.019531 L 275.339844 566.046875 L 291.660156 566.046875 Z M 324.296875 569.019531 L 307.976562 569.019531 L 307.976562 566.046875 L 324.296875 566.046875 Z M 356.941406 569.019531 L 340.617188 569.019531 L 340.617188 566.046875 L 356.941406 566.046875 Z M 389.574219 569.019531 L 373.253906 569.019531 L 373.253906 566.046875 L 389.574219 566.046875 Z M 422.21875 569.019531 L 405.898438 569.019531 L 405.898438 566.046875 L 422.21875 566.046875 Z M 454.859375 569.019531 L 438.539062 569.019531 L 438.539062 566.046875 L 454.859375 566.046875 Z M 487.496094 569.019531 L 471.179688 569.019531 L 471.179688 566.046875 L 487.496094 566.046875 Z M 520.136719 569.019531 L 503.816406 569.019531 L 503.816406 566.046875 L 520.136719 566.046875 L 520.136719 569.019531 " fill-opacity="1" fill-rule="nonzero"/><path fill="#494d56" d="M 611.683594 569.019531 L 595.363281 569.019531 L 595.363281 566.046875 L 611.683594 566.046875 Z M 644.320312 569.019531 L 628.003906 569.019531 L 628.003906 566.046875 L 644.320312 566.046875 Z M 676.960938 569.019531 L 660.640625 569.019531 L 660.640625 566.046875 L 676.960938 566.046875 Z M 709.597656 569.019531 L 693.28125 569.019531 L 693.28125 566.046875 L 709.597656 566.046875 L 709.597656 569.019531 " fill-opacity="1" fill-rule="nonzero"/><path fill="#494d56" d="M 601.75 183.929688 L 585.429688 183.929688 L 585.429688 180.960938 L 601.75 180.960938 Z M 634.394531 183.929688 L 618.074219 183.929688 L 618.074219 180.960938 L 634.394531 180.960938 Z M 667.035156 183.929688 L 650.714844 183.929688 L 650.714844 180.960938 L 667.035156 180.960938 Z M 699.671875 183.929688 L 683.355469 183.929688 L 683.355469 180.960938 L 699.671875 180.960938 L 699.671875 183.929688 " fill-opacity="1" fill-rule="nonzero"/><path fill="#494d56" d="M 41.671875 183.929688 L 25.355469 183.929688 L 25.355469 180.960938 L 41.671875 180.960938 Z M 74.3125 183.929688 L 57.992188 183.929688 L 57.992188 180.960938 L 74.3125 180.960938 Z M 106.953125 183.929688 L 90.632812 183.929688 L 90.632812 180.960938 L 106.953125 180.960938 Z M 139.597656 183.929688 L 123.277344 183.929688 L 123.277344 180.960938 L 139.597656 180.960938 Z M 172.234375 183.929688 L 155.914062 183.929688 L 155.914062 180.960938 L 172.234375 180.960938 Z M 204.875 183.929688 L 188.554688 183.929688 L 188.554688 180.960938 L 204.875 180.960938 Z M 237.511719 183.929688 L 221.191406 183.929688 L 221.191406 180.960938 L 237.511719 180.960938 Z M 270.152344 183.929688 L 253.832031 183.929688 L 253.832031 180.960938 L 270.152344 180.960938 Z M 302.789062 183.929688 L 286.472656 183.929688 L 286.472656 180.960938 L 302.789062 180.960938 Z M 335.429688 183.929688 L 319.109375 183.929688 L 319.109375 180.960938 L 335.429688 180.960938 Z M 368.066406 183.929688 L 351.75 183.929688 L 351.75 180.960938 L 368.066406 180.960938 Z M 400.707031 183.929688 L 384.386719 183.929688 L 384.386719 180.960938 L 400.707031 180.960938 Z M 433.351562 183.929688 L 417.03125 183.929688 L 417.03125 180.960938 L 433.351562 180.960938 Z M 465.992188 183.929688 L 449.671875 183.929688 L 449.671875 180.960938 L 465.992188 180.960938 Z M 498.628906 183.929688 L 482.308594 183.929688 L 482.308594 180.960938 L 498.628906 180.960938 Z M 520.136719 183.929688 L 514.949219 183.929688 L 514.949219 180.960938 L 520.136719 180.960938 L 520.136719 183.929688 " fill-opacity="1" fill-rule="nonzero"/><g clip-path="url(#e4939de664)"><path fill="#0d0d0d" d="M 716.574219 286.257812 L 716.574219 293.605469 C 716.660156 293.949219 716.765625 294.257812 716.867188 294.570312 C 718.949219 300.386719 724.773438 303.234375 729.046875 307.3125 C 729.804688 308.023438 730.5 308.78125 731.128906 309.613281 C 731.542969 310.144531 731.925781 310.726562 732.265625 311.332031 C 732.429688 311.648438 732.59375 311.957031 732.742188 312.269531 C 733.1875 313.234375 733.519531 314.289062 733.707031 315.445312 C 733.84375 316.21875 733.914062 317.046875 733.914062 317.921875 C 733.914062 318.796875 733.84375 319.609375 733.707031 320.386719 C 733.457031 321.925781 732.953125 323.277344 732.265625 324.496094 C 732.105469 324.804688 731.914062 325.101562 731.734375 325.382812 C 730.398438 327.402344 728.589844 329.050781 726.675781 330.609375 C 726.394531 330.828125 726.125 331.035156 725.847656 331.257812 C 724.1875 332.578125 722.476562 333.871094 720.976562 335.308594 C 720.726562 335.550781 720.472656 335.800781 720.238281 336.035156 C 718.652344 337.714844 717.34375 339.609375 716.660156 341.988281 L 716.675781 349.90625 C 719.363281 359 731.050781 361.019531 733.472656 370.324219 C 733.753906 371.421875 733.914062 372.605469 733.914062 373.929688 C 733.914062 375.230469 733.753906 376.421875 733.472656 377.519531 C 733.277344 378.242188 733.042969 378.925781 732.742188 379.566406 C 732.59375 379.890625 732.429688 380.207031 732.265625 380.503906 C 731.425781 382.027344 730.296875 383.335938 729.046875 384.535156 C 728.796875 384.769531 728.542969 385.011719 728.28125 385.246094 C 727.496094 385.941406 726.675781 386.617188 725.847656 387.265625 C 725.566406 387.484375 725.28125 387.710938 725.015625 387.917969 C 723.621094 389.015625 722.222656 390.117188 720.976562 391.316406 C 719.121094 393.082031 717.570312 395.101562 716.75 397.679688 L 716.765625 406.195312 C 719.714844 415.398438 731.988281 417.28125 733.707031 427.453125 C 733.84375 428.226562 733.914062 429.058594 733.914062 429.933594 C 733.914062 431.238281 733.753906 432.429688 733.472656 433.523438 C 733.277344 434.25 733.042969 434.933594 732.742188 435.574219 C 732.59375 435.898438 732.429688 436.207031 732.265625 436.503906 C 731.425781 438.035156 730.296875 439.34375 729.046875 440.542969 C 728.796875 440.777344 728.542969 441.015625 728.28125 441.253906 C 727.496094 441.949219 726.675781 442.617188 725.847656 443.273438 C 725.566406 443.492188 725.28125 443.71875 725.015625 443.925781 C 723.621094 445.023438 722.222656 446.117188 720.976562 447.324219 C 719.183594 449.027344 717.6875 450.957031 716.839844 453.402344 L 716.855469 462.5 C 719.96875 471.449219 732.015625 473.390625 733.707031 483.460938 C 733.84375 484.234375 733.914062 485.066406 733.914062 485.941406 C 733.914062 487.246094 733.753906 488.4375 733.472656 489.53125 C 733.277344 490.257812 733.042969 490.941406 732.742188 491.578125 C 732.59375 491.90625 732.429688 492.214844 732.265625 492.511719 C 731.425781 494.042969 730.296875 495.34375 729.046875 496.546875 C 728.796875 496.785156 728.542969 497.023438 728.28125 497.257812 C 727.496094 497.957031 726.675781 498.625 725.847656 499.277344 C 725.566406 499.5 725.28125 499.726562 725.015625 499.933594 C 723.621094 501.027344 722.222656 502.125 720.976562 503.332031 C 719.238281 504.972656 717.789062 506.832031 716.929688 509.15625 L 716.945312 518.742188 C 720.191406 527.496094 732.03125 529.488281 733.707031 539.46875 C 733.84375 540.242188 733.914062 541.074219 733.914062 541.949219 C 733.914062 542.824219 733.84375 543.640625 733.707031 544.410156 C 733.457031 545.953125 732.953125 547.304688 732.265625 548.519531 C 732.105469 548.828125 731.914062 549.125 731.734375 549.414062 C 730.398438 551.425781 728.589844 553.074219 726.675781 554.632812 C 726.394531 554.851562 726.125 555.066406 725.847656 555.285156 C 724.1875 556.609375 722.476562 557.898438 720.976562 559.332031 C 720.726562 559.574219 720.472656 559.828125 720.238281 560.0625 C 718.886719 561.488281 717.742188 563.058594 717.019531 564.957031 L 717.03125 574.957031 L 578.847656 574.957031 C 578.847656 560.566406 567.171875 548.90625 552.78125 548.90625 L 552.78125 201.085938 C 567.171875 201.085938 578.847656 189.425781 578.847656 175.035156 L 716.394531 175.035156 L 716.394531 180.824219 C 716.53125 181.429688 716.675781 182.023438 716.867188 182.570312 C 718.949219 188.386719 724.773438 191.238281 729.046875 195.3125 C 729.804688 196.027344 730.5 196.78125 731.128906 197.613281 C 731.542969 198.152344 731.925781 198.730469 732.265625 199.335938 C 732.429688 199.648438 732.59375 199.957031 732.742188 200.269531 C 733.1875 201.234375 733.519531 202.289062 733.707031 203.445312 C 733.84375 204.21875 733.914062 205.050781 733.914062 205.925781 C 733.914062 206.800781 733.84375 207.613281 733.707031 208.386719 C 733.457031 209.929688 732.953125 211.28125 732.265625 212.496094 C 732.105469 212.804688 731.914062 213.101562 731.734375 213.386719 C 730.398438 215.402344 728.589844 217.050781 726.675781 218.609375 C 726.394531 218.828125 726.125 219.035156 725.847656 219.261719 C 724.1875 220.582031 722.476562 221.875 720.976562 223.308594 C 720.726562 223.550781 720.472656 223.800781 720.238281 224.039062 C 718.5625 225.789062 717.210938 227.789062 716.542969 230.332031 C 716.53125 230.429688 716.496094 230.550781 716.484375 230.65625 L 716.484375 237.246094 C 716.605469 237.699219 716.722656 238.148438 716.867188 238.578125 C 718.335938 242.675781 721.671875 245.296875 725.015625 247.921875 C 725.28125 248.128906 725.566406 248.355469 725.847656 248.578125 C 726.675781 249.230469 727.496094 249.898438 728.28125 250.59375 C 728.542969 250.832031 728.796875 251.070312 729.046875 251.308594 C 730.296875 252.511719 731.425781 253.816406 732.265625 255.34375 C 732.429688 255.640625 732.59375 255.949219 732.742188 256.277344 C 733.042969 256.917969 733.277344 257.597656 733.472656 258.324219 C 733.753906 259.417969 733.914062 260.609375 733.914062 261.933594 C 733.914062 263.234375 733.753906 264.421875 733.472656 265.519531 C 733.277344 266.25 733.042969 266.929688 732.742188 267.566406 C 732.59375 267.894531 732.429688 268.207031 732.265625 268.503906 C 731.425781 270.03125 730.296875 271.335938 729.046875 272.535156 C 728.796875 272.777344 728.542969 273.011719 728.28125 273.25 C 724.105469 276.960938 718.824219 279.804688 716.867188 285.265625 C 716.765625 285.59375 716.660156 285.917969 716.574219 286.257812 " fill-opacity="1" fill-rule="nonzero"/></g><path fill="#ffffff" d="M 554.261719 217.398438 L 551.296875 217.398438 L 551.296875 201.078125 L 554.261719 201.078125 Z M 554.261719 250.039062 L 551.296875 250.039062 L 551.296875 233.71875 L 554.261719 233.71875 Z M 554.261719 282.675781 L 551.296875 282.675781 L 551.296875 266.355469 L 554.261719 266.355469 Z M 554.261719 315.320312 L 551.296875 315.320312 L 551.296875 298.996094 L 554.261719 298.996094 Z M 554.261719 347.953125 L 551.296875 347.953125 L 551.296875 331.640625 L 554.261719 331.640625 Z M 554.261719 380.597656 L 551.296875 380.597656 L 551.296875 364.277344 L 554.261719 364.277344 Z M 554.261719 413.238281 L 551.296875 413.238281 L 551.296875 396.917969 L 554.261719 396.917969 Z M 554.261719 445.875 L 551.296875 445.875 L 551.296875 429.558594 L 554.261719 429.558594 Z M 554.261719 478.515625 L 551.296875 478.515625 L 551.296875 462.195312 L 554.261719 462.195312 Z M 554.261719 511.152344 L 551.296875 511.152344 L 551.296875 494.835938 L 554.261719 494.835938 Z M 554.261719 543.792969 L 551.296875 543.792969 L 551.296875 527.472656 L 554.261719 527.472656 L 554.261719 543.792969 " fill-opacity="1" fill-rule="nonzero"/><path fill="#b3ffae" d="M 633.695312 493.074219 C 630.015625 496.097656 629.027344 498.878906 629.027344 501.742188 C 629.027344 508.777344 636.066406 511.882812 647.679688 511.882812 C 658.800781 511.882812 666.488281 509.269531 666.488281 500.601562 C 666.488281 496.753906 665.429688 492.988281 664.203125 489.960938 L 673.359375 487.023438 C 674.75 490.371094 676.058594 495.609375 676.058594 502.230469 C 676.058594 519 666.082031 526.441406 648.578125 526.441406 C 631.648438 526.441406 619.460938 518.429688 619.460938 501.742188 C 619.460938 492.988281 622.734375 488.816406 626.253906 485.710938 L 633.695312 493.074219 " fill-opacity="1" fill-rule="nonzero"/><path fill="#b3ffae" d="M 647.679688 468.203125 C 658.722656 468.203125 666.488281 465.75 666.488281 456.835938 C 666.488281 449.800781 659.867188 446.773438 648.253906 446.773438 C 637.210938 446.773438 629.027344 449.230469 629.027344 458.0625 C 629.027344 465.179688 635.980469 468.203125 647.679688 468.203125 Z M 647.433594 432.214844 C 664.449219 432.214844 676.058594 440.558594 676.058594 457.980469 C 676.058594 475.238281 665.917969 482.761719 648.578125 482.761719 C 631.484375 482.761719 619.460938 474.421875 619.460938 456.917969 C 619.460938 439.742188 630.179688 432.214844 647.433594 432.214844 " fill-opacity="1" fill-rule="nonzero"/><path fill="#b3ffae" d="M 620.195312 411.4375 L 653.160156 411.4375 C 662.648438 411.4375 665.671875 407.023438 665.671875 401.296875 C 665.671875 395.488281 661.421875 392.21875 653.160156 392.21875 L 620.195312 392.21875 L 620.195312 378.71875 L 653.894531 378.71875 C 665.59375 378.71875 676.058594 384.9375 676.058594 402.359375 C 676.058594 419.046875 665.507812 424.851562 653.894531 424.851562 L 620.195312 424.851562 L 620.195312 411.4375 " fill-opacity="1" fill-rule="nonzero"/><path fill="#b3ffae" d="M 645.472656 355.894531 L 645.472656 352.460938 C 645.472656 348.777344 642.9375 345.59375 637.535156 345.59375 C 632.960938 345.59375 629.027344 347.71875 628.949219 352.871094 C 628.949219 354.261719 629.027344 355.246094 629.113281 355.894531 Z M 620.195312 369.394531 C 620.195312 367.757812 620.03125 356.636719 620.03125 352.378906 C 620.03125 338.476562 626.332031 331.4375 636.878906 331.4375 C 648.5 331.4375 654.386719 339.867188 654.386719 353.445312 L 654.386719 355.894531 L 675.570312 355.894531 L 675.570312 369.394531 L 620.195312 369.394531 " fill-opacity="1" fill-rule="nonzero"/><path fill="#b3ffae" d="M 647.679688 314.019531 C 658.722656 314.019531 666.488281 311.5625 666.488281 302.644531 C 666.488281 295.613281 659.867188 292.589844 648.253906 292.589844 C 637.210938 292.589844 629.027344 295.042969 629.027344 303.875 C 629.027344 310.992188 635.980469 314.019531 647.679688 314.019531 Z M 647.433594 278.027344 C 664.449219 278.027344 676.058594 286.371094 676.058594 303.789062 C 676.058594 321.050781 665.917969 328.574219 648.578125 328.574219 C 631.484375 328.574219 619.460938 320.234375 619.460938 302.730469 C 619.460938 285.554688 630.179688 278.027344 647.433594 278.027344 " fill-opacity="1" fill-rule="nonzero"/><path fill="#b3ffae" d="M 620.195312 237.132812 L 620.195312 223.632812 L 675.570312 223.632812 L 675.570312 235.164062 L 651.683594 250.953125 C 649.644531 252.34375 643.753906 255.859375 641.382812 257.332031 C 644.738281 257.085938 651.195312 256.597656 654.304688 256.597656 L 675.570312 256.351562 L 675.570312 269.84375 L 620.195312 269.84375 L 620.195312 258.800781 L 643.917969 242.859375 C 646.863281 240.890625 652.015625 237.785156 654.550781 236.230469 C 651.113281 236.394531 644.816406 236.800781 641.382812 236.886719 L 620.195312 237.132812 " fill-opacity="1" fill-rule="nonzero"/><path fill="#494d56" d="M 92.023438 269.648438 C 103.429688 264.355469 122.175781 256.8125 138.472656 256.8125 C 161.292969 256.8125 179.019531 267.203125 179.019531 293.691406 C 179.019531 311.214844 169.851562 327.511719 150.496094 347.886719 L 138.273438 360.722656 L 182.488281 360.722656 L 182.488281 388.230469 L 91.820312 388.230469 L 88.152344 379.671875 C 96.707031 367.648438 108.527344 351.757812 117.085938 339.53125 C 137.460938 317.933594 144.585938 306.9375 144.585938 296.542969 C 144.585938 289.410156 140.105469 283.707031 132.570312 283.707031 C 125.234375 283.707031 116.46875 287.578125 103.839844 293.488281 L 92.023438 269.648438 " fill-opacity="1" fill-rule="nonzero"/><path fill="#494d56" d="M 231.382812 323.03125 C 231.382812 350.128906 235.050781 367.648438 250.945312 367.648438 C 263.167969 367.648438 267.648438 352.980469 267.648438 324.457031 C 267.648438 297.359375 264.191406 279.429688 248.5 279.429688 C 236.070312 279.429688 231.382812 294.101562 231.382812 323.03125 Z M 302.492188 322.011719 C 302.492188 362.558594 283.746094 390.058594 248.5 390.058594 C 214.882812 390.058594 196.746094 366.632812 196.746094 325.269531 C 196.746094 284.519531 215.898438 256.8125 251.144531 256.8125 C 284.765625 256.8125 302.492188 281.0625 302.492188 322.011719 " fill-opacity="1" fill-rule="nonzero"/><path fill="#494d56" d="M 452.855469 351.757812 C 452.855469 364.390625 454.078125 372.949219 461.003906 372.949219 C 466.917969 372.949219 467.9375 365.203125 467.9375 352.980469 C 467.9375 340.347656 466.714844 332.199219 459.78125 332.199219 C 454.078125 332.199219 452.855469 339.53125 452.855469 351.757812 Z M 496.050781 351.757812 C 496.050781 372.742188 483.214844 389.859375 459.78125 389.859375 C 436.351562 389.859375 424.742188 374.984375 424.742188 353.386719 C 424.742188 332.402344 437.78125 315.285156 461.003906 315.285156 C 484.644531 315.285156 496.050781 329.957031 496.050781 351.757812 Z M 421.6875 267.203125 L 448.785156 267.203125 L 391.324219 389.859375 L 364.433594 389.859375 Z M 344.875 303.472656 C 344.875 316.105469 346.296875 324.65625 353.023438 324.65625 C 358.726562 324.65625 359.949219 316.917969 359.949219 304.695312 C 359.949219 292.058594 358.726562 283.910156 351.800781 283.910156 C 346.097656 283.910156 344.875 291.246094 344.875 303.472656 Z M 388.066406 303.472656 C 388.066406 324.457031 375.230469 341.570312 351.800781 341.570312 C 328.367188 341.570312 316.753906 326.699219 316.753906 305.101562 C 316.753906 284.113281 329.800781 267 353.023438 267 C 376.652344 267 388.066406 281.671875 388.066406 303.472656 " fill-opacity="1" fill-rule="nonzero"/><path fill="#494d56" d="M 371.953125 451.378906 C 371.953125 465.621094 375.125 475.648438 386.621094 475.648438 C 395.695312 475.648438 399.601562 467.101562 399.601562 452.117188 C 399.601562 437.875 396.433594 427.320312 385.039062 427.320312 C 375.859375 427.320312 371.953125 436.292969 371.953125 451.378906 Z M 418.382812 451.0625 C 418.382812 473.007812 407.621094 487.992188 385.144531 487.992188 C 362.882812 487.992188 353.171875 474.910156 353.171875 452.539062 C 353.171875 430.488281 363.933594 414.976562 386.519531 414.976562 C 408.675781 414.976562 418.382812 428.800781 418.382812 451.0625 " fill-opacity="1" fill-rule="nonzero"/><path fill="#494d56" d="M 428.925781 415.921875 L 474.410156 415.921875 L 474.410156 428.585938 L 446.339844 428.585938 L 446.339844 444.945312 L 469.867188 444.945312 L 467.757812 457.5 L 446.339844 457.5 L 446.339844 487.359375 L 428.925781 487.359375 L 428.925781 415.921875 " fill-opacity="1" fill-rule="nonzero"/><path fill="#494d56" d="M 481.789062 415.921875 L 527.265625 415.921875 L 527.265625 428.585938 L 499.195312 428.585938 L 499.195312 444.945312 L 522.726562 444.945312 L 520.617188 457.5 L 499.195312 457.5 L 499.195312 487.359375 L 481.789062 487.359375 L 481.789062 415.921875 " fill-opacity="1" fill-rule="nonzero"/><path fill="#494d56" d="M 134.761719 426.550781 L 143.179688 443.609375 L 162.003906 446.347656 L 148.382812 459.621094 L 151.597656 478.375 L 134.761719 469.519531 L 117.925781 478.375 L 121.140625 459.621094 L 107.519531 446.347656 L 126.34375 443.609375 L 134.761719 426.550781 " fill-opacity="1" fill-rule="nonzero"/><path fill="#494d56" d="M 208.144531 426.550781 L 216.566406 443.609375 L 235.386719 446.347656 L 221.765625 459.621094 L 224.984375 478.375 L 208.144531 469.519531 L 191.308594 478.375 L 194.527344 459.621094 L 180.90625 446.347656 L 199.726562 443.609375 L 208.144531 426.550781 " fill-opacity="1" fill-rule="nonzero"/><path fill="#494d56" d="M 281.53125 426.550781 L 289.949219 443.609375 L 308.773438 446.347656 L 295.152344 459.621094 L 298.367188 478.375 L 281.53125 469.519531 L 264.695312 478.375 L 267.910156 459.621094 L 254.292969 446.347656 L 273.113281 443.609375 L 281.53125 426.550781 " fill-opacity="1" fill-rule="nonzero"/></svg>