<svg xmlns="http://www.w3.org/2000/svg" xmlns:xlink="http://www.w3.org/1999/xlink" width="1000" zoomAndPan="magnify" viewBox="0 0 750 749.999995" height="1000" preserveAspectRatio="xMidYMid meet" version="1.0"><defs><clipPath id="9d13251024"><path d="M 51.238281 19 L 696 19 L 696 731 L 51.238281 731 Z M 51.238281 19 " clip-rule="nonzero"/></clipPath></defs><g clip-path="url(#9d13251024)"><path fill="#0d0d0d" d="M 232.613281 730.957031 C 230.894531 730.933594 229.175781 730.828125 227.464844 730.640625 C 225.757812 730.449219 224.058594 730.179688 222.375 729.828125 C 220.691406 729.476562 219.027344 729.046875 217.382812 728.535156 C 215.738281 728.023438 214.125 727.433594 212.539062 726.765625 C 210.953125 726.097656 209.402344 725.359375 207.886719 724.542969 C 206.371094 723.726562 204.898438 722.839844 203.46875 721.882812 C 202.039062 720.921875 200.660156 719.898438 199.328125 718.808594 C 197.996094 717.71875 196.722656 716.566406 195.5 715.351562 C 194.28125 714.140625 193.121094 712.871094 192.023438 711.546875 C 190.925781 710.21875 189.894531 708.847656 188.925781 707.421875 C 187.960938 706 187.066406 704.53125 186.242188 703.019531 C 185.417969 701.511719 184.667969 699.964844 183.988281 698.382812 C 183.3125 696.800781 182.714844 695.1875 182.195312 693.546875 C 181.671875 691.90625 181.230469 690.246094 180.871094 688.5625 C 180.507812 686.882812 180.230469 685.1875 180.03125 683.476562 C 179.832031 681.765625 179.71875 680.050781 179.683594 678.332031 C 179.601562 674.796875 179.875 671.292969 180.507812 667.8125 L 181.207031 662.984375 L 122.785156 662.984375 C 120.46875 662.898438 118.15625 662.703125 115.859375 662.402344 C 113.558594 662.097656 111.277344 661.6875 109.015625 661.171875 C 106.753906 660.65625 104.519531 660.035156 102.316406 659.3125 C 100.113281 658.585938 97.949219 657.757812 95.820312 656.832031 C 93.695312 655.902344 91.617188 654.878906 89.585938 653.757812 C 87.554688 652.636719 85.582031 651.421875 83.664062 650.113281 C 81.746094 648.804688 79.894531 647.414062 78.109375 645.933594 C 76.324219 644.453125 74.609375 642.890625 72.96875 641.253906 C 71.328125 639.613281 69.769531 637.898438 68.289062 636.113281 C 66.808594 634.324219 65.414062 632.472656 64.105469 630.554688 C 62.800781 628.640625 61.585938 626.664062 60.464844 624.636719 C 59.339844 622.605469 58.316406 620.527344 57.390625 618.398438 C 56.460938 616.273438 55.636719 614.109375 54.910156 611.90625 C 54.183594 609.699219 53.566406 607.46875 53.046875 605.207031 C 52.53125 602.945312 52.121094 600.664062 51.820312 598.363281 C 51.519531 596.0625 51.324219 593.753906 51.238281 591.433594 C 51.238281 589.738281 51.359375 588.050781 51.59375 586.375 L 122.785156 87.515625 C 122.96875 85.265625 123.253906 83.027344 123.640625 80.800781 C 124.027344 78.578125 124.511719 76.375 125.097656 74.195312 C 125.683594 72.015625 126.371094 69.863281 127.152344 67.746094 C 127.933594 65.628906 128.808594 63.550781 129.78125 61.511719 C 130.75 59.472656 131.8125 57.480469 132.960938 55.539062 C 134.113281 53.597656 135.351562 51.710938 136.671875 49.882812 C 137.996094 48.050781 139.398438 46.285156 140.882812 44.582031 C 142.363281 42.878906 143.921875 41.246094 145.550781 39.6875 C 147.183594 38.125 148.882812 36.640625 150.648438 35.234375 C 152.414062 33.828125 154.242188 32.503906 156.128906 31.261719 C 158.011719 30.023438 159.953125 28.867188 161.941406 27.804688 C 163.933594 26.738281 165.96875 25.765625 168.050781 24.886719 C 170.128906 24.007812 172.242188 23.222656 174.394531 22.535156 C 176.542969 21.847656 178.722656 21.257812 180.925781 20.769531 C 183.128906 20.277344 185.351562 19.890625 187.589844 19.601562 C 189.832031 19.3125 192.078125 19.125 194.335938 19.042969 L 391.09375 19.042969 C 501.496094 19.042969 580.699219 82.808594 600.789062 182.316406 C 604.589844 185.070312 608.300781 187.933594 611.925781 190.914062 C 615.550781 193.894531 619.078125 196.984375 622.511719 200.179688 C 625.945312 203.378906 629.28125 206.675781 632.511719 210.082031 C 635.742188 213.484375 638.867188 216.980469 641.882812 220.574219 C 644.898438 224.171875 647.800781 227.855469 650.589844 231.628906 C 653.375 235.402344 656.046875 239.257812 658.597656 243.195312 C 661.148438 247.132812 663.578125 251.144531 665.882812 255.230469 C 668.1875 259.320312 670.363281 263.472656 672.414062 267.695312 C 674.460938 271.914062 676.378906 276.195312 678.164062 280.535156 C 679.949219 284.875 681.601562 289.265625 683.117188 293.707031 C 684.628906 298.144531 686.007812 302.628906 687.246094 307.15625 C 688.484375 311.679688 689.585938 316.238281 690.542969 320.832031 C 691.5 325.425781 692.316406 330.042969 692.992188 334.6875 C 693.667969 339.332031 694.199219 343.992188 694.585938 348.667969 C 694.972656 353.34375 695.214844 358.027344 695.3125 362.71875 C 695.414062 367.410156 695.367188 372.097656 695.179688 376.789062 C 695.179688 481.589844 594.882812 573.546875 480.53125 573.546875 L 417.820312 573.546875 L 401.34375 672.445312 C 400.929688 674.496094 400.429688 676.527344 399.84375 678.535156 C 399.253906 680.539062 398.582031 682.519531 397.824219 684.46875 C 397.066406 686.417969 396.226562 688.332031 395.304688 690.210938 C 394.378906 692.085938 393.378906 693.921875 392.296875 695.710938 C 391.21875 697.503906 390.0625 699.242188 388.832031 700.933594 C 387.601562 702.625 386.300781 704.261719 384.929688 705.84375 C 383.558594 707.421875 382.121094 708.9375 380.621094 710.394531 C 379.117188 711.851562 377.558594 713.238281 375.9375 714.5625 C 374.3125 715.882812 372.640625 717.132812 370.910156 718.308594 C 369.179688 719.488281 367.40625 720.589844 365.582031 721.613281 C 363.757812 722.636719 361.894531 723.582031 359.988281 724.445312 C 358.082031 725.308594 356.144531 726.089844 354.171875 726.789062 C 352.203125 727.484375 350.203125 728.09375 348.179688 728.621094 C 346.152344 729.144531 344.109375 729.582031 342.046875 729.933594 C 339.984375 730.28125 337.910156 730.542969 335.828125 730.714844 C 333.742188 730.882812 331.652344 730.964844 329.5625 730.957031 Z M 250.839844 680.871094 Z M 257.011719 638.085938 L 253.972656 659.351562 L 330.277344 659.351562 L 352.226562 531.835938 C 352.398438 530.800781 352.617188 529.777344 352.882812 528.765625 C 353.144531 527.75 353.453125 526.75 353.804688 525.765625 C 354.15625 524.777344 354.550781 523.808594 354.988281 522.855469 C 355.425781 521.90625 355.902344 520.972656 356.421875 520.0625 C 356.9375 519.152344 357.496094 518.269531 358.09375 517.40625 C 358.6875 516.546875 359.320312 515.710938 359.992188 514.90625 C 360.660156 514.101562 361.363281 513.328125 362.101562 512.582031 C 362.839844 511.839844 363.609375 511.128906 364.40625 510.453125 C 365.207031 509.777344 366.035156 509.136719 366.890625 508.535156 C 367.746094 507.929688 368.628906 507.367188 369.535156 506.839844 C 370.441406 506.3125 371.367188 505.828125 372.316406 505.382812 C 373.261719 504.9375 374.230469 504.535156 375.210938 504.175781 C 376.195312 503.816406 377.195312 503.5 378.203125 503.226562 C 379.214844 502.957031 380.238281 502.730469 381.269531 502.546875 C 382.300781 502.363281 383.335938 502.226562 384.382812 502.136719 C 385.425781 502.042969 386.46875 502 387.515625 502 L 480.53125 502 C 548.074219 502 623.628906 448.460938 623.628906 376.789062 C 623.773438 368.496094 623.359375 360.230469 622.378906 351.992188 C 621.402344 343.753906 619.871094 335.625 617.785156 327.59375 C 615.703125 319.566406 613.082031 311.714844 609.933594 304.042969 C 606.78125 296.371094 603.125 288.945312 598.960938 281.769531 C 573.921875 371.421875 483.230469 448.335938 391.09375 448.335938 L 302.640625 448.335938 C 301.960938 450.25 301.472656 452.210938 301.175781 454.222656 C 301.03125 455.042969 300.871094 455.867188 300.675781 456.691406 L 257.746094 635.5625 C 257.53125 636.441406 257.296875 637.28125 256.941406 638.140625 Z M 124.304688 591.433594 L 194.746094 591.433594 L 230.84375 441.183594 C 231.027344 438.996094 231.3125 436.820312 231.699219 434.660156 C 232.089844 432.5 232.578125 430.363281 233.164062 428.246094 C 233.753906 426.132812 234.4375 424.050781 235.222656 422 C 236.003906 419.949219 236.882812 417.941406 237.851562 415.972656 C 238.824219 414.003906 239.886719 412.085938 241.035156 410.214844 C 242.1875 408.347656 243.425781 406.535156 244.746094 404.78125 C 246.066406 403.027344 247.464844 401.339844 248.945312 399.71875 C 250.421875 398.097656 251.972656 396.546875 253.597656 395.070312 C 255.222656 393.59375 256.910156 392.195312 258.667969 390.878906 C 260.421875 389.558594 262.234375 388.328125 264.105469 387.175781 C 265.976562 386.027344 267.894531 384.96875 269.863281 384 C 271.835938 383.03125 273.84375 382.15625 275.898438 381.378906 C 277.949219 380.597656 280.03125 379.914062 282.148438 379.328125 C 284.261719 378.742188 286.402344 378.257812 288.5625 377.875 C 290.722656 377.488281 292.898438 377.207031 295.085938 377.023438 C 297.273438 376.84375 299.464844 376.765625 301.660156 376.789062 L 391.09375 376.789062 C 460.640625 376.789062 534.191406 303.234375 534.191406 233.691406 C 534.191406 144.074219 480.691406 90.589844 391.09375 90.589844 L 195.855469 90.589844 C 195.261719 91.035156 194.757812 91.558594 194.335938 92.164062 C 194.335938 93.359375 194.226562 94.550781 194.011719 95.742188 L 123.285156 590.503906 C 123.589844 590.851562 123.929688 591.164062 124.304688 591.433594 Z M 265.882812 448.335938 Z M 194.335938 90.589844 Z M 194.335938 90.589844 " fill-opacity="1" fill-rule="nonzero"/></g></svg>