<svg xmlns="http://www.w3.org/2000/svg" xmlns:xlink="http://www.w3.org/1999/xlink" width="1000" zoomAndPan="magnify" viewBox="0 0 750 749.999995" height="1000" preserveAspectRatio="xMidYMid meet" version="1.0"><defs><clipPath id="1c996e0f4b"><path d="M 7.359375 7.359375 L 742.359375 7.359375 L 742.359375 742.359375 L 7.359375 742.359375 Z M 7.359375 7.359375 " clip-rule="nonzero"/></clipPath><clipPath id="ff87949db7"><path d="M 308.320312 308.5625 L 441.820312 308.5625 L 441.820312 441.3125 L 308.320312 441.3125 Z M 308.320312 308.5625 " clip-rule="nonzero"/></clipPath></defs><g clip-path="url(#1c996e0f4b)"><path fill="#ffffff" d="M 7.359375 7.359375 L 742.359375 7.359375 L 742.359375 742.359375 L 7.359375 742.359375 Z M 7.359375 7.359375 " fill-opacity="1" fill-rule="nonzero"/></g><path fill="#000000" d="M 327.511719 233.167969 C 327.511719 212.101562 327.511719 191.039062 327.511719 169.839844 C 317.015625 169.839844 306.726562 169.839844 296.320312 169.839844 C 296.320312 159.445312 296.320312 149.15625 296.320312 138.734375 C 296.273438 138.777344 296.332031 138.691406 296.4375 138.617188 C 296.523438 138.558594 296.628906 138.5 296.730469 138.5 C 306.917969 138.5 317.105469 138.5 327.511719 138.5 C 327.511719 127.988281 327.511719 117.582031 327.554688 107.128906 C 337.890625 107.085938 348.285156 107.085938 358.675781 107.085938 C 358.675781 96.398438 358.675781 85.816406 358.675781 75.246094 C 348.253906 75.246094 337.980469 75.246094 327.601562 75.246094 C 327.601562 85.945312 327.601562 96.558594 327.554688 107.128906 C 317.191406 107.175781 306.859375 107.175781 296.539062 107.175781 C 296.039062 104.261719 295.847656 53.753906 296.320312 43.949219 C 327.484375 43.949219 358.648438 43.949219 390.148438 43.949219 C 390.148438 44.726562 390.148438 45.609375 390.148438 46.492188 C 390.148438 55.078125 390.148438 63.660156 390.148438 72.230469 C 390.148438 72.921875 389.957031 73.703125 390.207031 74.289062 C 390.472656 74.90625 391.074219 75.570312 391.691406 75.789062 C 392.414062 76.039062 393.292969 75.847656 394.101562 75.847656 C 412.65625 75.847656 431.207031 75.847656 449.773438 75.847656 C 450.917969 75.847656 452.066406 75.847656 453.359375 75.847656 C 453.359375 86.300781 453.359375 96.664062 453.359375 107.160156 C 442.996094 107.160156 432.707031 107.160156 422.179688 107.160156 C 422.179688 117.683594 422.179688 128.09375 422.179688 138.484375 C 401.113281 138.484375 380.035156 138.484375 358.96875 138.484375 C 358.527344 148.320312 358.691406 166.972656 359.21875 169.8125 C 380.210938 169.8125 401.1875 169.8125 422.179688 169.8125 C 422.179688 180.363281 422.179688 190.917969 422.179688 201.738281 C 427.339844 201.914062 432.515625 201.796875 437.675781 201.8125 C 442.878906 201.828125 448.082031 201.8125 453.386719 201.8125 C 453.386719 243.765625 453.386719 285.601562 453.386719 327.425781 C 456.3125 327.921875 476.628906 328.054688 484.730469 327.644531 C 484.730469 317.132812 484.730469 306.609375 484.730469 295.9375 C 495.210938 295.9375 505.589844 295.9375 516.144531 295.9375 C 516.144531 299.847656 516.144531 303.773438 516.144531 307.695312 C 516.144531 313.488281 516.128906 319.292969 516.144531 325.085938 C 516.144531 327.496094 516.453125 327.792969 518.90625 327.792969 C 537.339844 327.804688 555.773438 327.792969 574.222656 327.792969 C 575.839844 327.792969 577.472656 327.792969 579.089844 327.792969 C 579.617188 330.585938 579.777344 349.046875 579.339844 359 C 569.0625 359 558.773438 359 548.246094 359 C 548.246094 390.371094 548.246094 421.605469 548.246094 452.960938 C 527.050781 452.960938 506.101562 452.960938 484.980469 452.960938 C 484.980469 442.6875 484.980469 432.324219 484.980469 421.828125 C 495.472656 421.828125 506 421.828125 516.671875 421.828125 C 516.671875 400.894531 516.671875 380.09375 516.671875 359.207031 C 506.132812 359.207031 495.621094 359.207031 484.859375 359.207031 C 484.859375 369.539062 484.859375 379.917969 484.859375 390.355469 C 474.335938 390.355469 464.046875 390.355469 453.625 390.355469 C 453.625 380.066406 453.625 369.773438 453.625 359.515625 C 450.699219 358.957031 432.21875 358.808594 422.179688 359.234375 C 422.179688 380.066406 422.179688 400.910156 422.179688 421.753906 C 411.859375 421.753906 401.542969 421.753906 390.972656 421.753906 C 390.941406 420.886719 390.871094 420.003906 390.871094 419.121094 C 390.871094 389.898438 390.871094 360.660156 390.871094 331.4375 C 390.871094 330.964844 390.871094 330.511719 390.871094 330.039062 C 390.839844 327.21875 390.738281 327.101562 387.988281 327.101562 C 378.375 327.085938 368.761719 327.101562 359 327.101562 C 359 316.664062 359 306.285156 359 295.804688 C 369.582031 295.804688 380.109375 295.804688 390.75 295.804688 C 390.75 285.398438 390.75 275.105469 390.75 264.582031 C 396.027344 264.332031 401.21875 264.492188 406.378906 264.464844 C 411.582031 264.433594 416.785156 264.464844 422.078125 264.464844 C 422.078125 254.042969 422.078125 243.75 422.078125 233.300781 C 411.550781 233.300781 400.9375 233.300781 390.222656 233.300781 C 390.222656 243.605469 390.222656 253.894531 390.222656 264.316406 C 379.816406 264.316406 369.539062 264.316406 359.074219 264.316406 C 359.160156 264.390625 359.058594 264.332031 358.984375 264.242188 C 358.925781 264.15625 358.851562 264.050781 358.851562 263.949219 C 358.851562 253.761719 358.851562 243.5625 358.851562 233.136719 C 348.328125 233.167969 337.917969 233.167969 327.511719 233.167969 Z M 702.171875 43.859375 C 631.082031 43.859375 559.992188 43.875 488.890625 43.847656 C 484.582031 43.847656 484.789062 43.980469 484.789062 48.050781 C 484.800781 119.023438 484.800781 190.007812 484.800781 260.980469 C 484.800781 262.113281 484.800781 263.242188 484.800781 264.332031 C 558.480469 264.332031 631.949219 264.332031 705.332031 264.332031 C 705.332031 190.789062 705.332031 117.40625 705.332031 43.859375 C 704.214844 43.859375 703.199219 43.859375 702.171875 43.859375 Z M 670.816406 233.167969 C 620.617188 233.167969 570.414062 233.152344 520.214844 233.183594 C 515.90625 233.183594 516.113281 233.050781 516.113281 228.976562 C 516.128906 179.011719 516.140625 129.03125 516.113281 79.066406 C 516.113281 75.203125 516.1875 75.15625 520.15625 75.15625 C 570.121094 75.1875 620.101562 75.1875 670.066406 75.15625 C 674.375 75.15625 674.136719 75.332031 674.136719 79.390625 C 674.125 129.472656 674.125 179.570312 674.125 229.65625 C 674.125 230.785156 674.125 231.917969 674.125 233.167969 C 672.875 233.167969 671.84375 233.167969 670.816406 233.167969 Z M 44.359375 264.375 C 56.371094 264.90625 261.113281 264.667969 264.066406 264.15625 C 264.066406 190.742188 264.066406 117.359375 264.066406 43.917969 C 190.800781 43.917969 117.640625 43.917969 44.359375 43.917969 C 44.359375 117.609375 44.359375 190.992188 44.359375 264.375 Z M 232.800781 233.066406 C 180.46875 233.066406 128.195312 233.066406 75.90625 233.066406 C 75.40625 230.140625 75.203125 86.359375 75.703125 75.304688 C 127.972656 75.304688 180.246094 75.304688 232.800781 75.304688 C 232.800781 127.929688 232.800781 180.4375 232.800781 233.066406 Z M 264.066406 485.242188 C 251.734375 484.714844 47.332031 484.933594 44.375 485.464844 C 44.375 558.875 44.375 632.257812 44.375 705.699219 C 117.640625 705.699219 190.800781 705.699219 264.066406 705.699219 C 264.066406 632.007812 264.066406 558.625 264.066406 485.242188 Z M 232.742188 516.496094 C 232.742188 569.046875 232.742188 621.554688 232.742188 674.078125 C 229.785156 674.625 88.859375 674.84375 75.6875 674.316406 C 75.6875 621.820312 75.6875 569.3125 75.6875 516.496094 C 128.078125 516.496094 180.351562 516.496094 232.742188 516.496094 Z M 512.613281 642.414062 C 513.304688 642.414062 514.011719 642.402344 514.703125 642.414062 C 516.203125 642.472656 516.746094 642.960938 516.804688 644.386719 C 516.847656 645.3125 516.820312 646.238281 516.820312 647.164062 C 516.820312 655.953125 516.820312 664.746094 516.820312 673.59375 C 527.328125 673.59375 537.691406 673.59375 548.070312 673.59375 C 548.070312 652.734375 548.070312 632.023438 548.070312 611.074219 C 537.414062 611.074219 526.800781 611.074219 516.214844 611.074219 C 515.789062 598.082031 515.953125 582.5 516.523438 579.777344 C 537.5 579.777344 558.480469 579.777344 579.457031 579.777344 C 579.457031 569.222656 579.457031 558.683594 579.457031 548.128906 C 582.292969 547.617188 600.886719 547.453125 610.78125 547.894531 C 610.78125 558.523438 610.78125 569.152344 610.78125 579.777344 C 621.1875 579.777344 631.597656 579.777344 642.105469 579.777344 C 642.105469 571.664062 642.105469 563.785156 642.105469 555.921875 C 642.105469 553.832031 642.078125 551.746094 642.121094 549.660156 C 642.152344 548.421875 642.753906 547.851562 643.960938 547.777344 C 644.648438 547.734375 645.355469 547.761719 646.046875 547.761719 C 654.515625 547.761719 662.980469 547.761719 671.449219 547.761719 C 672.332031 547.761719 673.210938 547.761719 674.007812 547.761719 C 674.007812 537.148438 674.007812 526.859375 674.007812 516.4375 C 663.464844 516.4375 653.058594 516.4375 642.636719 516.4375 C 642.53125 516.4375 642.429688 516.378906 642.34375 516.320312 C 642.253906 516.261719 642.179688 516.15625 641.972656 515.921875 C 641.972656 495.34375 641.972656 474.613281 641.972656 453.875 C 631.550781 453.875 621.261719 453.875 610.738281 453.875 C 610.738281 474.761719 610.738281 495.578125 610.738281 516.332031 C 600.195312 516.332031 589.90625 516.332031 579.382812 516.332031 C 579.382812 495.429688 579.382812 474.613281 579.382812 453.902344 C 568.84375 453.902344 558.550781 453.902344 548.144531 453.902344 C 548.144531 464.308594 548.144531 474.601562 548.144531 485.140625 C 537.648438 485.140625 527.285156 485.140625 516.832031 485.140625 C 516.832031 486.535156 516.832031 487.683594 516.832031 488.828125 C 516.832031 507.382812 516.832031 525.949219 516.832031 544.5 C 516.832031 545.308594 517.039062 546.1875 516.773438 546.910156 C 516.554688 547.511719 515.878906 548.113281 515.273438 548.378906 C 514.6875 548.628906 513.910156 548.4375 513.21875 548.4375 C 504.632812 548.4375 496.046875 548.4375 487.464844 548.4375 C 486.582031 548.4375 485.699219 548.511719 484.832031 548.542969 C 484.832031 579.984375 484.832031 611.191406 484.832031 642.386719 C 494.078125 642.414062 503.355469 642.414062 512.613281 642.414062 Z M 106.863281 359.027344 C 106.863281 348.621094 106.863281 338.332031 106.863281 327.96875 C 96.371094 327.96875 86.007812 327.96875 75.640625 327.96875 C 75.640625 348.84375 75.640625 369.570312 75.640625 390.53125 C 86.09375 390.53125 96.472656 390.53125 106.953125 390.53125 C 106.953125 411.507812 106.953125 432.234375 106.953125 452.933594 C 128.105469 452.933594 149.15625 452.933594 170.308594 452.933594 C 170.308594 432.042969 170.308594 411.316406 170.308594 390.457031 C 180.613281 390.457031 190.800781 390.457031 200.988281 390.457031 C 201.09375 390.457031 201.195312 390.398438 201.285156 390.339844 C 201.371094 390.28125 201.445312 390.179688 201.386719 390.238281 C 201.386719 369.378906 201.386719 348.652344 201.386719 327.804688 C 190.964844 327.804688 180.6875 327.804688 170.148438 327.804688 C 170.148438 317.089844 170.148438 306.476562 170.148438 295.90625 C 148.953125 295.90625 127.988281 295.90625 107.011719 295.90625 C 107.011719 306.375 107.011719 316.738281 107.011719 327.234375 C 117.464844 327.234375 127.753906 327.234375 138.101562 327.234375 C 138.101562 337.875 138.101562 348.402344 138.101562 359.027344 C 127.5625 359.027344 117.273438 359.027344 106.863281 359.027344 Z M 327.511719 611.089844 C 359.207031 611.089844 390.679688 611.089844 422.164062 611.089844 C 422.164062 600.652344 422.164062 590.214844 422.164062 579.765625 C 412.773438 579.765625 403.378906 579.765625 393.984375 579.765625 C 393.292969 579.765625 392.589844 579.765625 391.898438 579.765625 C 390.78125 579.765625 390.28125 579.101562 390.179688 578.101562 C 390.089844 577.292969 390.164062 576.484375 390.164062 575.664062 C 390.164062 557.097656 390.164062 538.546875 390.164062 519.980469 C 390.164062 518.847656 390.164062 517.699219 390.164062 516.332031 C 369.171875 516.332031 348.355469 516.332031 327.425781 516.332031 C 327.425781 495.355469 327.425781 474.628906 327.425781 453.902344 C 317.765625 453.460938 299.023438 453.609375 296.199219 454.152344 C 296.199219 469.691406 296.199219 485.242188 296.199219 500.78125 C 296.199219 516.40625 296.199219 532.035156 296.199219 547.777344 C 306.753906 547.777344 317.046875 547.777344 327.363281 547.777344 C 327.363281 558.507812 327.363281 569.105469 327.363281 579.835938 C 316.929688 579.835938 306.636719 579.835938 296.347656 579.835938 C 295.890625 588.246094 296.070312 639.550781 296.554688 642.402344 C 306.875 642.402344 317.207031 642.402344 327.527344 642.402344 C 327.511719 632.023438 327.511719 621.628906 327.511719 611.089844 Z M 201.605469 295.820312 C 201.605469 306.359375 201.605469 316.648438 201.605469 327.144531 C 202.222656 327.144531 202.78125 327.144531 203.328125 327.144531 C 210.75 327.144531 218.171875 327.144531 225.597656 327.144531 C 237.785156 327.144531 249.953125 327.144531 262.140625 327.144531 C 264.550781 327.144531 264.859375 327.46875 264.859375 329.894531 C 264.875 338.714844 264.875 347.519531 264.859375 356.339844 C 264.859375 358.867188 264.597656 359.132812 262.199219 359.148438 C 258.023438 359.160156 253.851562 359.148438 249.675781 359.148438 C 244.132812 359.148438 238.59375 359.148438 233.007812 359.148438 C 233.007812 369.6875 233.007812 380.050781 233.007812 390.472656 C 248.808594 390.472656 264.464844 390.472656 280.121094 390.472656 C 295.863281 390.472656 311.605469 390.472656 327.496094 390.472656 C 327.496094 395.882812 327.46875 401.070312 327.496094 406.273438 C 327.527344 411.449219 327.363281 416.625 327.601562 421.785156 C 338.15625 421.785156 348.488281 421.785156 358.808594 421.785156 C 358.808594 400.9375 358.808594 380.09375 358.808594 359.148438 C 337.949219 359.148438 317.324219 359.148438 296.699219 359.148438 C 296.597656 359.148438 296.496094 359.085938 296.40625 359.027344 C 296.320312 358.96875 296.246094 358.867188 296.171875 358.777344 C 296.171875 337.789062 296.171875 316.796875 296.171875 295.820312 C 264.683594 295.820312 233.167969 295.820312 201.605469 295.820312 Z M 649.484375 327.128906 C 656.910156 327.128906 664.332031 327.117188 671.757812 327.144531 C 673.695312 327.144531 674.066406 327.585938 674.109375 329.570312 C 674.125 330.144531 674.109375 330.730469 674.109375 331.304688 C 674.109375 339.199219 674.109375 347.078125 674.109375 354.972656 C 674.109375 356.339844 674.109375 357.691406 674.109375 359.160156 C 663.570312 359.160156 653.277344 359.160156 642.929688 359.160156 C 642.929688 369.65625 642.929688 380.035156 642.929688 390.515625 C 653.367188 390.515625 663.65625 390.515625 674.183594 390.515625 C 674.183594 401.011719 674.183594 411.390625 674.183594 421.664062 C 684.722656 421.664062 695.011719 421.664062 705.289062 421.664062 C 705.816406 409.933594 705.597656 298.757812 705.066406 295.9375 C 684.3125 295.9375 663.582031 295.9375 642.855469 295.9375 C 642.855469 306.359375 642.855469 316.648438 642.855469 327.128906 C 645.136719 327.128906 647.3125 327.128906 649.484375 327.128906 Z M 422.0625 485.125 C 422.0625 474.542969 422.0625 464.179688 422.0625 453.800781 C 413.023438 453.800781 404.214844 453.800781 395.410156 453.800781 C 394.25 453.800781 393.089844 453.785156 391.941406 453.800781 C 390.824219 453.828125 390.324219 453.152344 390.179688 452.183594 C 390.074219 451.507812 390.164062 450.800781 390.164062 450.09375 C 390.164062 441.527344 390.164062 432.941406 390.164062 424.371094 C 390.164062 423.503906 390.074219 422.621094 390.03125 421.769531 C 379.476562 421.769531 369.15625 421.769531 358.851562 421.769531 C 358.851562 442.832031 358.851562 463.914062 358.851562 485.109375 C 364.394531 485.109375 369.699219 485.097656 375.023438 485.109375 C 380.300781 485.125 385.59375 485.066406 390.988281 485.15625 C 390.988281 495.753906 390.988281 506.042969 390.988281 516.320312 C 403.039062 516.804688 450.507812 516.613281 453.503906 516.070312 C 453.503906 505.75 453.503906 495.429688 453.503906 485.109375 C 443.082031 485.125 432.691406 485.125 422.0625 485.125 Z M 201.664062 452.992188 C 214.160156 453.492188 293.113281 453.285156 296.082031 452.769531 C 296.082031 442.464844 296.082031 432.175781 296.082031 421.84375 C 264.566406 421.84375 233.183594 421.84375 201.664062 421.84375 C 201.664062 432.425781 201.664062 442.714844 201.664062 452.992188 Z M 453.492188 705.625 C 463.324219 706.066406 481.980469 705.90625 484.816406 705.375 C 484.816406 684.382812 484.816406 663.40625 484.816406 642.414062 C 474.378906 642.414062 463.941406 642.414062 453.492188 642.414062 C 453.492188 663.496094 453.492188 684.558594 453.492188 705.625 Z M 327.511719 295.820312 C 327.511719 274.8125 327.511719 253.996094 327.511719 233.183594 C 317.121094 233.183594 306.726562 233.183594 296.1875 233.183594 C 296.1875 254.1875 296.1875 275.003906 296.1875 295.820312 C 306.578125 295.820312 316.972656 295.820312 327.511719 295.820312 Z M 44.359375 421.914062 C 43.933594 433 44.082031 450.273438 44.609375 452.992188 C 54.914062 452.992188 65.191406 452.992188 75.511719 452.992188 C 75.511719 442.582031 75.511719 432.308594 75.511719 421.914062 C 64.910156 421.914062 54.636719 421.914062 44.359375 421.914062 Z M 610.78125 392.558594 C 610.78125 390.5 610.765625 390.472656 608.839844 390.472656 C 599.917969 390.457031 590.996094 390.472656 582.070312 390.472656 C 581.203125 390.472656 580.324219 390.558594 579.585938 390.589844 C 579.585938 401.113281 579.585938 411.40625 579.585938 421.722656 C 589.996094 421.722656 600.269531 421.722656 610.78125 421.722656 C 610.78125 411.789062 610.78125 402.171875 610.78125 392.558594 Z M 641.972656 327.9375 C 631.507812 327.511719 613.632812 327.675781 610.898438 328.171875 C 610.898438 338.476562 610.898438 348.753906 610.898438 359.085938 C 621.304688 359.085938 631.582031 359.085938 641.972656 359.085938 C 641.972656 348.503906 641.972656 338.214844 641.972656 327.9375 Z M 422.269531 452.960938 C 432.71875 452.960938 443.082031 452.960938 453.417969 452.960938 C 453.417969 442.539062 453.417969 432.265625 453.417969 421.886719 C 442.953125 421.886719 432.558594 421.886719 422.269531 421.886719 C 422.269531 432.175781 422.269531 442.570312 422.269531 452.960938 Z M 579.574219 327.011719 C 589.378906 327.425781 607.914062 327.277344 610.664062 326.792969 C 610.664062 316.488281 610.664062 306.210938 610.664062 295.863281 C 600.269531 295.863281 589.980469 295.863281 579.574219 295.863281 C 579.574219 306.460938 579.574219 316.738281 579.574219 327.011719 Z M 484.65625 485.023438 C 484.65625 474.570312 484.65625 464.207031 484.65625 453.875 C 474.234375 453.875 463.957031 453.875 453.578125 453.875 C 453.578125 464.339844 453.578125 474.734375 453.578125 485.023438 C 463.882812 485.023438 474.261719 485.023438 484.65625 485.023438 Z M 44.375 327.027344 C 55.0625 327.453125 72.71875 327.292969 75.453125 326.792969 C 75.453125 316.488281 75.453125 306.210938 75.453125 295.878906 C 65.042969 295.878906 54.769531 295.878906 44.375 295.878906 C 44.375 306.460938 44.375 316.75 44.375 327.027344 Z M 422.164062 169.839844 C 432.574219 169.839844 442.964844 169.839844 453.359375 169.839844 C 453.785156 159.945312 453.636719 141.367188 453.125 138.515625 C 442.804688 138.515625 432.484375 138.515625 422.164062 138.515625 C 422.164062 148.953125 422.164062 159.402344 422.164062 169.839844 Z M 453.34375 579.675781 C 453.34375 569.222656 453.34375 558.859375 453.34375 548.527344 C 442.921875 548.527344 432.648438 548.527344 422.269531 548.527344 C 422.269531 558.992188 422.269531 569.386719 422.269531 579.675781 C 432.558594 579.675781 442.953125 579.675781 453.34375 579.675781 Z M 579.457031 579.777344 C 579.457031 590.1875 579.457031 600.578125 579.457031 610.972656 C 589.347656 611.398438 607.929688 611.25 610.78125 610.738281 C 610.78125 600.417969 610.78125 590.097656 610.78125 579.777344 C 600.34375 579.777344 589.890625 579.777344 579.457031 579.777344 Z M 674.007812 579.898438 C 664.90625 579.484375 645.679688 579.632812 642.914062 580.101562 C 642.914062 590.40625 642.914062 600.683594 642.914062 611.03125 C 653.308594 611.03125 663.597656 611.03125 674.007812 611.03125 C 674.007812 600.460938 674.007812 590.171875 674.007812 579.898438 Z M 422.164062 642.414062 C 432.71875 642.414062 443.097656 642.414062 453.492188 642.414062 C 453.492188 632.039062 453.492188 621.644531 453.492188 611.089844 C 442.9375 611.089844 432.558594 611.089844 422.164062 611.089844 C 422.164062 621.484375 422.164062 631.859375 422.164062 642.414062 Z M 327.613281 673.59375 C 338.066406 673.59375 348.429688 673.59375 358.765625 673.59375 C 358.765625 663.171875 358.765625 652.898438 358.765625 642.519531 C 348.296875 642.519531 337.90625 642.519531 327.613281 642.519531 C 327.613281 652.808594 327.613281 663.203125 327.613281 673.59375 Z M 705.316406 673.609375 C 705.742188 662.703125 705.582031 645.265625 705.066406 642.535156 C 694.761719 642.535156 684.488281 642.535156 674.152344 642.535156 C 674.152344 652.941406 674.152344 663.214844 674.152344 673.609375 C 684.765625 673.609375 695.054688 673.609375 705.316406 673.609375 Z M 327.394531 674.566406 C 318.355469 674.152344 299.066406 674.300781 296.304688 674.769531 C 296.304688 685.074219 296.304688 695.351562 296.304688 705.699219 C 306.695312 705.699219 316.988281 705.699219 327.394531 705.699219 C 327.394531 695.113281 327.394531 684.839844 327.394531 674.566406 Z M 579.351562 705.625 C 579.777344 695.160156 579.617188 677.285156 579.117188 674.550781 C 568.8125 674.550781 558.539062 674.550781 548.203125 674.550781 C 548.203125 684.957031 548.203125 695.234375 548.203125 705.625 C 558.789062 705.625 569.078125 705.625 579.351562 705.625 Z M 610.78125 703.289062 C 610.78125 705.300781 611.179688 705.742188 613.089844 705.742188 C 622.6875 705.757812 632.289062 705.757812 641.960938 705.757812 C 641.960938 695.261719 641.960938 684.898438 641.960938 674.492188 C 631.550781 674.492188 621.277344 674.492188 610.765625 674.492188 C 610.78125 684.296875 610.765625 693.792969 610.78125 703.289062 Z M 548.246094 107.320312 C 547.71875 120.859375 547.9375 198.109375 548.484375 201.035156 C 579.660156 201.035156 610.824219 201.035156 642.035156 201.035156 C 642.035156 169.75 642.035156 138.585938 642.035156 107.320312 C 610.5625 107.320312 579.410156 107.320312 548.246094 107.320312 Z M 201.414062 201.046875 C 201.914062 189.757812 201.710938 110.21875 201.195312 107.320312 C 169.78125 107.320312 138.382812 107.320312 106.9375 107.320312 C 106.9375 138.601562 106.9375 169.765625 106.9375 201.046875 C 138.632812 201.046875 170.03125 201.046875 201.414062 201.046875 Z M 201.414062 642.296875 C 201.902344 631.832031 201.695312 551.453125 201.210938 548.570312 C 169.796875 548.570312 138.398438 548.570312 106.953125 548.570312 C 106.953125 579.851562 106.953125 611.015625 106.953125 642.296875 C 138.632812 642.296875 170.03125 642.296875 201.414062 642.296875 Z M 201.414062 642.296875 " fill-opacity="1" fill-rule="nonzero"/><g clip-path="url(#ff87949db7)"><path fill="#ffffff" d="M 441.433594 371.65625 C 441.378906 370.570312 441.292969 369.484375 441.183594 368.402344 C 441.070312 367.316406 440.929688 366.234375 440.792969 365.175781 C 440.625 364.089844 440.457031 363.035156 440.234375 361.976562 C 440.011719 360.921875 439.789062 359.863281 439.511719 358.808594 C 439.230469 357.75 438.953125 356.722656 438.648438 355.667969 C 438.339844 354.636719 438.007812 353.609375 437.617188 352.578125 C 437.226562 351.550781 436.863281 350.550781 436.445312 349.546875 C 436.027344 348.546875 435.582031 347.546875 435.136719 346.574219 C 434.664062 345.601562 434.1875 344.625 433.660156 343.652344 C 433.160156 342.707031 432.601562 341.761719 432.042969 340.816406 C 431.488281 339.898438 430.902344 338.980469 430.289062 338.0625 C 429.675781 337.175781 429.0625 336.285156 428.421875 335.394531 C 427.78125 334.53125 427.113281 333.671875 426.417969 332.835938 C 425.71875 332.003906 425.023438 331.167969 424.296875 330.363281 C 423.574219 329.554688 422.820312 328.777344 422.042969 328 C 421.261719 327.21875 420.480469 326.46875 419.675781 325.746094 C 418.867188 325.023438 418.058594 324.300781 417.195312 323.632812 C 416.359375 322.9375 415.496094 322.269531 414.632812 321.628906 C 413.765625 320.992188 412.875 320.351562 411.957031 319.765625 C 411.066406 319.15625 410.144531 318.570312 409.199219 318.015625 C 408.277344 317.460938 407.332031 316.929688 406.355469 316.402344 C 405.382812 315.875 404.433594 315.402344 403.429688 314.929688 C 402.457031 314.457031 401.453125 314.039062 400.449219 313.621094 C 399.445312 313.203125 398.445312 312.816406 397.414062 312.453125 C 396.382812 312.09375 395.351562 311.757812 394.320312 311.425781 C 393.289062 311.121094 392.230469 310.8125 391.171875 310.5625 C 390.113281 310.285156 389.054688 310.0625 387.996094 309.839844 C 386.9375 309.617188 385.851562 309.449219 384.792969 309.285156 C 383.734375 309.117188 382.648438 309.007812 381.558594 308.894531 C 380.472656 308.785156 379.386719 308.699219 378.300781 308.644531 C 377.214844 308.589844 376.128906 308.5625 375.039062 308.5625 C 373.953125 308.5625 372.867188 308.589844 371.78125 308.644531 C 370.695312 308.699219 369.609375 308.785156 368.523438 308.894531 C 367.433594 309.007812 366.347656 309.144531 365.289062 309.285156 C 364.203125 309.449219 363.144531 309.617188 362.085938 309.839844 C 361.027344 310.0625 359.96875 310.285156 358.910156 310.5625 C 357.851562 310.839844 356.820312 311.121094 355.761719 311.425781 C 354.730469 311.730469 353.699219 312.09375 352.667969 312.453125 C 351.636719 312.816406 350.636719 313.203125 349.632812 313.621094 C 348.628906 314.039062 347.625 314.484375 346.652344 314.929688 C 345.675781 315.402344 344.699219 315.875 343.726562 316.402344 C 342.75 316.929688 341.832031 317.460938 340.882812 318.015625 C 339.9375 318.570312 339.042969 319.15625 338.125 319.765625 C 337.234375 320.378906 336.34375 320.992188 335.449219 321.628906 C 334.585938 322.269531 333.722656 322.9375 332.886719 323.632812 C 332.050781 324.328125 331.214844 325.023438 330.40625 325.746094 C 329.601562 326.46875 328.820312 327.21875 328.039062 328 C 327.257812 328.777344 326.507812 329.554688 325.78125 330.363281 C 325.058594 331.167969 324.335938 331.976562 323.636719 332.835938 C 322.941406 333.671875 322.273438 334.53125 321.632812 335.394531 C 320.992188 336.257812 320.351562 337.148438 319.765625 338.0625 C 319.152344 338.953125 318.566406 339.871094 318.011719 340.816406 C 317.453125 341.734375 316.921875 342.679688 316.394531 343.652344 C 315.890625 344.597656 315.390625 345.570312 314.917969 346.574219 C 314.445312 347.546875 314.027344 348.546875 313.609375 349.546875 C 313.191406 350.550781 312.800781 351.550781 312.4375 352.578125 C 312.074219 353.609375 311.742188 354.636719 311.40625 355.667969 C 311.101562 356.695312 310.792969 357.75 310.542969 358.808594 C 310.292969 359.863281 310.042969 360.921875 309.820312 361.976562 C 309.597656 363.035156 309.429688 364.121094 309.261719 365.175781 C 309.09375 366.261719 308.984375 367.316406 308.871094 368.402344 C 308.761719 369.484375 308.675781 370.570312 308.621094 371.65625 C 308.566406 372.738281 308.539062 373.824219 308.539062 374.910156 C 308.539062 375.992188 308.566406 377.078125 308.621094 378.160156 C 308.675781 379.246094 308.761719 380.332031 308.871094 381.414062 C 308.984375 382.5 309.121094 383.585938 309.261719 384.640625 C 309.402344 385.699219 309.597656 386.78125 309.820312 387.839844 C 310.042969 388.894531 310.265625 389.953125 310.542969 391.007812 C 310.820312 392.066406 311.101562 393.09375 311.40625 394.152344 C 311.714844 395.179688 312.046875 396.207031 312.4375 397.238281 C 312.800781 398.265625 313.191406 399.265625 313.609375 400.269531 C 314.027344 401.269531 314.472656 402.269531 314.917969 403.242188 C 315.390625 404.21875 315.863281 405.191406 316.394531 406.164062 C 316.894531 407.109375 317.453125 408.054688 318.011719 409 C 318.566406 409.917969 319.152344 410.835938 319.765625 411.753906 C 320.378906 412.640625 320.992188 413.53125 321.632812 414.421875 C 322.273438 415.285156 322.941406 416.144531 323.636719 416.980469 C 324.335938 417.816406 325.03125 418.648438 325.78125 419.457031 C 326.507812 420.261719 327.257812 421.039062 328.039062 421.820312 C 328.820312 422.597656 329.601562 423.347656 330.40625 424.070312 C 331.214844 424.792969 332.023438 425.515625 332.886719 426.210938 C 333.722656 426.90625 334.585938 427.574219 335.449219 428.214844 C 336.3125 428.855469 337.207031 429.492188 338.125 430.078125 C 339.015625 430.6875 339.9375 431.273438 340.882812 431.828125 C 341.804688 432.386719 342.75 432.914062 343.726562 433.441406 C 344.671875 433.941406 345.648438 434.441406 346.652344 434.914062 C 347.625 435.386719 348.628906 435.804688 349.632812 436.222656 C 350.636719 436.640625 351.636719 437.027344 352.667969 437.390625 C 353.699219 437.753906 354.730469 438.085938 355.761719 438.417969 C 356.792969 438.753906 357.851562 439.03125 358.910156 439.28125 C 359.96875 439.558594 361.027344 439.78125 362.085938 440.003906 C 363.144531 440.226562 364.230469 440.394531 365.289062 440.558594 C 366.375 440.726562 367.433594 440.839844 368.523438 440.949219 C 369.609375 441.0625 370.695312 441.144531 371.78125 441.199219 C 372.867188 441.253906 373.953125 441.285156 375.039062 441.285156 C 376.128906 441.285156 377.214844 441.253906 378.300781 441.199219 C 379.386719 441.144531 380.472656 441.0625 381.558594 440.949219 C 382.648438 440.839844 383.734375 440.699219 384.792969 440.558594 C 385.851562 440.421875 386.9375 440.226562 387.996094 440.003906 C 389.054688 439.78125 390.113281 439.558594 391.171875 439.28125 C 392.230469 439.003906 393.261719 438.726562 394.320312 438.417969 C 395.351562 438.113281 396.382812 437.753906 397.414062 437.390625 C 398.445312 437.027344 399.445312 436.640625 400.449219 436.222656 C 401.453125 435.804688 402.457031 435.359375 403.429688 434.914062 C 404.40625 434.441406 405.382812 433.96875 406.355469 433.441406 C 407.304688 432.941406 408.25 432.386719 409.199219 431.828125 C 410.117188 431.273438 411.035156 430.6875 411.957031 430.078125 C 412.847656 429.464844 413.738281 428.855469 414.632812 428.214844 C 415.496094 427.574219 416.359375 426.90625 417.195312 426.210938 C 418.03125 425.515625 418.867188 424.820312 419.675781 424.070312 C 420.480469 423.347656 421.261719 422.597656 422.042969 421.820312 C 422.820312 421.039062 423.574219 420.261719 424.296875 419.457031 C 425.023438 418.648438 425.746094 417.84375 426.417969 416.980469 C 427.113281 416.144531 427.78125 415.285156 428.421875 414.421875 C 429.0625 413.558594 429.703125 412.671875 430.289062 411.753906 C 430.875 410.835938 431.488281 409.945312 432.042969 409 C 432.601562 408.082031 433.128906 407.136719 433.660156 406.164062 C 434.160156 405.21875 434.664062 404.246094 435.136719 403.242188 C 435.609375 402.269531 436.027344 401.269531 436.445312 400.269531 C 436.863281 399.265625 437.253906 398.265625 437.617188 397.238281 C 437.976562 396.207031 438.3125 395.179688 438.648438 394.152344 C 438.953125 393.121094 439.261719 392.066406 439.511719 391.007812 C 439.789062 389.953125 440.011719 388.894531 440.234375 387.839844 C 440.457031 386.78125 440.625 385.699219 440.792969 384.640625 C 440.960938 383.585938 441.070312 382.5 441.183594 381.414062 C 441.292969 380.332031 441.378906 379.246094 441.433594 378.160156 C 441.488281 377.078125 441.515625 375.992188 441.515625 374.910156 C 441.515625 373.824219 441.488281 372.738281 441.433594 371.65625 Z M 441.433594 371.65625 " fill-opacity="1" fill-rule="nonzero"/><path fill="#000000" d="M 375.125 308.617188 C 374.039062 308.617188 372.953125 308.644531 371.863281 308.699219 C 370.777344 308.757812 369.691406 308.839844 368.605469 308.949219 C 367.519531 309.0625 366.433594 309.199219 365.375 309.339844 C 364.285156 309.507812 363.226562 309.671875 362.167969 309.894531 C 361.109375 310.117188 360.050781 310.339844 358.992188 310.617188 C 357.933594 310.871094 356.902344 311.175781 355.84375 311.480469 C 354.8125 311.785156 353.78125 312.148438 352.753906 312.511719 C 351.722656 312.871094 350.71875 313.261719 349.714844 313.679688 C 348.710938 314.09375 347.710938 314.539062 346.734375 314.984375 C 345.757812 315.429688 344.785156 315.929688 343.835938 316.457031 C 342.890625 316.988281 341.941406 317.515625 340.996094 318.070312 C 340.046875 318.628906 339.15625 319.210938 338.238281 319.824219 C 337.316406 320.433594 336.453125 321.046875 335.5625 321.6875 C 334.699219 322.324219 333.835938 322.992188 333 323.6875 C 332.164062 324.382812 331.328125 325.078125 330.519531 325.800781 C 329.710938 326.523438 328.929688 327.273438 328.152344 328.054688 C 327.371094 328.832031 326.648438 329.609375 325.894531 330.417969 C 325.140625 331.222656 324.445312 332.03125 323.75 332.890625 C 323.050781 333.726562 322.382812 334.589844 321.742188 335.449219 C 321.101562 336.3125 320.460938 337.203125 319.875 338.121094 C 319.261719 339.011719 318.679688 339.925781 318.121094 340.871094 C 317.5625 341.789062 317.035156 342.734375 316.503906 343.710938 C 316.003906 344.65625 315.503906 345.628906 315.027344 346.628906 C 314.554688 347.628906 314.136719 348.601562 313.71875 349.605469 C 313.300781 350.605469 312.910156 351.605469 312.550781 352.636719 C 312.1875 353.664062 311.851562 354.691406 311.519531 355.722656 C 311.210938 356.75 310.90625 357.808594 310.65625 358.863281 C 310.402344 359.921875 310.152344 360.976562 309.929688 362.035156 C 309.707031 363.089844 309.539062 364.175781 309.375 365.230469 C 309.207031 366.289062 309.09375 367.371094 308.984375 368.457031 C 308.871094 369.542969 308.789062 370.625 308.730469 371.710938 C 308.675781 372.796875 308.648438 373.878906 308.648438 374.964844 C 308.648438 376.046875 308.675781 377.132812 308.730469 378.21875 C 308.789062 379.300781 308.871094 380.386719 308.984375 381.472656 C 309.09375 382.554688 309.234375 383.640625 309.375 384.695312 C 309.511719 385.753906 309.707031 386.835938 309.929688 387.894531 C 310.152344 388.949219 310.375 390.007812 310.65625 391.0625 C 310.90625 392.121094 311.210938 393.148438 311.519531 394.207031 C 311.824219 395.234375 312.160156 396.265625 312.550781 397.292969 C 312.910156 398.320312 313.300781 399.324219 313.71875 400.324219 C 314.136719 401.324219 314.582031 402.324219 315.027344 403.300781 C 315.472656 404.273438 315.976562 405.246094 316.503906 406.21875 C 317.035156 407.191406 317.5625 408.109375 318.121094 409.054688 C 318.679688 410 319.261719 410.890625 319.875 411.808594 C 320.488281 412.726562 321.101562 413.585938 321.742188 414.476562 C 322.382812 415.339844 323.050781 416.203125 323.75 417.035156 C 324.445312 417.871094 325.140625 418.703125 325.894531 419.511719 C 326.648438 420.316406 327.371094 421.09375 328.152344 421.875 C 328.929688 422.652344 329.710938 423.402344 330.519531 424.125 C 331.328125 424.851562 332.136719 425.574219 333 426.238281 C 333.835938 426.933594 334.699219 427.601562 335.5625 428.242188 C 336.425781 428.882812 337.316406 429.519531 338.238281 430.105469 C 339.15625 430.6875 340.046875 431.300781 340.996094 431.855469 C 341.914062 432.414062 342.863281 432.941406 343.835938 433.46875 C 344.8125 434 345.757812 434.472656 346.734375 434.945312 C 347.710938 435.417969 348.710938 435.832031 349.714844 436.25 C 350.71875 436.667969 351.722656 437.058594 352.753906 437.417969 C 353.78125 437.78125 354.8125 438.113281 355.84375 438.445312 C 356.875 438.78125 357.933594 439.058594 358.992188 439.308594 C 360.050781 439.585938 361.109375 439.808594 362.167969 440.03125 C 363.226562 440.253906 364.316406 440.421875 365.375 440.589844 C 366.460938 440.753906 367.519531 440.867188 368.605469 440.976562 C 369.691406 441.089844 370.777344 441.171875 371.863281 441.226562 C 372.953125 441.285156 374.039062 441.3125 375.125 441.3125 C 376.210938 441.3125 377.296875 441.285156 378.382812 441.226562 C 379.472656 441.171875 380.558594 441.089844 381.644531 440.976562 C 382.730469 440.867188 383.816406 440.726562 384.875 440.589844 C 385.933594 440.449219 387.019531 440.253906 388.078125 440.03125 C 389.136719 439.808594 390.195312 439.585938 391.257812 439.308594 C 392.316406 439.03125 393.34375 438.753906 394.402344 438.445312 C 395.433594 438.140625 396.464844 437.78125 397.496094 437.417969 C 398.527344 437.058594 399.53125 436.667969 400.535156 436.25 C 401.535156 435.832031 402.539062 435.386719 403.515625 434.945312 C 404.488281 434.5 405.464844 434 406.441406 433.46875 C 407.414062 432.941406 408.335938 432.414062 409.28125 431.855469 C 410.230469 431.300781 411.121094 430.71875 412.039062 430.105469 C 412.960938 429.492188 413.824219 428.882812 414.714844 428.242188 C 415.578125 427.601562 416.441406 426.933594 417.277344 426.238281 C 418.113281 425.542969 418.949219 424.851562 419.757812 424.125 C 420.566406 423.402344 421.34375 422.652344 422.125 421.875 C 422.90625 421.09375 423.65625 420.316406 424.382812 419.511719 C 425.105469 418.703125 425.832031 417.898438 426.5 417.035156 C 427.195312 416.203125 427.863281 415.339844 428.503906 414.476562 C 429.148438 413.617188 429.789062 412.726562 430.371094 411.808594 C 430.957031 410.890625 431.570312 410 432.128906 409.054688 C 432.683594 408.109375 433.214844 407.191406 433.742188 406.21875 C 434.273438 405.246094 434.746094 404.300781 435.21875 403.300781 C 435.695312 402.296875 436.113281 401.324219 436.53125 400.324219 C 436.949219 399.324219 437.335938 398.320312 437.699219 397.292969 C 438.0625 396.265625 438.394531 395.234375 438.730469 394.207031 C 439.035156 393.175781 439.34375 392.121094 439.59375 391.0625 C 439.871094 390.007812 440.097656 388.949219 440.320312 387.894531 C 440.542969 386.835938 440.707031 385.753906 440.875 384.695312 C 441.042969 383.640625 441.15625 382.554688 441.265625 381.472656 C 441.378906 380.386719 441.460938 379.300781 441.515625 378.21875 C 441.574219 377.132812 441.601562 376.046875 441.601562 374.964844 C 441.601562 373.878906 441.574219 372.796875 441.515625 371.710938 C 441.460938 370.625 441.378906 369.542969 441.265625 368.457031 C 441.15625 367.371094 441.015625 366.289062 440.875 365.230469 C 440.738281 364.175781 440.542969 363.089844 440.320312 362.035156 C 440.097656 360.976562 439.871094 359.921875 439.59375 358.863281 C 439.316406 357.808594 439.035156 356.777344 438.730469 355.722656 C 438.425781 354.691406 438.0625 353.664062 437.699219 352.636719 C 437.335938 351.605469 436.949219 350.605469 436.53125 349.605469 C 436.113281 348.601562 435.664062 347.601562 435.21875 346.628906 C 434.746094 345.65625 434.273438 344.683594 433.742188 343.738281 C 433.214844 342.792969 432.683594 341.847656 432.128906 340.902344 C 431.570312 339.984375 430.984375 339.066406 430.371094 338.148438 C 429.757812 337.257812 429.148438 336.367188 428.503906 335.476562 C 427.863281 334.617188 427.195312 333.753906 426.5 332.921875 C 425.804688 332.085938 425.105469 331.25 424.382812 330.445312 C 423.65625 329.640625 422.90625 328.859375 422.125 328.082031 C 421.34375 327.304688 420.566406 326.582031 419.757812 325.828125 C 418.949219 325.078125 418.140625 324.382812 417.277344 323.714844 C 416.414062 323.046875 415.578125 322.351562 414.714844 321.714844 C 413.851562 321.074219 412.960938 320.433594 412.039062 319.851562 C 411.121094 319.265625 410.230469 318.65625 409.28125 318.097656 C 408.335938 317.542969 407.414062 317.015625 406.441406 316.484375 C 405.464844 315.957031 404.519531 315.484375 403.515625 315.011719 C 402.511719 314.539062 401.535156 314.121094 400.535156 313.707031 C 399.53125 313.289062 398.527344 312.898438 397.496094 312.539062 C 396.464844 312.175781 395.433594 311.84375 394.402344 311.507812 C 393.375 311.203125 392.316406 310.898438 391.257812 310.648438 C 390.195312 310.398438 389.136719 310.144531 388.078125 309.921875 C 387.019531 309.703125 385.933594 309.535156 384.875 309.367188 C 383.816406 309.199219 382.730469 309.089844 381.644531 308.976562 C 380.558594 308.867188 379.472656 308.785156 378.382812 308.726562 C 377.296875 308.671875 376.210938 308.617188 375.125 308.617188 Z M 409.03125 327.71875 C 409.199219 327.527344 409.367188 327.359375 409.558594 327.191406 C 409.753906 327.023438 409.976562 326.914062 410.171875 326.800781 C 410.394531 326.691406 410.617188 326.609375 410.871094 326.523438 C 411.121094 326.46875 411.34375 326.414062 411.59375 326.386719 C 411.84375 326.359375 412.097656 326.359375 412.347656 326.386719 C 412.597656 326.414062 412.847656 326.46875 413.070312 326.550781 C 413.292969 326.636719 413.542969 326.71875 413.765625 326.859375 C 413.992188 326.96875 414.183594 327.109375 414.378906 327.273438 C 415.996094 328.636719 417.527344 330.113281 419.003906 331.640625 C 419.171875 331.835938 419.339844 332.03125 419.449219 332.226562 C 419.589844 332.449219 419.703125 332.667969 419.785156 332.890625 C 419.867188 333.113281 419.953125 333.363281 419.980469 333.617188 C 420.007812 333.867188 420.035156 334.117188 420.035156 334.367188 C 420.035156 334.617188 420.007812 334.867188 419.953125 335.117188 C 419.898438 335.367188 419.8125 335.589844 419.703125 335.8125 C 419.589844 336.035156 419.480469 336.257812 419.339844 336.453125 C 419.199219 336.644531 419.03125 336.839844 418.839844 337.007812 C 418.644531 337.175781 418.449219 337.339844 418.253906 337.453125 C 418.03125 337.589844 417.808594 337.703125 417.585938 337.785156 C 417.363281 337.871094 417.109375 337.953125 416.859375 337.980469 C 416.609375 338.035156 416.359375 338.035156 416.109375 338.035156 C 415.855469 338.035156 415.605469 338.007812 415.355469 337.953125 C 415.105469 337.898438 414.882812 337.8125 414.660156 337.730469 C 414.4375 337.621094 414.214844 337.507812 414.019531 337.371094 C 413.824219 337.230469 413.628906 337.0625 413.460938 336.867188 C 412.207031 335.535156 410.84375 334.28125 409.449219 333.085938 C 409.253906 332.921875 409.085938 332.753906 408.917969 332.558594 C 408.753906 332.363281 408.640625 332.167969 408.5 331.917969 C 408.390625 331.695312 408.308594 331.472656 408.222656 331.222656 C 408.140625 330.972656 408.113281 330.75 408.082031 330.5 C 408.054688 330.25 408.082031 330 408.082031 329.75 C 408.113281 329.5 408.167969 329.25 408.25 329.027344 C 408.335938 328.804688 408.417969 328.554688 408.558594 328.332031 C 408.726562 328.109375 408.863281 327.914062 409.03125 327.71875 Z M 362.644531 315.375 C 364.175781 314.984375 365.707031 314.652344 367.269531 314.371094 C 368.828125 314.09375 370.386719 313.898438 371.976562 313.761719 C 373.5625 313.621094 375.125 313.539062 376.710938 313.539062 C 378.300781 313.539062 379.859375 313.59375 381.449219 313.707031 C 383.035156 313.816406 384.597656 314.011719 386.15625 314.261719 C 387.71875 314.511719 389.277344 314.816406 390.808594 315.207031 C 392.34375 315.597656 393.875 316.042969 395.351562 316.542969 C 396.855469 317.042969 398.332031 317.597656 399.78125 318.238281 C 399.976562 318.320312 400.144531 318.40625 400.3125 318.515625 C 400.476562 318.628906 400.644531 318.738281 400.8125 318.878906 C 400.980469 319.015625 401.117188 319.15625 401.230469 319.324219 C 401.339844 319.488281 401.480469 319.65625 401.5625 319.824219 C 401.675781 319.988281 401.757812 320.183594 401.816406 320.378906 C 401.898438 320.574219 401.953125 320.769531 401.980469 320.964844 C 402.011719 321.15625 402.039062 321.378906 402.066406 321.574219 C 402.066406 321.769531 402.066406 321.992188 402.039062 322.1875 C 402.011719 322.382812 401.980469 322.605469 401.925781 322.796875 C 401.871094 322.992188 401.789062 323.1875 401.703125 323.382812 C 401.621094 323.578125 401.507812 323.742188 401.398438 323.910156 C 401.285156 324.078125 401.144531 324.246094 401.007812 324.382812 C 400.867188 324.523438 400.699219 324.660156 400.5625 324.800781 C 400.394531 324.910156 400.226562 325.023438 400.03125 325.132812 C 399.863281 325.21875 399.667969 325.300781 399.476562 325.382812 C 399.28125 325.46875 399.085938 325.496094 398.890625 325.523438 C 398.164062 325.632812 397.46875 325.550781 396.800781 325.246094 C 394.265625 324.160156 391.671875 323.269531 389 322.632812 C 386.324219 321.992188 383.621094 321.546875 380.890625 321.324219 C 378.160156 321.101562 375.402344 321.128906 372.671875 321.378906 C 369.941406 321.628906 367.238281 322.074219 364.566406 322.769531 C 364.316406 322.828125 364.0625 322.882812 363.839844 322.882812 C 363.617188 322.882812 363.339844 322.882812 363.089844 322.855469 C 362.839844 322.828125 362.585938 322.769531 362.363281 322.6875 C 362.140625 322.605469 361.890625 322.492188 361.695312 322.382812 C 361.472656 322.242188 361.277344 322.101562 361.082031 321.9375 C 360.886719 321.769531 360.71875 321.574219 360.582031 321.378906 C 360.441406 321.1875 360.300781 320.964844 360.191406 320.742188 C 360.078125 320.519531 359.996094 320.269531 359.941406 320.046875 C 359.882812 319.824219 359.828125 319.546875 359.828125 319.292969 C 359.828125 319.042969 359.828125 318.792969 359.855469 318.542969 C 359.882812 318.292969 359.941406 318.042969 360.023438 317.820312 C 360.109375 317.597656 360.21875 317.347656 360.332031 317.152344 C 360.46875 316.929688 360.609375 316.738281 360.777344 316.542969 C 360.945312 316.347656 361.136719 316.179688 361.332031 316.042969 C 361.527344 315.902344 361.75 315.761719 361.972656 315.652344 C 362.195312 315.539062 362.390625 315.457031 362.644531 315.375 Z M 372.476562 433.21875 C 308.761719 430.382812 331.660156 371.320312 331.660156 371.320312 C 329.460938 308.617188 358.601562 354.386719 358.601562 354.386719 C 368.746094 350.242188 379.441406 350.410156 379.441406 350.410156 C 379.441406 350.410156 384.902344 330.417969 392.539062 331.28125 C 400.171875 332.140625 404.378906 355.445312 404.378906 355.445312 C 440.261719 372.878906 434.273438 435.972656 372.476562 433.21875 Z M 372.476562 433.21875 " fill-opacity="1" fill-rule="nonzero"/></g><path fill="#000000" d="M 404.15625 403.300781 C 403.960938 403.242188 403.765625 403.242188 403.597656 403.273438 C 403.429688 403.300781 403.234375 403.355469 403.070312 403.4375 C 402.902344 403.523438 402.761719 403.660156 402.652344 403.800781 C 402.539062 403.9375 402.457031 404.132812 402.398438 404.300781 C 402.011719 405.71875 401.371094 406.609375 400.449219 406.96875 C 398.835938 407.609375 396.492188 406.691406 395.324219 406.078125 C 396.160156 401.214844 394.597656 395.679688 394.515625 395.347656 C 394.488281 395.261719 394.460938 395.207031 394.433594 395.125 C 395.324219 394.457031 396.019531 393.621094 396.492188 392.621094 C 396.550781 392.480469 396.605469 392.34375 396.632812 392.203125 C 396.660156 392.066406 396.660156 391.925781 396.632812 391.789062 C 396.632812 391.648438 396.578125 391.507812 396.523438 391.371094 C 396.464844 391.230469 396.382812 391.121094 396.296875 391.007812 C 396.214844 390.898438 396.105469 390.785156 395.992188 390.730469 C 395.878906 390.675781 395.742188 390.589844 395.601562 390.535156 C 395.460938 390.480469 395.324219 390.480469 395.183594 390.453125 C 395.046875 390.425781 394.90625 390.453125 394.765625 390.507812 L 389.5 391.84375 C 389.222656 391.925781 388.972656 392.066406 388.777344 392.289062 C 388.582031 392.511719 388.441406 392.761719 388.386719 393.039062 C 388.332031 393.316406 388.359375 393.621094 388.46875 393.871094 C 388.582031 394.121094 388.75 394.375 389 394.539062 C 389.808594 395.152344 390.699219 395.542969 391.671875 395.761719 C 391.671875 395.902344 391.671875 396.042969 391.730469 396.179688 C 392.480469 398.851562 393.820312 406.441406 390.808594 409.25 C 389.195312 410.78125 386.296875 410.835938 382.199219 409.417969 C 382.007812 409.359375 381.839844 409.332031 381.644531 409.332031 C 381.449219 409.332031 381.253906 409.390625 381.085938 409.472656 C 380.917969 409.554688 380.753906 409.667969 380.640625 409.804688 C 380.5 409.945312 380.417969 410.113281 380.363281 410.304688 C 380.304688 410.5 380.277344 410.667969 380.277344 410.863281 C 380.277344 411.058594 380.335938 411.253906 380.417969 411.417969 C 380.5 411.585938 380.613281 411.753906 380.753906 411.863281 C 380.890625 412.003906 381.058594 412.085938 381.253906 412.140625 C 383.203125 412.863281 385.210938 413.253906 387.300781 413.308594 C 387.800781 413.335938 388.300781 413.308594 388.804688 413.226562 C 389.304688 413.144531 389.777344 413.03125 390.253906 412.863281 C 390.726562 412.699219 391.171875 412.476562 391.617188 412.226562 C 392.035156 411.976562 392.453125 411.667969 392.816406 411.335938 C 393.539062 410.640625 394.097656 409.832031 394.515625 408.917969 C 395.992188 409.640625 397.550781 410.027344 399.195312 410.085938 C 400.003906 410.085938 400.785156 409.945312 401.535156 409.667969 C 403.375 408.945312 404.601562 407.386719 405.269531 405.050781 C 405.324219 404.855469 405.324219 404.691406 405.296875 404.496094 C 405.269531 404.300781 405.214844 404.132812 405.101562 403.964844 C 404.992188 403.800781 404.878906 403.660156 404.710938 403.550781 C 404.488281 403.4375 404.324219 403.355469 404.15625 403.300781 Z M 404.15625 403.300781 " fill-opacity="1" fill-rule="nonzero"/><path fill="#000000" d="M 338.65625 365.289062 L 351.304688 358.53125 C 351.304688 358.53125 336.035156 328.914062 338.65625 365.289062 Z M 338.65625 365.289062 " fill-opacity="1" fill-rule="nonzero"/><path fill="#000000" d="M 401.980469 378.273438 C 398.472656 379.746094 396.910156 384.558594 398.082031 387.339844 C 399.25 390.117188 402.847656 389.3125 406.355469 387.839844 C 409.839844 386.363281 411.929688 384.808594 410.757812 382 C 409.589844 379.164062 405.492188 376.800781 401.980469 378.273438 Z M 401.980469 378.273438 " fill-opacity="1" fill-rule="nonzero"/><path fill="#000000" d="M 397.71875 354.664062 C 397.71875 354.664062 392.453125 326.386719 386.9375 352.523438 C 386.9375 352.550781 392.789062 351.773438 397.71875 354.664062 Z M 397.71875 354.664062 " fill-opacity="1" fill-rule="nonzero"/><path fill="#000000" d="M 370.609375 384.667969 C 365.34375 383.863281 360.300781 387.253906 359.828125 390.480469 C 359.328125 393.679688 364.121094 394.984375 369.414062 395.792969 C 374.707031 396.597656 378.523438 396.597656 378.996094 393.398438 C 379.472656 390.203125 375.90625 385.476562 370.609375 384.667969 Z M 370.609375 384.667969 " fill-opacity="1" fill-rule="nonzero"/></svg>