<svg xmlns="http://www.w3.org/2000/svg" xmlns:xlink="http://www.w3.org/1999/xlink" width="500" zoomAndPan="magnify" viewBox="0 0 375 374.999991" height="500" preserveAspectRatio="xMidYMid meet" version="1.0"><defs><clipPath id="aa2f992883"><path d="M 0 81.5625 L 375 81.5625 L 375 293.8125 L 0 293.8125 Z M 0 81.5625 " clip-rule="nonzero"/></clipPath></defs><g clip-path="url(#aa2f992883)"><path fill="#ffffff" d="M 44.371094 261.183594 C 41.253906 261.378906 39.113281 264.105469 38.726562 266.835938 C 38.53125 268.785156 39.113281 270.929688 40.476562 272.488281 C 41.644531 273.855469 43.203125 274.632812 44.757812 274.632812 C 46.316406 274.632812 47.871094 273.855469 49.039062 272.683594 C 50.402344 271.320312 51.179688 269.175781 50.984375 267.421875 C 50.597656 264.300781 47.871094 260.988281 44.371094 261.183594 Z M 47.09375 270.929688 C 46.316406 271.710938 45.535156 272.101562 44.5625 272.101562 C 43.589844 272.101562 42.8125 271.710938 42.035156 270.734375 C 41.0625 269.761719 40.671875 268.199219 40.867188 267.03125 C 41.0625 265.472656 42.421875 263.523438 44.175781 263.523438 C 46.316406 263.328125 47.871094 265.472656 48.066406 267.421875 C 48.457031 268.785156 48.066406 270.148438 47.09375 270.929688 Z M 194.214844 132.90625 L 203.164062 131.738281 L 209.78125 138.753906 C 209.976562 138.949219 210.367188 139.144531 210.558594 139.144531 C 210.753906 139.144531 210.753906 139.144531 210.949219 139.144531 C 211.339844 138.949219 211.726562 138.5625 211.726562 138.171875 L 213.285156 129.398438 L 220.097656 124.71875 C 220.484375 124.523438 220.679688 124.132812 220.679688 123.550781 C 220.679688 122.964844 220.289062 122.769531 219.902344 122.574219 L 213.089844 119.457031 L 211.535156 110.488281 C 211.535156 110.097656 211.144531 109.707031 210.753906 109.511719 C 210.367188 109.320312 209.976562 109.511719 209.585938 109.707031 L 202.386719 116.140625 L 195.382812 114.582031 C 194.992188 114.582031 194.410156 114.582031 194.214844 114.972656 C 194.019531 115.363281 193.824219 115.75 194.019531 116.140625 L 197.132812 124.132812 L 193.242188 130.957031 C 193.046875 131.347656 193.046875 131.933594 193.242188 132.324219 C 193.433594 132.710938 193.824219 132.90625 194.214844 132.90625 Z M 199.46875 124.914062 C 199.664062 124.523438 199.664062 124.132812 199.46875 123.941406 L 197.132812 117.507812 L 202.582031 118.675781 C 202.972656 118.675781 203.359375 118.675781 203.554688 118.480469 L 209.585938 113.023438 L 210.949219 120.429688 C 210.949219 120.820312 211.339844 121.210938 211.726562 121.40625 L 217.175781 123.941406 L 211.726562 127.644531 C 211.535156 127.839844 211.339844 128.035156 211.144531 128.421875 L 209.78125 135.441406 L 204.332031 129.789062 C 204.136719 129.59375 203.75 129.398438 203.554688 129.398438 C 203.554688 129.398438 203.359375 129.398438 203.359375 129.398438 L 196.160156 130.371094 Z M 374.222656 200.554688 C 375 198.996094 375 197.046875 374.027344 195.09375 C 373.054688 192.5625 371.496094 191 369.941406 190.417969 C 369.355469 190.222656 368.773438 190.222656 368.1875 190.222656 C 367.605469 187.6875 365.855469 184.375 361.574219 183.984375 C 356.902344 183.59375 354.566406 187.6875 353.984375 190.613281 C 351.453125 191.195312 347.5625 193.730469 346.976562 199.578125 C 346.78125 202.308594 347.367188 204.257812 348.921875 205.425781 C 349.894531 206.207031 351.257812 206.402344 352.425781 206.402344 C 352.230469 207.378906 352.230469 208.742188 352.621094 209.910156 C 353.203125 211.277344 354.371094 212.445312 355.929688 213.03125 C 356.902344 213.421875 357.875 213.617188 358.652344 213.617188 C 360.792969 213.617188 362.15625 212.640625 363.128906 211.472656 C 365.074219 213.03125 368.1875 214.199219 371.109375 211.859375 C 372.277344 211.082031 372.859375 209.910156 373.054688 208.546875 C 373.054688 206.792969 372.082031 205.039062 371.300781 203.867188 C 372.277344 202.894531 373.441406 201.917969 374.222656 200.554688 Z M 372.082031 199.382812 C 371.300781 201.140625 368.96875 201.917969 368.96875 201.917969 C 368.578125 202.113281 368.1875 202.308594 368.1875 202.894531 C 368.1875 203.285156 368.1875 203.671875 368.578125 204.0625 C 369.160156 204.648438 370.71875 206.597656 370.71875 208.15625 C 370.71875 208.742188 370.328125 209.328125 369.746094 209.714844 C 367.019531 211.859375 363.90625 208.742188 363.90625 208.546875 C 363.714844 208.15625 363.128906 208.15625 362.738281 208.15625 C 362.351562 208.15625 361.960938 208.546875 361.765625 208.9375 C 361.574219 209.328125 360.40625 212.054688 356.707031 210.691406 C 355.734375 210.300781 354.957031 209.714844 354.761719 208.9375 C 354.175781 207.378906 354.957031 205.425781 354.957031 205.425781 C 355.152344 205.039062 355.152344 204.453125 354.761719 204.0625 C 354.566406 203.867188 354.175781 203.671875 353.789062 203.671875 C 353.59375 203.671875 353.59375 203.671875 353.398438 203.671875 C 352.816406 203.867188 351.0625 204.0625 350.089844 203.285156 C 349.117188 202.503906 349.117188 200.75 349.117188 199.578125 C 349.507812 193.339844 354.566406 192.757812 354.761719 192.757812 C 355.34375 192.757812 355.734375 192.367188 355.734375 191.78125 C 355.734375 191.585938 356.707031 186.128906 360.988281 186.324219 C 365.269531 186.710938 365.660156 191.390625 365.660156 191.585938 C 365.660156 191.976562 365.855469 192.367188 366.242188 192.5625 C 366.632812 192.757812 367.019531 192.757812 367.410156 192.5625 C 367.410156 192.5625 367.996094 192.367188 368.773438 192.5625 C 369.746094 192.949219 370.71875 194.121094 371.496094 195.875 C 372.46875 197.238281 372.46875 198.410156 372.082031 199.382812 Z M 343.863281 264.496094 C 338.609375 264.496094 334.328125 268.785156 334.328125 274.050781 C 334.328125 279.3125 338.609375 283.601562 343.863281 283.601562 C 349.117188 283.601562 353.398438 279.3125 353.398438 274.050781 C 353.398438 268.785156 349.117188 264.496094 343.863281 264.496094 Z M 343.863281 281.066406 C 339.972656 281.066406 336.859375 277.949219 336.859375 274.050781 C 336.859375 270.148438 339.972656 267.03125 343.863281 267.03125 C 347.753906 267.03125 350.871094 270.148438 350.871094 274.050781 C 350.871094 277.949219 347.753906 281.066406 343.863281 281.066406 Z M 268.746094 198.019531 C 268.746094 198.019531 268.550781 198.019531 268.550781 198.019531 C 260.378906 198.019531 254.347656 199.96875 250.066406 202.308594 C 250.066406 196.65625 245.589844 188.078125 240.917969 182.035156 C 238.582031 178.914062 232.160156 171.3125 226.519531 170.921875 C 222.820312 170.726562 220.097656 171.507812 218.734375 173.261719 C 217.957031 174.042969 217.761719 175.015625 217.566406 175.796875 C 217.175781 175.601562 216.789062 175.601562 216.59375 175.40625 C 214.0625 174.820312 211.921875 175.210938 210.558594 176.378906 C 209.003906 177.746094 208.417969 179.109375 208.417969 180.863281 C 208.417969 181.253906 208.613281 181.644531 208.613281 182.035156 C 202.191406 179.890625 193.433594 179.890625 186.625 183.789062 C 186.429688 183.984375 186.039062 183.984375 185.847656 184.179688 C 177.089844 181.644531 161.910156 180.28125 156.265625 179.890625 C 157.238281 178.523438 158.019531 177.550781 158.019531 177.160156 C 158.210938 176.964844 158.210938 176.769531 158.210938 176.574219 C 159.964844 157.664062 151.011719 147.917969 143.226562 143.238281 C 129.410156 134.855469 108.003906 135.441406 93.214844 144.800781 C 68.695312 160.394531 60.523438 183.789062 71.808594 207.765625 C 79.203125 223.558594 90.683594 226.285156 98.078125 226.285156 C 102.167969 226.285156 104.890625 225.507812 104.890625 225.3125 C 106.253906 224.921875 107.421875 224.335938 108.78125 223.753906 C 116.179688 228.429688 125.90625 233.109375 138.75 237.007812 C 162.882812 244.417969 182.34375 248.121094 197.523438 248.121094 C 207.835938 248.121094 216.007812 246.367188 222.625 243.050781 C 237.609375 235.253906 245.785156 224.53125 247.535156 216.929688 C 256.488281 209.714844 269.332031 208.351562 277.113281 214.785156 C 281.394531 218.292969 283.535156 222.386719 282.5625 225.703125 C 281.980469 228.042969 279.839844 229.601562 277.113281 229.796875 C 272.640625 230.1875 268.164062 234.476562 267.382812 238.957031 C 266.800781 241.882812 267.382812 247.730469 276.726562 252.019531 C 279.449219 253.382812 282.175781 253.96875 284.898438 253.96875 C 288.984375 253.96875 293.070312 252.410156 296.378906 249.484375 C 303.191406 243.636719 305.914062 233.5 303.191406 224.144531 C 297.742188 206.597656 286.457031 198.019531 268.746094 198.019531 Z M 104.113281 223.167969 C 103.335938 223.363281 84.652344 229.210938 73.949219 206.792969 C 63.441406 183.984375 71.03125 161.566406 94.578125 146.75 C 101.972656 142.070312 111.3125 139.730469 120.265625 139.730469 C 128.242188 139.730469 136.027344 141.679688 142.058594 145.382812 C 149.261719 149.867188 157.433594 158.640625 156.070312 176.1875 C 155.878906 176.574219 155.292969 177.355469 154.320312 178.523438 C 151.789062 172.871094 143.421875 156.691406 130.382812 151.816406 C 129.996094 151.621094 129.410156 151.816406 129.023438 152.011719 C 128.828125 152.207031 124.546875 156.496094 123.378906 160.589844 C 119.292969 160.589844 104.308594 161.371094 95.9375 171.3125 C 93.796875 169.949219 88.351562 166.632812 85.042969 167.414062 C 84.070312 167.609375 83.289062 168.191406 82.902344 169.167969 C 80.566406 173.652344 78.230469 189.246094 86.597656 201.140625 C 87.183594 202.503906 91.65625 212.054688 106.449219 222.191406 C 105.667969 222.582031 104.890625 222.777344 104.113281 223.167969 Z M 150.039062 183.984375 C 149.84375 183.984375 149.84375 183.984375 149.648438 183.984375 L 143.8125 183.984375 C 143.226562 183.984375 142.644531 184.566406 142.644531 185.152344 C 142.644531 185.738281 143.226562 186.324219 143.8125 186.324219 L 148.09375 186.324219 C 139.335938 197.238281 124.546875 213.617188 108.976562 221.023438 C 93.019531 210.496094 88.542969 200.359375 88.542969 200.164062 C 88.542969 200.164062 88.542969 199.96875 88.351562 199.96875 C 80.761719 189.050781 82.707031 174.429688 84.847656 170.335938 C 85.042969 170.140625 85.234375 169.949219 85.429688 169.753906 C 87.570312 169.167969 92.632812 171.898438 95.355469 173.847656 C 95.9375 174.234375 96.523438 174.042969 96.914062 173.652344 C 105.28125 162.539062 123.765625 162.929688 123.960938 162.929688 C 124.546875 162.929688 125.128906 162.539062 125.128906 161.953125 C 125.714844 159.03125 128.632812 155.519531 129.800781 154.15625 C 142.644531 159.421875 150.816406 177.160156 152.179688 180.667969 C 151.789062 181.839844 151.011719 182.8125 150.039062 183.984375 Z M 294.628906 247.730469 C 289.765625 252.019531 283.535156 252.800781 277.503906 249.875 C 271.664062 247.148438 268.941406 243.441406 269.523438 239.347656 C 270.109375 235.449219 274 232.527344 277.113281 232.136719 C 280.8125 231.746094 283.730469 229.601562 284.703125 226.289062 C 286.066406 222 283.730469 217.125 278.476562 212.835938 C 268.746094 204.84375 251.621094 207.765625 242.085938 218.683594 C 241.695312 219.269531 241.695312 219.855469 242.28125 220.4375 C 242.671875 220.828125 243.253906 220.828125 243.644531 220.632812 C 240.527344 227.066406 233.132812 235.058594 221.457031 240.90625 C 206.085938 248.707031 178.644531 246.757812 139.335938 234.667969 C 127.660156 231.160156 118.511719 226.675781 111.3125 222.386719 C 129.996094 213.03125 147.3125 191.585938 154.320312 182.035156 C 157.628906 182.230469 173.390625 183.398438 183.121094 185.738281 C 179.617188 188.664062 176.308594 193.730469 176.308594 201.722656 C 176.308594 207.570312 178.0625 212.25 181.757812 215.566406 C 187.792969 221.21875 197.132812 221.804688 201.414062 221.804688 C 202.777344 221.804688 203.75 221.804688 203.945312 221.804688 C 204.527344 221.804688 205.113281 221.21875 205.113281 220.4375 C 205.113281 219.855469 204.527344 219.269531 203.75 219.269531 C 203.554688 219.269531 190.515625 220.242188 183.511719 213.617188 C 180.398438 210.691406 178.839844 206.597656 178.839844 201.527344 C 179.035156 192.171875 183.707031 187.6875 187.792969 185.347656 C 195.382812 181.058594 206.085938 182.035156 211.921875 185.542969 C 212.507812 185.933594 213.285156 185.738281 213.480469 185.152344 C 213.867188 184.566406 213.675781 183.789062 213.089844 183.59375 C 212.507812 183.203125 210.949219 181.644531 210.753906 180.085938 C 210.753906 179.304688 211.144531 178.328125 212.117188 177.550781 C 213.089844 176.769531 214.839844 176.769531 216.007812 177.160156 C 221.457031 178.523438 229.4375 184.761719 231.964844 191.585938 C 232.160156 192.171875 232.941406 192.5625 233.523438 192.171875 C 234.105469 191.976562 234.496094 191.195312 234.105469 190.613281 C 231.578125 184.375 225.351562 178.71875 219.902344 175.992188 C 219.902344 175.40625 219.902344 174.625 220.484375 174.042969 C 221.457031 172.871094 223.402344 172.480469 226.324219 172.675781 C 229.632812 172.871094 234.496094 176.769531 238.972656 182.8125 C 244.617188 190.222656 248.3125 198.996094 247.535156 202.894531 C 247.535156 202.894531 247.535156 202.894531 247.535156 203.089844 C 244.03125 205.234375 242.28125 207.183594 242.28125 207.378906 C 241.890625 207.960938 241.890625 208.546875 242.476562 209.132812 C 243.058594 209.523438 243.644531 209.523438 244.226562 208.9375 C 244.226562 208.9375 252.207031 199.96875 268.746094 199.773438 C 268.746094 199.773438 268.941406 199.773438 268.941406 199.773438 C 285.484375 199.773438 295.992188 207.765625 300.855469 224.53125 C 303.191406 233.5 300.855469 242.46875 294.628906 247.730469 Z M 154.125 202.308594 C 157.628906 206.792969 153.542969 212.25 150.816406 214.589844 C 150.621094 214.785156 150.234375 214.785156 150.039062 214.785156 C 149.648438 214.785156 149.261719 214.589844 149.066406 214.394531 C 148.675781 213.808594 148.675781 213.03125 149.261719 212.640625 C 149.261719 212.640625 155.097656 207.570312 152.179688 203.671875 C 151.984375 203.476562 151.789062 203.089844 151.011719 203.089844 C 146.925781 202.503906 137.777344 209.132812 134.664062 211.667969 C 134.082031 212.054688 133.304688 212.054688 132.914062 211.472656 C 132.523438 210.886719 132.523438 210.105469 133.109375 209.714844 C 134.277344 208.742188 145.367188 199.96875 151.207031 200.554688 C 152.570312 200.945312 153.542969 201.332031 154.125 202.308594 Z M 170.082031 189.832031 C 169.886719 190.222656 165.996094 197.046875 160.160156 197.433594 C 159.964844 197.433594 159.964844 197.433594 159.769531 197.433594 C 158.40625 197.433594 157.433594 196.851562 157.042969 196.070312 C 154.710938 193.144531 156.851562 186.324219 157.238281 184.957031 C 157.433594 184.375 158.210938 183.984375 158.796875 184.179688 C 159.378906 184.375 159.769531 185.152344 159.574219 185.738281 C 158.601562 188.664062 157.824219 193.144531 158.992188 194.707031 C 159.183594 194.902344 159.378906 195.09375 159.964844 195.09375 C 164.441406 194.707031 167.941406 188.855469 167.941406 188.664062 C 168.332031 188.078125 168.914062 187.882812 169.5 188.273438 C 170.082031 188.46875 170.277344 189.246094 170.082031 189.832031 Z M 131.164062 181.449219 C 130.578125 181.644531 130.1875 182.230469 130.1875 182.8125 C 130.1875 183.203125 130.773438 185.738281 127.660156 186.90625 C 124.15625 188.273438 121.433594 186.519531 121.238281 186.519531 C 120.847656 186.324219 120.460938 186.324219 120.070312 186.324219 C 119.679688 186.519531 119.484375 186.710938 119.292969 187.101562 C 118.707031 189.832031 117.539062 191.390625 115.984375 192.171875 C 113.648438 193.144531 110.730469 191.585938 110.730469 191.585938 C 110.144531 191.195312 109.367188 191.390625 109.171875 191.976562 C 108.78125 192.5625 108.976562 193.339844 109.5625 193.535156 C 109.757812 193.535156 111.703125 194.707031 114.230469 194.707031 C 115.203125 194.707031 115.984375 194.511719 116.957031 194.121094 C 116.957031 194.121094 116.957031 194.121094 117.152344 194.121094 C 118.125 194.511719 121.238281 196.070312 123.960938 196.070312 C 124.546875 196.070312 125.128906 196.070312 125.519531 195.875 C 128.632812 194.902344 128.4375 190.417969 128.242188 189.050781 C 128.242188 189.050781 128.4375 189.050781 128.4375 189.050781 C 132.523438 187.492188 132.71875 183.789062 132.328125 182.230469 C 132.523438 181.839844 131.941406 181.449219 131.164062 181.449219 Z M 124.933594 193.730469 C 123.765625 194.121094 121.433594 193.535156 119.484375 192.757812 C 120.265625 191.78125 121.042969 190.613281 121.433594 189.246094 C 122.40625 189.636719 124.15625 190.027344 126.101562 189.832031 C 126.296875 191.390625 126.101562 193.535156 124.933594 193.730469 Z M 144.785156 174.042969 L 140.503906 180.28125 C 140.308594 180.667969 139.917969 180.863281 139.53125 180.863281 C 139.335938 180.863281 139.140625 180.863281 138.945312 180.667969 C 138.363281 180.28125 138.167969 179.5 138.558594 178.914062 L 142.839844 172.675781 C 143.226562 172.089844 144.007812 171.898438 144.589844 172.285156 C 144.980469 172.871094 145.175781 173.457031 144.785156 174.042969 Z M 148.480469 176.769531 C 148.871094 177.355469 148.871094 177.941406 148.480469 178.523438 L 143.421875 183.203125 C 143.226562 183.398438 142.839844 183.59375 142.644531 183.59375 C 142.253906 183.59375 142.058594 183.398438 141.671875 183.203125 C 141.28125 182.617188 141.28125 182.035156 141.671875 181.449219 L 146.730469 176.769531 C 147.316406 176.1875 148.09375 176.1875 148.480469 176.769531 Z M 109.367188 203.089844 L 102.554688 204.648438 C 102.554688 204.648438 102.359375 204.648438 102.359375 204.648438 C 101.777344 204.648438 101.386719 204.257812 101.195312 203.671875 C 101 203.089844 101.386719 202.308594 102.167969 202.308594 L 108.976562 200.75 C 109.5625 200.554688 110.339844 200.945312 110.339844 201.722656 C 110.339844 202.308594 109.949219 202.894531 109.367188 203.089844 Z M 111.3125 206.988281 L 106.253906 210.105469 C 106.058594 210.300781 105.863281 210.300781 105.667969 210.300781 C 105.28125 210.300781 104.890625 210.105469 104.695312 209.714844 C 104.308594 209.132812 104.5 208.351562 105.085938 207.960938 L 110.144531 204.84375 C 110.730469 204.453125 111.507812 204.648438 111.898438 205.234375 C 112.089844 206.011719 111.898438 206.792969 111.3125 206.988281 Z M 113.0625 209.910156 C 113.0625 210.300781 113.257812 210.886719 111.507812 215.566406 C 111.3125 215.953125 110.921875 216.34375 110.339844 216.34375 C 110.144531 216.34375 109.949219 216.34375 109.949219 216.34375 C 109.367188 216.148438 108.976562 215.371094 109.171875 214.785156 C 109.757812 213.03125 110.535156 210.886719 110.730469 210.300781 C 110.730469 209.714844 111.117188 209.132812 111.703125 208.9375 C 112.285156 208.742188 112.871094 209.132812 113.0625 209.910156 Z M 100.804688 191.585938 C 99.832031 190.222656 100.027344 188.46875 101 187.882812 C 101.972656 187.296875 103.527344 187.882812 104.5 189.246094 C 105.476562 190.613281 105.28125 192.367188 104.308594 192.949219 C 103.335938 193.730469 101.777344 192.949219 100.804688 191.585938 Z M 128.046875 176.769531 C 127.074219 175.40625 127.269531 173.652344 128.242188 173.066406 C 129.214844 172.480469 130.773438 173.066406 131.746094 174.429688 C 132.71875 175.796875 132.523438 177.550781 131.550781 178.136719 C 130.578125 178.914062 129.023438 178.136719 128.046875 176.769531 Z M 307.082031 140.898438 C 303.582031 140.898438 300.855469 143.628906 300.855469 147.136719 C 300.855469 150.648438 303.582031 153.375 307.082031 153.375 C 310.585938 153.375 313.3125 150.648438 313.3125 147.136719 C 313.3125 143.628906 310.585938 140.898438 307.082031 140.898438 Z M 307.082031 151.039062 C 304.941406 151.039062 303.191406 149.28125 303.191406 147.136719 C 303.191406 144.992188 304.941406 143.238281 307.082031 143.238281 C 309.222656 143.238281 310.976562 144.992188 310.976562 147.136719 C 310.976562 149.28125 309.222656 151.039062 307.082031 151.039062 Z M 196.742188 281.066406 C 195.1875 280.871094 193.242188 281.261719 191.878906 282.238281 C 190.320312 283.210938 189.347656 284.769531 188.960938 286.332031 C 188.765625 288.085938 189.347656 290.035156 190.710938 291.398438 C 192.074219 292.765625 193.824219 293.738281 195.769531 293.738281 C 195.964844 293.738281 196.160156 293.738281 196.160156 293.738281 C 197.910156 293.542969 199.664062 292.570312 201.023438 291.007812 C 202.191406 289.644531 202.582031 287.890625 202.386719 286.136719 C 201.804688 283.210938 199.078125 281.457031 196.742188 281.066406 Z M 199.078125 289.449219 C 198.300781 290.425781 197.132812 291.203125 195.964844 291.203125 C 194.796875 291.398438 193.433594 290.816406 192.460938 289.644531 C 191.683594 288.671875 191.101562 287.5 191.292969 286.527344 C 191.488281 285.550781 192.074219 284.769531 193.046875 283.992188 C 193.824219 283.40625 194.796875 283.210938 195.769531 283.210938 C 195.964844 283.210938 196.160156 283.210938 196.355469 283.210938 C 197.910156 283.40625 199.46875 284.578125 199.855469 286.332031 C 200.050781 287.5 199.855469 288.671875 199.078125 289.449219 Z M 97.691406 94.503906 C 98.078125 94.503906 98.46875 94.699219 98.859375 94.699219 C 101.972656 94.699219 104.695312 92.554688 105.28125 89.628906 C 106.058594 86.316406 103.917969 82.804688 100.414062 82.027344 C 98.46875 81.636719 96.523438 82.027344 94.773438 83.195312 C 93.214844 84.367188 92.242188 85.925781 92.046875 87.679688 C 91.851562 90.796875 94.1875 93.917969 97.691406 94.503906 Z M 96.132812 84.949219 C 97.105469 84.171875 98.46875 83.976562 99.636719 84.171875 C 101.582031 84.753906 103.335938 86.703125 102.75 89.042969 C 102.167969 91.382812 99.832031 92.554688 97.886719 92.164062 C 95.746094 91.773438 94.1875 89.824219 94.382812 87.875 C 94.578125 86.703125 95.160156 85.535156 96.132812 84.949219 Z M 25.105469 167.996094 L 29.386719 159.613281 C 29.578125 159.226562 29.578125 158.640625 29.191406 158.25 C 28.996094 157.859375 28.410156 157.664062 28.023438 157.859375 L 18.875 159.421875 L 12.261719 152.988281 C 12.066406 152.597656 11.480469 152.597656 11.09375 152.597656 C 10.703125 152.792969 10.3125 153.183594 10.3125 153.570312 L 8.953125 162.734375 L 0.582031 167.023438 C 0.195312 167.21875 0 167.609375 0 168.191406 C 0 168.582031 0.195312 168.972656 0.582031 169.363281 L 8.953125 173.457031 L 10.3125 182.617188 C 10.3125 183.007812 10.703125 183.398438 11.09375 183.59375 C 11.285156 183.59375 11.285156 183.59375 11.480469 183.59375 C 11.871094 183.59375 12.066406 183.398438 12.261719 183.203125 L 18.683594 176.378906 L 27.828125 177.941406 C 28.21875 177.941406 28.800781 177.746094 28.996094 177.355469 C 29.191406 176.964844 29.386719 176.574219 28.996094 175.992188 Z M 18.683594 174.042969 C 18.292969 174.042969 17.902344 174.042969 17.707031 174.429688 L 12.453125 179.890625 L 11.285156 172.480469 C 11.285156 172.089844 10.898438 171.703125 10.703125 171.507812 L 3.890625 168.191406 L 10.507812 164.878906 C 10.898438 164.683594 11.09375 164.292969 11.09375 163.902344 L 12.066406 156.496094 L 17.320312 161.757812 C 17.515625 161.953125 17.902344 162.148438 18.292969 162.148438 L 25.6875 160.785156 L 22.183594 167.414062 C 21.988281 167.804688 21.988281 168.191406 22.183594 168.582031 L 25.6875 175.210938 Z M 18.683594 174.042969 " fill-opacity="1" fill-rule="nonzero"/></g></svg>